<?xml version="1.0" standalone="no"?><!DOCTYPE svg PUBLIC "-//W3C//DTD SVG 1.1//EN" "http://www.w3.org/Graphics/SVG/1.1/DTD/svg11.dtd"><svg height="800" node-id="1" sillyvg="true" template-height="800" template-width="800" version="1.1" viewBox="0 0 800 800" width="800" xmlns="http://www.w3.org/2000/svg" xmlns:xlink="http://www.w3.org/1999/xlink"><defs node-id="155"><linearGradient gradientUnits="objectBoundingBox" id="SVGID_1_" node-id="19" spreadMethod="pad" x1="402.08" x2="402.08" y1="157.7809" y2="713.2725"><stop offset="0.00000009590021" stop-color="#f4f2fb"></stop><stop offset="1" stop-color="#e1eef5"></stop></linearGradient><linearGradient gradientUnits="objectBoundingBox" id="SVGID_2_" node-id="23" spreadMethod="pad" x1="463.0548" x2="568.6028" y1="622.3301" y2="439.5156"><stop offset="0.3396" stop-color="#b0b9e1"></stop><stop offset="0.8657" stop-color="#eaf0f8"></stop></linearGradient><linearGradient gradientUnits="objectBoundingBox" id="SVGID_3_" node-id="28" spreadMethod="pad" x1="117.1618" x2="117.1618" y1="538.1672" y2="400.9926"><stop offset="0.2267" stop-color="#b7ace0"></stop><stop offset="0.7893" stop-color="#e8e7fa"></stop></linearGradient><linearGradient gradientUnits="objectBoundingBox" id="SVGID_4_" node-id="33" spreadMethod="pad" x1="117.1637" x2="117.1637" y1="416.2243" y2="567.3577"><stop offset="0" stop-color="#ecf1fb"></stop><stop offset="0.818" stop-color="#afb0e7"></stop></linearGradient><linearGradient gradientUnits="objectBoundingBox" id="SVGID_5_" node-id="38" spreadMethod="pad" x1="618.2906" x2="618.2906" y1="446.6453" y2="358.3208"><stop offset="0.2267" stop-color="#ccd4f4"></stop><stop offset="0.7893" stop-color="#ecf1fb"></stop></linearGradient><linearGradient gradientUnits="objectBoundingBox" id="SVGID_6_" node-id="43" spreadMethod="pad" x1="618.2919" x2="618.2919" y1="368.1282" y2="465.4406"><stop offset="0" stop-color="#ecf1fb"></stop><stop offset="1" stop-color="#a6a8e2"></stop></linearGradient><linearGradient gradientUnits="objectBoundingBox" id="SVGID_7_" node-id="47" spreadMethod="pad" x1="464.2087" x2="429.4545" y1="84.0387" y2="144.2348"><stop offset="0" stop-color="#ffdb80"></stop><stop offset="1" stop-color="#ffbb24"></stop></linearGradient><linearGradient gradientUnits="objectBoundingBox" id="SVGID_8_" node-id="51" spreadMethod="pad" x1="421.8716" x2="421.8716" y1="114.5048" y2="171.9588"><stop offset="0" stop-color="#f9fafe"></stop><stop offset="1" stop-color="#e5edf7"></stop></linearGradient><linearGradient gradientUnits="objectBoundingBox" id="SVGID_9_" node-id="56" spreadMethod="pad" x1="688.8929" x2="688.8929" y1="535.8854" y2="508.0572"><stop offset="0.2267" stop-color="#afb0e7"></stop><stop offset="1" stop-color="#ecf1fb"></stop></linearGradient><linearGradient gradientUnits="objectBoundingBox" id="SVGID_10_" node-id="60" spreadMethod="pad" x1="688.9421" x2="688.9421" y1="511.5709" y2="556.3668"><stop offset="0.00000009590021" stop-color="#dde1f6"></stop><stop offset="0.818" stop-color="#a6a8e2"></stop></linearGradient><linearGradient gradientUnits="objectBoundingBox" id="SVGID_11_" node-id="65" spreadMethod="pad" x1="976.222" x2="786.7928" y1="330.9702" y2="659.0713"><stop offset="0.1157" stop-color="#dee4ff"></stop><stop offset="0.8472" stop-color="#bacbee"></stop></linearGradient><linearGradient gradientUnits="objectBoundingBox" id="SVGID_12_" node-id="69" spreadMethod="pad" x1="777.7258" x2="669.6151" y1="404.1654" y2="591.4186"><stop offset="0" stop-color="#afc5eb"></stop><stop offset="1" stop-color="#afb0e7"></stop></linearGradient><linearGradient gradientUnits="objectBoundingBox" id="SVGID_13_" node-id="73" spreadMethod="pad" x1="902.6494" x2="818.3886" y1="288.493" y2="434.437"><stop offset="0.1157" stop-color="#c6d3f4"></stop><stop offset="0.8472" stop-color="#bacbee"></stop></linearGradient><linearGradient gradientUnits="objectBoundingBox" id="SVGID_14_" node-id="77" spreadMethod="pad" x1="919.4705" x2="863.8185" y1="494.555" y2="494.555"><stop offset="0" stop-color="#afc5eb"></stop><stop offset="1" stop-color="#afb0e7"></stop></linearGradient><linearGradient gradientUnits="objectBoundingBox" id="SVGID_15_" node-id="81" spreadMethod="pad" x1="879.4778" x2="895.777" y1="520.823" y2="549.0541"><stop offset="0" stop-color="#ebf2fa"></stop><stop offset="0.5247" stop-color="#fdfeff"></stop></linearGradient><linearGradient gradientUnits="objectBoundingBox" id="SVGID_16_" node-id="85" spreadMethod="pad" x1="314.9389" x2="502.06" y1="306.7861" y2="306.7861"><stop offset="0" stop-color="#c8cbf2"></stop><stop offset="1" stop-color="#afb0e7"></stop></linearGradient><linearGradient gradientUnits="objectBoundingBox" id="SVGID_17_" node-id="89" spreadMethod="pad" x1="867.9017" x2="867.9017" y1="382.9418" y2="232.497"><stop offset="0.1157" stop-color="#dee4ff"></stop><stop offset="0.8472" stop-color="#bacbee"></stop></linearGradient><linearGradient gradientUnits="objectBoundingBox" id="SVGID_18_" node-id="94" spreadMethod="pad" x1="308.1577" x2="288.1865" y1="3375.3723" y2="3340.7813"><stop offset="0" stop-color="#ffdb80"></stop><stop offset="1" stop-color="#ffbb24"></stop></linearGradient><linearGradient gradientUnits="objectBoundingBox" id="SVGID_19_" node-id="99" spreadMethod="pad" x1="9535.746" x2="9535.746" y1="-1728.132" y2="-1750.0448"><stop offset="0" stop-color="#f4b9a4"></stop><stop offset="0.652" stop-color="#fad1bb"></stop></linearGradient><linearGradient gradientUnits="objectBoundingBox" id="SVGID_20_" node-id="103" spreadMethod="pad" x1="9520.397" x2="9520.397" y1="-1707.7672" y2="-1734.9916"><stop offset="0" stop-color="#c3d5fd"></stop><stop offset="1" stop-color="#1a90fc"></stop></linearGradient><linearGradient gradientUnits="objectBoundingBox" id="SVGID_21_" node-id="107" spreadMethod="pad" x1="9525.047" x2="9560.478" y1="-1745.4132" y2="-1745.4132"><stop offset="0" stop-color="#4f5c7c"></stop><stop offset="1" stop-color="#274168"></stop></linearGradient><linearGradient gradientUnits="objectBoundingBox" id="SVGID_22_" node-id="111" spreadMethod="pad" x1="9522.179" x2="9557.007" y1="-1749.519" y2="-1749.519"><stop offset="0" stop-color="#18264b"></stop><stop offset="0.652" stop-color="#2d3c65"></stop></linearGradient><linearGradient gradientUnits="objectBoundingBox" id="SVGID_23_" node-id="115" spreadMethod="pad" x1="9542.698" x2="9542.698" y1="-1728.8141" y2="-1750.8636"><stop offset="0" stop-color="#f4b9a4"></stop><stop offset="0.652" stop-color="#fad1bb"></stop></linearGradient><linearGradient gradientUnits="objectBoundingBox" id="SVGID_24_" node-id="119" spreadMethod="pad" x1="10317.098" x2="10317.098" y1="-3140.7097" y2="-3170.8604"><stop offset="0" stop-color="#f4b9a4"></stop><stop offset="0.652" stop-color="#fad1bb"></stop></linearGradient><linearGradient gradientUnits="objectBoundingBox" id="SVGID_25_" node-id="123" spreadMethod="pad" x1="11724.987" x2="11684.333" y1="-7365.388" y2="-7365.388"><stop offset="0" stop-color="#4f5c7c"></stop><stop offset="1" stop-color="#274168"></stop></linearGradient><linearGradient gradientUnits="objectBoundingBox" id="SVGID_26_" node-id="127" spreadMethod="pad" x1="9507.243" x2="9588.399" y1="-1691.1556" y2="-1691.1556"><stop offset="0" stop-color="#18264b"></stop><stop offset="0.652" stop-color="#2d3c65"></stop></linearGradient><linearGradient gradientUnits="objectBoundingBox" id="SVGID_27_" node-id="131" spreadMethod="pad" x1="9614.839" x2="9474.55" y1="-1709.598" y2="-1709.598"><stop offset="0" stop-color="#445677"></stop><stop offset="1" stop-color="#293861"></stop></linearGradient><linearGradient gradientUnits="objectBoundingBox" id="SVGID_28_" node-id="135" spreadMethod="pad" x1="7439.1006" x2="7439.1006" y1="-1068.0662" y2="-1182.7621"><stop offset="0" stop-color="#c3d5fd"></stop><stop offset="1" stop-color="#1a90fc"></stop></linearGradient><linearGradient gradientUnits="objectBoundingBox" id="SVGID_29_" node-id="139" spreadMethod="pad" x1="233.8553" x2="228.9221" y1="599.3071" y2="590.7626"><stop offset="0" stop-color="#ffdb80"></stop><stop offset="1" stop-color="#ffbb24"></stop></linearGradient><linearGradient gradientUnits="objectBoundingBox" id="SVGID_30_" node-id="144" spreadMethod="pad" x1="10188.788" x2="10212.315" y1="-2604.8564" y2="-2604.8564"><stop offset="0" stop-color="#f4b9a4"></stop><stop offset="0.652" stop-color="#fad1bb"></stop></linearGradient><linearGradient gradientUnits="objectBoundingBox" id="SVGID_31_" node-id="148" spreadMethod="pad" x1="9492.696" x2="9492.696" y1="-1695.0824" y2="-1767.3904"><stop offset="0" stop-color="#c3d5fd"></stop><stop offset="1" stop-color="#1a90fc"></stop></linearGradient></defs><g node-id="460"><g node-id="463"><g node-id="464"><path d="M 485.30 199.10 L 480.40 202.70 L 475.00 206.00 L 469.20 209.10 L 462.80 212.00 L 456.30 214.40 L 442.30 218.40 L 434.70 220.00 L 424.60 221.60 L 414.00 222.50 L 403.00 222.90 L 392.00 222.60 L 380.80 221.80 L 369.50 220.20 L 361.00 218.70 L 344.20 214.40 L 335.90 211.70 L 327.70 208.60 L 319.70 205.10 L 311.90 201.20 L 297.60 193.30 L 290.60 189.90 L 283.30 186.80 L 267.70 181.60 L 251.40 177.90 L 234.40 175.50 L 217.30 174.60 L 208.70 174.60 L 200.10 175.10 L 191.70 176.00 L 183.40 177.30 L 175.20 178.90 L 167.10 181.00 L 159.30 183.50 L 151.90 186.30 L 144.70 189.60 L 137.70 193.30 L 131.20 197.50 L 125.10 202.10 L 119.50 207.10 L 115.30 211.40 L 111.40 216.10 L 107.90 221.00 L 104.80 226.20 L 101.90 231.80 L 99.40 238.10 L 97.30 244.30 L 95.80 250.50 L 94.80 256.50 L 94.00 268.80 L 94.60 281.00 L 95.70 289.00 L 97.20 297.00 L 102.50 316.70 L 115.60 358.00 L 118.80 372.00 L 119.80 379.00 L 120.10 385.60 L 119.90 392.10 L 119.30 396.90 L 118.30 401.60 L 116.80 406.20 L 114.70 410.80 L 111.50 416.60 L 103.30 429.50 L 81.10 461.00 L 73.50 472.40 L 64.00 488.20 L 59.70 496.30 L 55.80 504.70 L 52.40 513.20 L 49.60 521.80 L 47.90 528.40 L 46.70 535.10 L 45.90 541.90 L 45.60 548.90 L 45.80 555.70 L 46.50 562.70 L 47.90 569.90 L 49.90 577.30 L 54.30 588.80 L 57.20 594.70 L 64.80 607.20 L 71.00 615.80 L 77.20 623.50 L 83.40 630.20 L 89.50 636.10 L 96.00 641.80 L 102.50 646.70 L 108.90 651.00 L 115.20 654.60 L 121.90 657.80 L 128.50 660.50 L 134.90 662.80 L 141.40 664.50 L 150.10 666.30 L 158.60 667.50 L 167.00 668.00 L 175.50 668.10 L 191.50 667.00 L 203.20 665.40 L 234.00 659.60 L 240.30 658.70 L 246.70 658.30 L 253.20 658.30 L 259.90 658.80 L 268.60 660.10 L 277.70 662.10 L 287.00 664.60 L 305.60 671.00 L 359.90 693.10 L 375.30 699.00 L 385.70 702.50 L 396.20 705.70 L 406.90 708.40 L 414.90 710.10 L 431.20 712.50 L 439.40 713.10 L 447.70 713.30 L 456.00 713.00 L 464.40 712.10 L 472.90 710.70 L 481.30 708.80 L 489.80 706.30 L 498.50 703.00 L 507.30 699.00 L 514.10 695.50 L 521.00 691.50 L 528.00 686.90 L 535.20 681.60 L 547.90 671.70 L 553.20 668.20 L 558.60 665.30 L 564.00 662.90 L 575.40 659.20 L 586.90 657.10 L 594.80 656.40 L 602.70 656.10 L 622.70 656.90 L 658.50 659.80 L 666.30 660.20 L 681.30 659.80 L 688.70 659.00 L 695.90 657.60 L 702.80 655.60 L 707.80 653.60 L 712.70 651.20 L 717.50 648.20 L 722.20 644.70 L 726.50 640.90 L 730.80 636.40 L 735.00 631.20 L 739.10 625.10 L 742.60 619.00 L 746.10 611.90 L 749.50 603.70 L 752.80 594.40 L 755.00 586.60 L 756.60 579.30 L 757.80 572.30 L 758.40 565.70 L 758.50 558.90 L 758.30 552.40 L 757.70 546.20 L 756.70 540.20 L 754.90 532.30 L 752.50 524.70 L 749.70 517.50 L 746.40 510.40 L 739.10 496.90 L 732.90 487.20 L 714.40 459.80 L 708.80 450.90 L 704.00 442.30 L 701.30 436.30 L 699.10 430.40 L 697.40 424.50 L 696.60 420.00 L 696.10 415.50 L 696.00 410.80 L 696.40 406.10 L 697.20 401.50 L 698.50 396.60 L 700.30 391.60 L 707.30 377.10 L 711.40 367.80 L 714.90 358.50 L 718.10 349.10 L 720.70 339.50 L 723.00 330.00 L 724.80 320.50 L 726.10 311.10 L 727.00 301.60 L 727.50 292.30 L 727.60 283.20 L 727.20 274.20 L 726.40 265.10 L 725.30 256.40 L 723.70 248.00 L 721.80 239.80 L 719.40 231.70 L 716.60 224.00 L 713.50 216.60 L 710.00 209.60 L 706.10 202.90 L 701.80 196.50 L 697.20 190.70 L 692.30 185.30 L 688.10 181.30 L 683.30 177.70 L 678.10 174.20 L 672.30 171.00 L 666.40 168.30 L 660.00 165.90 L 653.30 163.70 L 646.10 161.90 L 631.50 159.20 L 615.60 157.90 L 604.90 157.80 L 593.90 158.30 L 582.60 159.50 L 571.30 161.20 L 560.00 163.60 L 548.60 166.70 L 532.00 172.50 L 515.70 179.90 L 507.70 184.10 L 500.10 188.70 L 492.60 193.70 L 485.30 199.10 Z" fill="url(#SVGID_1_)" fill-rule="nonzero" group-id="13,16,17" node-id="361" stroke="none" target-height="555.5" target-width="712.9" target-x="45.6" target-y="157.8"></path><path d="M 415.10 493.60 L 662.30 493.60 L 569.00 590.30 L 369.40 568.30 Z" fill="url(#SVGID_2_)" fill-rule="nonzero" group-id="13,16,17" node-id="363" stroke="none" target-height="96.69998" target-width="292.9" target-x="369.4" target-y="493.6"></path><g node-id="467"><path d="M 117.90 401.20 L 117.70 401.00 L 117.40 401.30 L 114.50 408.20 L 106.00 431.10 L 99.30 452.40 L 96.10 464.20 L 93.30 476.20 L 89.70 496.50 L 88.20 514.10 L 88.50 519.00 L 89.20 521.90 L 91.80 527.40 L 95.40 531.60 L 97.80 533.30 L 100.70 534.90 L 104.30 536.30 L 108.10 537.30 L 112.80 537.90 L 118.40 538.20 L 122.80 537.90 L 129.60 536.50 L 132.30 535.40 L 135.70 533.50 L 138.40 531.30 L 140.50 528.80 L 142.30 526.10 L 144.60 520.40 L 145.60 515.90 L 146.00 511.90 L 145.90 500.60 L 144.40 489.10 L 142.70 480.00 L 140.40 470.20 L 134.90 450.40 L 128.90 431.80 L 117.90 401.20 Z" fill="url(#SVGID_3_)" fill-rule="nonzero" group-id="13,16,17,20" node-id="367" stroke="none" target-height="137.20001" target-width="57.800003" target-x="88.2" target-y="401"></path><g node-id="470"><path d="M 117.20 567.40 L 116.50 567.10 L 116.20 566.40 L 116.20 417.20 L 116.50 416.50 L 117.20 416.20 L 117.90 416.50 L 118.20 417.20 L 118.20 566.40 L 117.90 567.10 L 117.20 567.40 Z" fill="url(#SVGID_4_)" fill-rule="nonzero" group-id="13,16,17,20,23" node-id="371" stroke="none" target-height="151.20001" target-width="2" target-x="116.2" target-y="416.2"></path></g></g><g node-id="468"><path d="M 618.80 358.50 L 618.50 358.50 L 616.60 363.00 L 613.10 372.00 L 608.90 384.40 L 604.80 399.00 L 602.90 406.80 L 600.30 422.40 L 599.70 429.90 L 599.70 433.40 L 600.20 435.90 L 601.10 438.30 L 602.80 440.80 L 604.20 442.30 L 608.60 445.00 L 611.30 445.90 L 614.80 446.40 L 619.10 446.70 L 622.80 446.40 L 625.70 445.80 L 628.00 444.90 L 632.00 442.20 L 633.40 440.70 L 635.00 438.00 L 636.00 435.20 L 636.90 429.70 L 636.90 425.50 L 636.60 419.90 L 634.00 406.10 L 632.10 398.60 L 627.80 384.00 L 618.80 358.50 Z" fill="url(#SVGID_5_)" fill-rule="nonzero" group-id="13,16,17,21" node-id="377" stroke="none" target-height="88.20001" target-width="37.200012" target-x="599.7" target-y="358.5"></path><g node-id="471"><path d="M 618.30 465.40 L 617.70 464.80 L 617.80 368.30 L 618.30 368.10 L 618.90 368.80 L 618.90 464.80 L 618.80 465.20 L 618.30 465.40 Z" fill="url(#SVGID_6_)" fill-rule="nonzero" group-id="13,16,17,21,24" node-id="381" stroke="none" target-height="97.29999" target-width="1.2000122" target-x="617.7" target-y="368.1"></path></g></g><path d="M 481.60 114.10 L 481.20 118.90 L 480.30 123.40 L 478.80 127.70 L 476.80 131.70 L 474.30 135.40 L 471.40 138.70 L 468.10 141.70 L 464.40 144.10 L 460.40 146.20 L 456.10 147.60 L 451.60 148.60 L 446.80 148.90 L 442.10 148.60 L 437.60 147.60 L 433.30 146.20 L 429.30 144.10 L 425.60 141.70 L 422.30 138.70 L 419.30 135.40 L 416.80 131.70 L 414.80 127.70 L 413.30 123.40 L 412.40 118.90 L 412.10 114.10 L 412.40 109.40 L 413.30 104.90 L 414.80 100.60 L 416.80 96.60 L 419.30 92.90 L 422.30 89.60 L 425.60 86.60 L 429.30 84.10 L 433.30 82.10 L 437.60 80.60 L 442.10 79.70 L 446.80 79.40 L 451.60 79.70 L 456.10 80.60 L 460.40 82.10 L 464.40 84.10 L 468.10 86.60 L 471.40 89.60 L 474.30 92.90 L 476.80 96.60 L 478.80 100.60 L 480.30 104.90 L 481.20 109.40 L 481.60 114.10 Z" fill="url(#SVGID_7_)" fill-rule="nonzero" group-id="13,16,17" node-id="385" stroke="none" target-height="69.49999" target-width="69.5" target-x="412.1" target-y="79.4"></path><path d="M 466.60 133.10 L 432.00 133.10 L 431.00 129.60 L 429.50 126.50 L 427.60 123.60 L 425.30 121.00 L 422.60 118.80 L 419.60 117.00 L 416.30 115.60 L 412.80 114.80 L 409.10 114.50 L 405.40 114.80 L 401.90 115.60 L 398.60 117.00 L 395.60 118.80 L 393.00 121.00 L 390.60 123.60 L 388.70 126.50 L 387.20 129.60 L 386.20 133.10 L 377.10 133.10 L 373.60 133.40 L 370.30 134.30 L 367.30 135.70 L 364.60 137.70 L 362.30 140.00 L 360.30 142.70 L 358.90 145.70 L 358.00 149.00 L 357.70 152.50 L 358.00 156.10 L 358.90 159.30 L 360.30 162.30 L 362.30 165.10 L 364.60 167.40 L 367.30 169.30 L 370.30 170.80 L 373.60 171.60 L 377.10 172.00 L 466.60 172.00 L 470.10 171.60 L 473.40 170.80 L 476.40 169.30 L 479.10 167.40 L 481.50 165.10 L 483.40 162.30 L 484.80 159.30 L 485.70 156.10 L 486.00 152.50 L 485.70 149.00 L 484.80 145.70 L 483.40 142.70 L 481.50 140.00 L 479.10 137.70 L 476.40 135.70 L 473.40 134.30 L 470.20 133.40 L 466.60 133.10 Z" fill="url(#SVGID_8_)" fill-rule="nonzero" group-id="13,16,17" node-id="387" stroke="none" target-height="57.5" target-width="128.29999" target-x="357.7" target-y="114.5"></path><g node-id="469"><path d="M 702.80 522.00 L 702.60 524.50 L 701.90 526.80 L 700.90 529.00 L 699.50 530.90 L 695.90 534.00 L 693.80 535.00 L 691.40 535.60 L 688.90 535.90 L 686.40 535.60 L 684.00 535.00 L 681.90 534.00 L 679.90 532.60 L 678.30 530.90 L 676.90 529.00 L 675.90 526.80 L 675.20 524.50 L 675.00 522.00 L 675.20 519.40 L 675.90 517.10 L 676.90 514.90 L 678.30 513.00 L 679.90 511.30 L 681.90 510.00 L 684.00 508.90 L 686.40 508.30 L 688.90 508.10 L 691.40 508.30 L 693.80 508.90 L 695.90 510.00 L 697.90 511.30 L 700.90 514.90 L 701.90 517.10 L 702.60 519.40 L 702.80 522.00 Z" fill="url(#SVGID_9_)" fill-rule="nonzero" group-id="13,16,17,22" node-id="391" stroke="none" target-height="27.800018" target-width="27.799988" target-x="675" target-y="508.1"></path><path d="M 688.90 556.40 L 688.50 555.90 L 688.60 511.70 L 689.20 511.70 L 689.40 512.00 L 689.40 555.90 L 688.90 556.40 Z" fill="url(#SVGID_10_)" fill-rule="nonzero" group-id="13,16,17,22" node-id="393" stroke="none" target-height="44.700012" target-width="0.9000244" target-x="688.5" target-y="511.7"></path></g></g><g node-id="465"><path d="M 515.60 638.00 L 239.00 570.40 L 239.00 360.20 L 515.60 395.10 Z" fill="url(#SVGID_11_)" fill-rule="nonzero" group-id="13,16,18" node-id="399" stroke="none" target-height="277.8" target-width="276.59998" target-x="239" target-y="360.2"></path><path d="M 568.80 357.60 L 515.60 395.10 L 515.60 638.00 L 569.00 590.30 Z" fill="url(#SVGID_12_)" fill-rule="nonzero" group-id="13,16,18" node-id="401" stroke="none" target-height="280.4" target-width="53.400024" target-x="515.6" target-y="357.6"></path><path d="M 313.20 343.00 L 568.80 357.60 L 515.60 395.10 L 239.00 360.20 Z" fill="url(#SVGID_13_)" fill-rule="nonzero" group-id="13,16,18" node-id="403" stroke="none" target-height="52.100006" target-width="329.8" target-x="239" target-y="343"></path><path d="M 346.40 470.80 L 346.70 466.50 L 347.40 462.60 L 348.60 458.80 L 350.20 455.20 L 352.20 451.90 L 354.60 449.00 L 357.20 446.40 L 360.20 444.20 L 363.40 442.40 L 366.80 441.10 L 370.40 440.30 L 374.20 440.00 L 378.00 440.30 L 381.60 441.10 L 385.10 442.40 L 388.30 444.20 L 391.20 446.40 L 393.90 449.00 L 396.30 452.00 L 398.20 455.20 L 399.90 458.80 L 401.10 462.60 L 401.80 466.60 L 402.10 470.80 L 401.80 475.00 L 401.10 479.00 L 399.90 482.80 L 398.20 486.40 L 396.30 489.60 L 393.90 492.60 L 391.20 495.20 L 388.30 497.40 L 385.10 499.20 L 389.20 549.10 L 355.80 540.80 L 358.60 496.20 L 354.10 492.00 L 352.10 489.50 L 349.10 484.00 L 347.10 477.70 L 346.40 470.80 Z" fill="url(#SVGID_14_)" fill-rule="nonzero" group-id="13,16,18" node-id="405" stroke="none" target-height="109.099976" target-width="55.700012" target-x="346.4" target-y="440"></path><path d="M 389.20 549.10 L 355.80 540.80 L 386.90 521.10 Z" fill="url(#SVGID_15_)" fill-rule="nonzero" group-id="13,16,18" node-id="407" stroke="none" target-height="28" target-width="33.400024" target-x="355.8" target-y="521.1"></path><path d="M 500.60 381.10 L 491.30 383.00 L 482.00 374.90 L 473.40 366.80 L 464.80 357.80 L 461.00 353.20 L 458.10 349.00 L 456.60 346.20 L 455.80 343.90 L 454.50 329.80 L 451.90 318.00 L 448.20 307.20 L 443.90 298.70 L 441.20 294.60 L 438.20 290.80 L 434.80 287.20 L 431.00 284.00 L 426.80 281.10 L 422.00 278.60 L 418.30 277.20 L 409.70 275.10 L 404.80 274.50 L 399.80 274.40 L 395.20 274.80 L 391.20 275.50 L 387.50 276.70 L 384.00 278.30 L 380.80 280.20 L 377.90 282.40 L 375.30 285.00 L 372.30 288.80 L 369.60 293.10 L 367.30 297.90 L 363.90 308.20 L 362.60 313.80 L 361.20 322.40 L 360.30 331.20 L 359.50 348.50 L 359.40 364.20 L 350.10 366.10 L 336.60 355.70 L 327.60 347.60 L 321.00 340.10 L 317.10 334.10 L 315.80 331.10 L 315.10 328.30 L 315.00 325.60 L 316.00 315.80 L 318.30 301.70 L 320.20 293.70 L 322.90 285.20 L 325.00 279.50 L 330.60 268.10 L 334.00 262.70 L 337.80 257.40 L 342.30 252.40 L 345.80 248.90 L 349.80 245.60 L 358.80 239.70 L 363.60 237.30 L 368.90 235.30 L 374.70 233.50 L 381.00 232.10 L 387.20 231.20 L 394.10 230.70 L 401.60 230.70 L 409.80 231.20 L 417.90 232.30 L 425.40 233.70 L 432.30 235.50 L 438.50 237.60 L 444.80 240.20 L 450.60 243.00 L 455.80 246.10 L 460.60 249.40 L 465.30 253.00 L 469.50 256.80 L 476.90 265.00 L 481.30 270.80 L 485.00 276.80 L 488.30 282.90 L 491.20 289.20 L 495.60 301.60 L 498.10 311.00 L 499.80 319.60 L 501.00 328.10 L 501.60 335.40 L 502.10 347.40 L 500.60 381.10 Z" fill="url(#SVGID_16_)" fill-rule="nonzero" group-id="13,16,18" node-id="409" stroke="none" target-height="152.3" target-width="187.1" target-x="315" target-y="230.7"></path><path d="M 491.30 382.90 L 446.10 377.20 L 446.10 343.80 L 445.70 336.50 L 444.10 325.80 L 442.60 319.80 L 438.90 309.00 L 434.50 300.50 L 431.90 296.50 L 428.90 292.70 L 425.40 289.10 L 421.70 285.90 L 417.40 283.00 L 412.60 280.50 L 404.80 277.80 L 400.40 276.90 L 395.50 276.40 L 390.40 276.30 L 385.90 276.60 L 381.80 277.40 L 378.20 278.60 L 374.70 280.20 L 371.50 282.10 L 368.60 284.30 L 366.00 286.90 L 362.90 290.70 L 360.30 295.00 L 358.00 299.80 L 354.50 310.10 L 353.30 315.70 L 351.90 324.30 L 350.40 341.90 L 350.10 366.00 L 303.20 360.20 L 306.60 317.60 L 309.00 303.50 L 310.90 295.60 L 313.60 287.00 L 318.30 275.70 L 321.20 270.00 L 324.60 264.50 L 328.50 259.30 L 332.90 254.20 L 336.50 250.70 L 340.40 247.50 L 344.70 244.40 L 349.40 241.60 L 354.30 239.20 L 359.50 237.10 L 365.30 235.40 L 371.60 233.90 L 377.90 233.00 L 384.70 232.60 L 392.20 232.60 L 400.50 233.10 L 408.60 234.20 L 416.10 235.60 L 422.90 237.40 L 429.20 239.50 L 435.50 242.00 L 441.20 244.90 L 446.50 247.90 L 451.30 251.20 L 455.90 254.90 L 464.10 262.70 L 467.60 266.80 L 471.90 272.70 L 475.70 278.70 L 479.00 284.80 L 484.30 297.30 L 486.30 303.50 L 488.80 312.80 L 490.50 321.50 L 492.30 337.30 L 492.70 349.30 L 491.30 382.90 Z" fill="url(#SVGID_17_)" fill-rule="nonzero" group-id="13,16,18" node-id="411" stroke="none" target-height="150.29999" target-width="189.5" target-x="303.2" target-y="232.6"></path></g><g node-id="466"><path d="M 205.00 598.90 L 203.50 600.90 L 200.30 603.00 L 196.00 604.10 L 191.10 604.00 L 186.10 608.30 L 180.80 612.20 L 174.60 616.00 L 173.10 618.10 L 172.60 619.80 L 173.00 622.90 L 173.40 623.70 L 194.50 617.20 L 204.80 612.90 L 209.30 610.40 L 205.00 598.90 Z" fill="url(#SVGID_18_)" fill-rule="nonzero" group-id="13,16,19" node-id="416" stroke="none" target-height="24.799988" target-width="36.699997" target-x="172.6" target-y="598.9"></path><path d="M 210.80 613.10 L 209.40 609.60 L 200.10 613.40 L 192.20 616.00 L 183.30 618.50 L 171.60 621.20 L 171.80 624.10 L 175.00 623.50 L 183.70 621.70 L 196.10 618.30 L 210.80 613.10 Z" fill="#d4e4fe" fill-rule="nonzero" group-id="13,16,19" node-id="418" stroke="none" target-height="14.5" target-width="39.199997" target-x="171.6" target-y="609.6"></path><path d="M 261.70 535.30 L 255.60 529.30 L 253.50 527.60 L 251.20 526.50 L 246.30 525.40 L 243.50 525.80 L 242.60 526.50 L 241.20 529.30 L 240.70 532.10 L 240.90 533.30 L 241.20 534.10 L 243.40 535.60 L 258.30 544.00 L 262.80 539.00 L 261.70 535.30 Z" fill="url(#SVGID_19_)" fill-rule="nonzero" group-id="13,16,19" node-id="420" stroke="none" target-height="18.599976" target-width="22.09999" target-x="240.7" target-y="525.4"></path><path d="M 282.60 540.90 L 275.60 540.70 L 265.40 539.80 L 259.00 538.40 L 256.50 537.40 L 253.00 550.30 L 260.10 554.10 L 263.40 555.60 L 271.10 558.00 L 277.50 558.70 L 282.20 557.80 L 284.80 556.60 L 288.10 554.40 L 289.80 552.60 L 290.60 551.10 L 291.00 548.50 L 290.90 547.40 L 282.60 540.90 Z" fill="url(#SVGID_20_)" fill-rule="nonzero" group-id="13,16,19" node-id="422" stroke="none" target-height="21.299988" target-width="38" target-x="253" target-y="537.4"></path><path d="M 224.30 514.10 L 222.50 514.10 L 221.90 523.40 L 260.00 548.50 L 264.40 540.20 L 263.70 538.30 Z" fill="url(#SVGID_21_)" fill-rule="nonzero" group-id="13,16,19" node-id="424" stroke="none" target-height="34.400024" target-width="42.5" target-x="221.9" target-y="514.1"></path><path d="M 224.10 511.90 L 222.50 514.10 L 264.40 540.20 L 266.60 537.70 Z" fill="url(#SVGID_22_)" fill-rule="nonzero" group-id="13,16,19" node-id="426" stroke="none" target-height="28.300018" target-width="44.100006" target-x="222.5" target-y="511.9"></path><path d="M 250.20 542.10 L 251.70 539.70 L 252.90 536.60 L 253.10 535.10 L 252.70 534.30 L 252.10 534.10 L 251.40 534.50 L 249.70 536.00 L 247.70 538.60 L 248.60 535.80 L 248.80 533.80 L 248.60 533.10 L 248.10 532.70 L 247.30 532.70 L 246.60 533.10 L 245.50 534.70 L 243.40 540.30 L 242.40 539.00 L 243.80 534.80 L 244.50 531.60 L 244.50 530.30 L 244.10 529.60 L 243.50 529.50 L 242.90 529.80 L 242.10 530.70 L 240.30 535.20 L 239.80 536.20 L 239.40 536.30 L 238.30 534.90 L 237.30 532.50 L 236.50 528.40 L 236.10 527.70 L 235.50 527.40 L 234.80 528.10 L 234.50 529.20 L 234.50 531.30 L 235.30 535.10 L 236.10 537.20 L 238.70 541.40 L 241.90 545.10 L 244.90 547.10 L 245.90 547.20 L 247.00 546.70 L 248.10 545.70 L 250.20 542.10 Z" fill="url(#SVGID_23_)" fill-rule="nonzero" group-id="13,16,19" node-id="428" stroke="none" target-height="19.799988" target-width="18.600006" target-x="234.5" target-y="527.4"></path><path d="M 263.00 464.60 L 266.70 471.40 L 268.80 474.00 L 273.30 478.00 L 275.40 479.10 L 278.60 480.10 L 280.40 479.30 L 282.50 477.40 L 283.10 477.40 L 284.80 478.90 L 288.50 484.40 L 289.90 484.20 L 291.30 483.40 L 296.00 478.90 L 299.40 474.70 L 282.60 456.90 L 281.40 456.60 L 279.90 456.50 L 274.60 458.10 L 269.10 460.80 L 263.00 464.60 Z" fill="url(#SVGID_24_)" fill-rule="nonzero" group-id="13,16,19" node-id="430" stroke="none" target-height="27.899994" target-width="36.399994" target-x="263" target-y="456.5"></path><path d="M 262.50 451.30 L 264.80 447.60 L 266.10 446.60 L 267.80 445.90 L 270.20 446.00 L 271.90 446.70 L 274.30 445.10 L 276.40 444.30 L 278.40 444.10 L 280.30 444.50 L 281.90 445.40 L 283.40 446.70 L 284.50 448.40 L 285.40 450.30 L 286.20 453.50 L 290.50 458.10 L 291.50 459.60 L 292.50 463.00 L 292.10 466.40 L 291.50 468.10 L 288.50 472.40 L 286.50 473.30 L 284.00 472.60 L 282.60 471.50 L 281.60 470.00 L 280.60 466.70 L 279.80 465.50 L 278.90 464.50 L 278.00 464.30 L 277.10 465.00 L 276.70 467.80 L 277.20 469.80 L 276.60 470.00 L 274.70 468.00 L 273.30 464.70 L 272.30 463.60 L 271.90 463.70 L 271.30 464.30 L 269.80 467.40 L 267.00 470.50 L 262.80 473.20 L 260.40 474.00 L 257.00 474.30 L 255.20 473.90 L 251.80 472.10 L 250.00 470.50 L 248.10 468.00 L 247.00 465.70 L 246.50 463.50 L 246.50 461.30 L 247.00 459.20 L 248.10 457.30 L 249.50 455.60 L 251.40 454.10 L 253.70 452.80 L 256.20 451.90 L 259.20 451.40 L 262.50 451.30 Z" fill="url(#SVGID_25_)" fill-rule="nonzero" group-id="13,16,19" node-id="432" stroke="none" target-height="30.199982" target-width="46" target-x="246.5" target-y="444.1"></path><path d="M 267.20 565.00 L 247.70 568.30 L 236.90 570.70 L 226.50 573.70 L 221.90 575.40 L 216.30 578.60 L 214.00 581.20 L 213.10 583.70 L 212.80 586.00 L 213.10 588.10 L 213.80 590.10 L 215.00 591.90 L 216.60 593.60 L 218.80 595.10 L 221.50 596.50 L 225.30 597.90 L 229.90 598.90 L 235.40 599.40 L 245.50 594.40 L 242.70 592.60 L 248.40 593.80 L 258.40 594.90 L 265.00 595.00 L 272.00 594.70 L 280.20 593.80 L 285.70 592.80 L 297.80 589.50 L 297.80 587.50 L 297.40 585.50 L 296.30 583.40 L 293.10 579.60 L 290.90 577.70 L 287.30 575.00 L 279.30 570.40 L 267.20 565.00 Z" fill="url(#SVGID_26_)" fill-rule="nonzero" group-id="13,16,19" node-id="434" stroke="none" target-height="34.400024" target-width="84.999985" target-x="212.8" target-y="565"></path><path d="M 320.60 550.60 L 305.10 553.30 L 293.10 554.20 L 286.60 554.10 L 280.20 553.60 L 273.90 552.50 L 269.80 551.40 L 266.00 550.00 L 262.40 548.20 L 243.40 537.00 L 235.30 533.10 L 232.20 532.30 L 230.10 532.20 L 226.40 533.00 L 224.80 534.00 L 223.00 535.70 L 220.70 538.50 L 217.60 543.10 L 210.80 555.90 L 201.00 577.90 L 190.50 604.50 L 206.40 603.90 L 218.50 587.30 L 224.70 577.80 L 230.10 568.60 L 233.50 561.00 L 240.20 568.10 L 250.00 576.60 L 261.50 584.70 L 267.50 588.20 L 273.10 590.80 L 276.90 592.10 L 280.40 592.90 L 283.40 593.10 L 288.80 592.90 L 297.50 591.60 L 301.00 590.60 L 305.60 588.80 L 309.30 586.70 L 312.30 584.40 L 315.00 581.80 L 317.10 579.00 L 320.00 573.10 L 321.50 567.10 L 321.90 562.70 L 321.50 555.40 L 320.60 550.60 Z" fill="url(#SVGID_27_)" fill-rule="nonzero" group-id="13,16,19" node-id="436" stroke="none" target-height="72.29999" target-width="131.4" target-x="190.5" target-y="532.2"></path><path d="M 298.70 469.50 L 290.70 477.10 L 284.30 482.30 L 286.70 487.80 L 284.80 502.30 L 284.50 514.00 L 284.90 524.80 L 284.50 528.40 L 283.90 531.60 L 281.80 537.30 L 278.60 542.30 L 275.40 545.70 L 286.60 553.90 L 303.00 567.40 L 313.70 577.90 L 318.00 583.10 L 321.50 571.70 L 324.30 561.30 L 326.30 551.70 L 327.60 542.90 L 328.50 533.70 L 328.70 525.50 L 328.50 518.00 L 327.70 511.40 L 325.30 500.90 L 323.70 496.40 L 319.80 488.90 L 317.40 485.40 L 314.70 482.40 L 311.90 479.90 L 308.90 477.80 L 305.70 476.00 L 304.30 473.50 L 302.80 471.80 L 301.20 470.60 L 298.70 469.50 Z" fill="url(#SVGID_28_)" fill-rule="nonzero" group-id="13,16,19" node-id="438" stroke="none" target-height="113.599976" target-width="53.30002" target-x="275.4" target-y="469.5"></path><path d="M 250.60 589.60 L 249.10 588.10 L 247.90 587.30 L 246.50 586.80 L 243.50 586.90 L 235.10 591.40 L 226.00 593.30 L 220.90 595.40 L 217.00 598.10 L 215.10 600.80 L 214.70 602.20 L 214.70 603.90 L 215.20 605.70 L 219.20 604.70 L 228.60 601.20 L 241.90 594.60 L 250.60 589.60 Z" fill="url(#SVGID_29_)" fill-rule="nonzero" group-id="13,16,19" node-id="440" stroke="none" target-height="18.900024" target-width="35.90001" target-x="214.7" target-y="586.8"></path><path d="M 251.50 589.10 L 250.30 588.00 L 248.90 587.50 L 247.20 587.40 L 245.60 587.80 L 243.80 588.70 L 239.90 591.60 L 237.10 592.60 L 227.60 594.90 L 222.00 597.40 L 217.90 600.00 L 215.80 602.50 L 215.20 603.80 L 215.20 605.40 L 215.70 607.20 L 216.90 608.90 L 218.40 610.20 L 220.20 611.00 L 222.50 611.40 L 227.60 610.80 L 234.60 608.10 L 242.40 603.90 L 250.30 598.60 L 252.50 596.40 L 253.20 595.00 L 253.40 593.30 L 252.60 590.80 L 251.50 589.10 Z" fill="#d4e4fe" fill-rule="nonzero" group-id="13,16,19" node-id="442" stroke="none" target-height="24" target-width="38.199997" target-x="215.2" target-y="587.4"></path><path d="M 277.50 534.30 L 269.40 530.60 L 267.30 528.90 L 263.50 518.60 L 262.60 516.90 L 258.90 513.50 L 255.90 511.70 L 253.50 511.20 L 248.60 512.80 L 247.70 513.70 L 247.10 514.90 L 247.60 515.70 L 248.30 515.90 L 250.70 515.60 L 250.10 516.90 L 250.20 517.80 L 249.10 518.40 L 248.60 519.10 L 248.60 520.70 L 247.30 521.90 L 247.10 522.70 L 247.60 523.80 L 251.60 526.50 L 252.40 527.30 L 255.30 532.90 L 257.10 534.90 L 266.20 539.10 L 271.60 542.40 L 277.50 534.30 Z" fill="url(#SVGID_30_)" fill-rule="nonzero" group-id="13,16,19" node-id="444" stroke="none" target-height="31.200012" target-width="30.399994" target-x="247.1" target-y="511.2"></path><path d="M 305.30 488.50 L 301.80 489.10 L 299.80 489.90 L 298.10 491.00 L 296.40 492.60 L 294.80 494.70 L 293.70 497.00 L 292.80 499.90 L 292.30 503.70 L 292.40 507.40 L 293.00 512.10 L 294.30 517.80 L 300.00 536.20 L 290.40 535.10 L 281.00 533.40 L 270.80 530.80 L 263.90 538.70 L 278.40 549.30 L 289.20 555.80 L 298.60 560.10 L 305.30 561.90 L 308.50 562.20 L 311.30 561.90 L 313.60 561.00 L 315.60 559.50 L 317.40 557.50 L 318.90 554.80 L 320.10 551.90 L 321.80 544.90 L 322.50 539.20 L 322.90 533.30 L 322.70 522.10 L 321.90 513.40 L 320.60 504.60 L 319.60 500.40 L 318.20 496.60 L 317.00 494.30 L 315.40 492.30 L 313.50 490.70 L 311.40 489.50 L 308.70 488.80 L 305.30 488.50 Z" fill="url(#SVGID_31_)" fill-rule="nonzero" group-id="13,16,19" node-id="446" stroke="none" target-height="73.70001" target-width="59" target-x="263.9" target-y="488.5"></path></g></g></g></svg>