<?xml version="1.0" standalone="no"?><!DOCTYPE svg PUBLIC "-//W3C//DTD SVG 1.1//EN" "http://www.w3.org/Graphics/SVG/1.1/DTD/svg11.dtd"><svg height="800" node-id="1" sillyvg="true" template-height="800" template-width="800" version="1.1" viewBox="0 0 800 800" width="800" xmlns="http://www.w3.org/2000/svg" xmlns:xlink="http://www.w3.org/1999/xlink"><defs node-id="250"><linearGradient gradientUnits="objectBoundingBox" id="SVGID_1_" node-id="21" spreadMethod="pad" x1="401.0372" x2="401.0372" y1="161.9436" y2="717.4352"><stop offset="0.00000009590021" stop-color="#f4f2fb"></stop><stop offset="1" stop-color="#e1eef5"></stop></linearGradient><linearGradient gradientUnits="objectBoundingBox" id="SVGID_2_" node-id="26" spreadMethod="pad" x1="116.1189" x2="116.1189" y1="542.33" y2="405.1554"><stop offset="0.2267" stop-color="#b7ace0"></stop><stop offset="0.7893" stop-color="#e8e7fa"></stop></linearGradient><linearGradient gradientUnits="objectBoundingBox" id="SVGID_3_" node-id="31" spreadMethod="pad" x1="116.1208" x2="116.1208" y1="420.3871" y2="571.5204"><stop offset="0" stop-color="#ecf1fb"></stop><stop offset="0.818" stop-color="#afb0e7"></stop></linearGradient><linearGradient gradientUnits="objectBoundingBox" id="SVGID_4_" node-id="36" spreadMethod="pad" x1="617.2478" x2="617.2478" y1="450.808" y2="362.4835"><stop offset="0.2267" stop-color="#ccd4f4"></stop><stop offset="0.7893" stop-color="#ecf1fb"></stop></linearGradient><linearGradient gradientUnits="objectBoundingBox" id="SVGID_5_" node-id="41" spreadMethod="pad" x1="617.249" x2="617.249" y1="372.291" y2="469.6033"><stop offset="0" stop-color="#ecf1fb"></stop><stop offset="1" stop-color="#a6a8e2"></stop></linearGradient><linearGradient gradientUnits="objectBoundingBox" id="SVGID_6_" node-id="45" spreadMethod="pad" x1="463.1659" x2="428.4116" y1="88.2014" y2="148.3975"><stop offset="0" stop-color="#ffdb80"></stop><stop offset="1" stop-color="#ffbb24"></stop></linearGradient><linearGradient gradientUnits="objectBoundingBox" id="SVGID_7_" node-id="49" spreadMethod="pad" x1="420.8287" x2="420.8287" y1="118.6676" y2="176.1215"><stop offset="0" stop-color="#f9fafe"></stop><stop offset="1" stop-color="#e5edf7"></stop></linearGradient><linearGradient gradientUnits="objectBoundingBox" id="SVGID_8_" node-id="54" spreadMethod="pad" x1="687.8501" x2="687.8501" y1="540.0481" y2="512.2199"><stop offset="0.2267" stop-color="#afb0e7"></stop><stop offset="1" stop-color="#ecf1fb"></stop></linearGradient><linearGradient gradientUnits="objectBoundingBox" id="SVGID_9_" node-id="58" spreadMethod="pad" x1="687.8992" x2="687.8992" y1="515.7336" y2="560.5295"><stop offset="0.00000009590021" stop-color="#dde1f6"></stop><stop offset="0.818" stop-color="#a6a8e2"></stop></linearGradient><linearGradient gradientUnits="objectBoundingBox" id="SVGID_10_" node-id="64" spreadMethod="pad" x1="263.2869" x2="263.2869" y1="466.4991" y2="460.8532"><stop offset="0.15" stop-color="#acc5ea"></stop><stop offset="1" stop-color="#bacef0"></stop></linearGradient><linearGradient gradientUnits="objectBoundingBox" id="SVGID_11_" node-id="69" spreadMethod="pad" x1="434.8408" x2="434.8408" y1="593.4865" y2="469.0867"><stop offset="0.15" stop-color="#acc5ea"></stop><stop offset="1" stop-color="#bacef0"></stop></linearGradient><linearGradient gradientUnits="objectBoundingBox" id="SVGID_12_" node-id="74" spreadMethod="pad" x1="606.9032" x2="606.9032" y1="601.838" y2="596.1859"><stop offset="0.15" stop-color="#acc5ea"></stop><stop offset="1" stop-color="#bacef0"></stop></linearGradient><linearGradient gradientUnits="objectBoundingBox" id="SVGID_13_" node-id="79" spreadMethod="pad" x1="495.8056" x2="316.2527" y1="492.8386" y2="313.2856"><stop offset="0.15" stop-color="#acc5ea"></stop><stop offset="1" stop-color="#d9e1fd"></stop></linearGradient><linearGradient gradientUnits="objectBoundingBox" id="SVGID_14_" node-id="83" spreadMethod="pad" x1="434.8408" x2="409.1906" y1="264.4796" y2="238.8295"><stop offset="0.15" stop-color="#acc5ea"></stop><stop offset="1" stop-color="#d9e1fd"></stop></linearGradient><linearGradient gradientUnits="objectBoundingBox" id="SVGID_15_" node-id="87" spreadMethod="pad" x1="446.3041" x2="417.5919" y1="237.2865" y2="208.5742"><stop offset="0.15" stop-color="#acc5ea"></stop><stop offset="1" stop-color="#d9e1fd"></stop></linearGradient><linearGradient gradientUnits="objectBoundingBox" id="SVGID_16_" node-id="91" spreadMethod="pad" x1="186.3261" x2="625.7123" y1="414.3371" y2="414.3371"><stop offset="0" stop-color="#c8cbf2"></stop><stop offset="1" stop-color="#afb0e7"></stop></linearGradient><linearGradient gradientUnits="objectBoundingBox" id="SVGID_17_" node-id="95" spreadMethod="pad" x1="344.1164" x2="467.7002" y1="292.6374" y2="506.6908"><stop offset="0.1157" stop-color="#dee4ff"></stop><stop offset="0.8472" stop-color="#bacbee"></stop></linearGradient><linearGradient gradientUnits="objectBoundingBox" id="SVGID_18_" node-id="99" spreadMethod="pad" x1="351.2624" x2="447.2266" y1="275.1977" y2="441.4125"><stop offset="0.1157" stop-color="#dee4ff"></stop><stop offset="0.8472" stop-color="#acc5ea"></stop></linearGradient><linearGradient gradientUnits="objectBoundingBox" id="SVGID_19_" node-id="116" spreadMethod="pad" x1="327.7115" x2="311.4784" y1="609.4872" y2="593.2542"><stop offset="0.003192113" stop-color="#9a9adb"></stop><stop offset="0.7893" stop-color="#cecdf1"></stop></linearGradient><linearGradient gradientUnits="objectBoundingBox" id="SVGID_20_" node-id="120" spreadMethod="pad" x1="310.7216" x2="325.024" y1="585.9213" y2="610.6937"><stop offset="0" stop-color="#c8cbf2"></stop><stop offset="1" stop-color="#afb0e7"></stop></linearGradient><linearGradient gradientUnits="objectBoundingBox" id="SVGID_21_" node-id="124" spreadMethod="pad" x1="288.0467" x2="234.2401" y1="633.9128" y2="580.1063"><stop offset="0.003192113" stop-color="#9a9adb"></stop><stop offset="0.7893" stop-color="#cecdf1"></stop></linearGradient><linearGradient gradientUnits="objectBoundingBox" id="SVGID_22_" node-id="128" spreadMethod="pad" x1="286.1274" x2="296.5291" y1="574.7701" y2="592.7864"><stop offset="0" stop-color="#c8cbf2"></stop><stop offset="1" stop-color="#afb0e7"></stop></linearGradient><linearGradient gradientUnits="objectBoundingBox" id="SVGID_23_" node-id="132" spreadMethod="pad" x1="386.1198" x2="402.2665" y1="576.1061" y2="604.073"><stop offset="0" stop-color="#c8cbf2"></stop><stop offset="1" stop-color="#afb0e7"></stop></linearGradient><linearGradient gradientUnits="objectBoundingBox" id="SVGID_24_" node-id="136" spreadMethod="pad" x1="379.9977" x2="414.1468" y1="572.0582" y2="631.2062"><stop offset="0" stop-color="#c8cbf2"></stop><stop offset="1" stop-color="#afb0e7"></stop></linearGradient><linearGradient gradientUnits="objectBoundingBox" id="SVGID_25_" node-id="140" spreadMethod="pad" x1="467.8473" x2="453.022" y1="605.2473" y2="590.422"><stop offset="0.003192113" stop-color="#9a9adb"></stop><stop offset="0.7893" stop-color="#cecdf1"></stop></linearGradient><linearGradient gradientUnits="objectBoundingBox" id="SVGID_26_" node-id="144" spreadMethod="pad" x1="493.0065" x2="506.9768" y1="570.6627" y2="594.8599"><stop offset="0" stop-color="#c8cbf2"></stop><stop offset="1" stop-color="#afb0e7"></stop></linearGradient><linearGradient gradientUnits="objectBoundingBox" id="SVGID_27_" node-id="148" spreadMethod="pad" x1="512.2031" x2="476.0098" y1="620.8546" y2="584.6613"><stop offset="0.003192113" stop-color="#9a9adb"></stop><stop offset="0.7893" stop-color="#cecdf1"></stop></linearGradient><linearGradient gradientUnits="objectBoundingBox" id="SVGID_28_" node-id="152" spreadMethod="pad" x1="480.579" x2="487.4689" y1="579.6294" y2="591.563"><stop offset="0" stop-color="#c8cbf2"></stop><stop offset="1" stop-color="#afb0e7"></stop></linearGradient><linearGradient gradientUnits="objectBoundingBox" id="SVGID_29_" node-id="156" spreadMethod="pad" x1="550.9592" x2="522.7169" y1="625.6077" y2="597.3653"><stop offset="0" stop-color="#c8cbf2"></stop><stop offset="1" stop-color="#afb0e7"></stop></linearGradient><linearGradient gradientUnits="objectBoundingBox" id="SVGID_30_" node-id="160" spreadMethod="pad" x1="584.6985" x2="544.5267" y1="633.9297" y2="593.758"><stop offset="0.003192113" stop-color="#9a9adb"></stop><stop offset="0.7893" stop-color="#cecdf1"></stop></linearGradient><linearGradient gradientUnits="objectBoundingBox" id="SVGID_31_" node-id="164" spreadMethod="pad" x1="497.4676" x2="546.0746" y1="555.1797" y2="639.3696"><stop offset="0.1157" stop-color="#dee4ff"></stop><stop offset="0.8472" stop-color="#bacbee"></stop></linearGradient><linearGradient gradientUnits="objectBoundingBox" id="SVGID_32_" node-id="168" spreadMethod="pad" x1="379.8435" x2="410.9553" y1="565.6411" y2="619.5283"><stop offset="0.1157" stop-color="#dee4ff"></stop><stop offset="0.8472" stop-color="#bacbee"></stop></linearGradient><linearGradient gradientUnits="objectBoundingBox" id="SVGID_33_" node-id="172" spreadMethod="pad" x1="269.8152" x2="297.7645" y1="566.4045" y2="614.814"><stop offset="0.1157" stop-color="#dee4ff"></stop><stop offset="0.8472" stop-color="#bacbee"></stop></linearGradient><linearGradient gradientUnits="objectBoundingBox" id="SVGID_34_" node-id="177" spreadMethod="pad" x1="539.3345" x2="539.3345" y1="380.9727" y2="301.8039"><stop offset="0" stop-color="#c3d5fd"></stop><stop offset="1" stop-color="#1a90fc"></stop></linearGradient><linearGradient gradientUnits="objectBoundingBox" id="SVGID_35_" node-id="181" spreadMethod="pad" x1="540.4324" x2="540.4324" y1="288.3016" y2="313.3818"><stop offset="0" stop-color="#f4ae98"></stop><stop offset="1" stop-color="#fad1bb"></stop></linearGradient><linearGradient gradientUnits="objectBoundingBox" id="SVGID_36_" node-id="185" spreadMethod="pad" x1="556.8479" x2="524.0713" y1="287.5487" y2="287.5487"><stop offset="0" stop-color="#f4b9a4"></stop><stop offset="0.652" stop-color="#fad1bb"></stop></linearGradient><linearGradient gradientUnits="objectBoundingBox" id="SVGID_37_" node-id="189" spreadMethod="pad" x1="519.5607" x2="557.6142" y1="274.8792" y2="274.8792"><stop offset="0" stop-color="#4f5c7c"></stop><stop offset="1" stop-color="#274168"></stop></linearGradient><linearGradient gradientUnits="objectBoundingBox" id="SVGID_38_" node-id="193" spreadMethod="pad" x1="-1165.6703" x2="-1153.4119" y1="-2.5269" y2="-88.8396"><stop offset="0" stop-color="#c3d5fd"></stop><stop offset="1" stop-color="#1a90fc"></stop></linearGradient><linearGradient gradientUnits="objectBoundingBox" id="SVGID_39_" node-id="197" spreadMethod="pad" x1="2880.2632" x2="2892.5215" y1="572.0909" y2="485.7782"><stop offset="0" stop-color="#c3d5fd"></stop><stop offset="1" stop-color="#1a90fc"></stop></linearGradient><linearGradient gradientUnits="objectBoundingBox" id="SVGID_40_" node-id="201" spreadMethod="pad" x1="1951.2172" x2="1951.2172" y1="1186.5955" y2="1151.1732"><stop offset="0" stop-color="#f4ae98"></stop><stop offset="1" stop-color="#fad1bb"></stop></linearGradient><linearGradient gradientUnits="objectBoundingBox" id="SVGID_41_" node-id="205" spreadMethod="pad" x1="511.0149" x2="511.0149" y1="373.8286" y2="297.2723"><stop offset="0" stop-color="#c3d5fd"></stop><stop offset="1" stop-color="#1a90fc"></stop></linearGradient><linearGradient gradientUnits="objectBoundingBox" id="SVGID_42_" node-id="209" spreadMethod="pad" x1="18343.459" x2="18343.459" y1="-739.8008" y2="-775.2231"><stop offset="0" stop-color="#f4ae98"></stop><stop offset="1" stop-color="#fad1bb"></stop></linearGradient><linearGradient gradientUnits="objectBoundingBox" id="SVGID_43_" node-id="213" spreadMethod="pad" x1="17016.063" x2="17016.063" y1="373.8286" y2="297.2723"><stop offset="0" stop-color="#c3d5fd"></stop><stop offset="1" stop-color="#1a90fc"></stop></linearGradient><linearGradient gradientUnits="objectBoundingBox" id="SVGID_44_" node-id="217" spreadMethod="pad" x1="539.3345" x2="539.3345" y1="352.3816" y2="402.6922"><stop offset="0" stop-color="#275c89"></stop><stop offset="1" stop-color="#013f7c"></stop></linearGradient><linearGradient gradientUnits="objectBoundingBox" id="SVGID_45_" node-id="223" spreadMethod="pad" x1="4491.0757" x2="4508.886" y1="424.4049" y2="424.4049"><stop offset="0" stop-color="#f4b9a4"></stop><stop offset="0.652" stop-color="#fad1bb"></stop></linearGradient><linearGradient gradientUnits="objectBoundingBox" id="SVGID_46_" node-id="227" spreadMethod="pad" x1="515.1855" x2="607.067" y1="404.7747" y2="404.7747"><stop offset="0" stop-color="#18264b"></stop><stop offset="0.652" stop-color="#2d3c65"></stop></linearGradient><linearGradient gradientUnits="objectBoundingBox" id="SVGID_47_" node-id="231" spreadMethod="pad" x1="494.4687" x2="494.4687" y1="415.7523" y2="434.6585"><stop offset="0" stop-color="#ffdb80"></stop><stop offset="1" stop-color="#ffbb24"></stop></linearGradient><linearGradient gradientUnits="objectBoundingBox" id="SVGID_48_" node-id="237" spreadMethod="pad" x1="559.5778" x2="577.3884" y1="424.4049" y2="424.4049"><stop offset="0" stop-color="#f4b9a4"></stop><stop offset="0.652" stop-color="#fad1bb"></stop></linearGradient><linearGradient gradientUnits="objectBoundingBox" id="SVGID_49_" node-id="241" spreadMethod="pad" x1="474.9779" x2="566.8593" y1="404.7747" y2="404.7747"><stop offset="0" stop-color="#445677"></stop><stop offset="1" stop-color="#293861"></stop></linearGradient><linearGradient gradientUnits="objectBoundingBox" id="SVGID_50_" node-id="245" spreadMethod="pad" x1="587.5763" x2="587.5763" y1="415.7523" y2="434.6585"><stop offset="0" stop-color="#ffdb80"></stop><stop offset="1" stop-color="#ffbb24"></stop></linearGradient></defs><g node-id="774"><g node-id="775"><g node-id="776"><path d="M 484.30 203.30 L 479.40 206.90 L 474.00 210.20 L 468.10 213.30 L 461.70 216.20 L 455.30 218.60 L 441.30 222.60 L 433.70 224.20 L 423.50 225.70 L 413.00 226.70 L 402.00 227.10 L 391.00 226.80 L 379.80 225.90 L 368.40 224.40 L 360.00 222.80 L 343.20 218.60 L 334.90 215.90 L 326.70 212.80 L 318.70 209.30 L 310.80 205.40 L 296.50 197.40 L 289.60 194.10 L 282.20 191.00 L 266.70 185.80 L 250.40 182.00 L 233.40 179.60 L 216.30 178.70 L 207.70 178.80 L 199.10 179.30 L 190.60 180.20 L 182.30 181.40 L 174.20 183.10 L 166.00 185.10 L 158.30 187.60 L 150.80 190.50 L 143.60 193.80 L 136.70 197.50 L 130.20 201.70 L 124.10 206.30 L 118.40 211.30 L 114.20 215.60 L 110.40 220.20 L 106.90 225.10 L 103.70 230.40 L 100.90 236.00 L 98.30 242.30 L 96.30 248.50 L 94.80 254.60 L 93.80 260.70 L 92.90 273.00 L 93.60 285.20 L 94.70 293.20 L 96.20 301.20 L 101.40 320.90 L 114.50 362.20 L 117.70 376.20 L 118.70 383.10 L 119.10 389.80 L 118.90 396.30 L 118.30 401.10 L 117.20 405.80 L 115.70 410.40 L 113.70 414.90 L 110.40 420.80 L 102.20 433.70 L 80.10 465.10 L 72.40 476.60 L 62.90 492.30 L 58.60 500.50 L 54.70 508.80 L 51.40 517.30 L 48.60 526.00 L 46.90 532.60 L 45.70 539.30 L 44.90 546.10 L 44.60 553.00 L 44.70 559.90 L 45.50 566.90 L 46.90 574.10 L 48.80 581.50 L 53.20 592.90 L 56.20 598.90 L 63.70 611.30 L 70.00 620.00 L 76.20 627.60 L 82.30 634.40 L 88.40 640.30 L 95.00 645.90 L 101.50 650.90 L 107.90 655.10 L 114.20 658.70 L 120.90 662.00 L 127.40 664.70 L 133.90 666.90 L 140.30 668.70 L 149.00 670.50 L 157.60 671.60 L 166.00 672.20 L 174.40 672.20 L 190.50 671.20 L 202.20 669.60 L 232.90 663.80 L 239.20 662.90 L 245.70 662.40 L 252.20 662.50 L 258.80 663.00 L 267.60 664.30 L 276.60 666.20 L 285.90 668.80 L 304.60 675.20 L 358.80 697.30 L 374.20 703.10 L 384.70 706.70 L 395.20 709.80 L 405.80 712.60 L 422.00 715.70 L 430.20 716.70 L 438.40 717.30 L 446.60 717.50 L 454.90 717.10 L 463.40 716.30 L 471.90 714.90 L 480.30 713.00 L 488.80 710.50 L 497.40 707.20 L 506.30 703.20 L 513.00 699.70 L 519.90 695.70 L 527.00 691.00 L 534.20 685.80 L 546.90 675.80 L 552.20 672.30 L 557.60 669.40 L 563.00 667.00 L 574.30 663.40 L 585.90 661.30 L 593.70 660.60 L 601.60 660.30 L 621.60 661.00 L 657.40 664.00 L 665.20 664.40 L 680.30 664.00 L 687.70 663.20 L 694.80 661.70 L 701.70 659.70 L 706.80 657.80 L 711.70 655.30 L 716.50 652.40 L 721.20 648.90 L 725.50 645.10 L 729.70 640.60 L 733.90 635.40 L 738.00 629.30 L 741.60 623.10 L 745.00 616.00 L 748.40 607.90 L 751.70 598.60 L 753.90 590.80 L 755.60 583.40 L 756.70 576.40 L 757.30 569.80 L 757.50 563.10 L 757.30 556.60 L 756.70 550.40 L 755.70 544.40 L 753.80 536.50 L 751.50 528.90 L 748.60 521.60 L 745.40 514.60 L 738.00 501.10 L 731.90 491.40 L 713.40 464.00 L 707.80 455.10 L 703.00 446.40 L 700.20 440.50 L 698.10 434.60 L 696.40 428.70 L 695.50 424.20 L 695.10 419.60 L 695.00 415.00 L 695.40 410.20 L 696.10 405.60 L 697.40 400.80 L 699.30 395.80 L 706.30 381.30 L 710.30 372.00 L 713.90 362.60 L 717.00 353.20 L 719.70 343.60 L 721.90 334.10 L 723.70 324.70 L 725.00 315.30 L 726.00 305.80 L 726.50 296.50 L 726.50 287.30 L 726.20 278.30 L 725.40 269.30 L 724.20 260.60 L 722.70 252.20 L 720.70 244.00 L 718.30 235.90 L 715.60 228.10 L 712.40 220.80 L 709.00 213.80 L 705.10 207.00 L 700.80 200.70 L 696.20 194.90 L 691.30 189.50 L 687.00 185.50 L 682.30 181.80 L 677.00 178.40 L 671.20 175.20 L 665.30 172.50 L 659.00 170.00 L 652.30 167.90 L 645.10 166.00 L 630.40 163.40 L 614.60 162.10 L 603.90 162.00 L 592.80 162.50 L 581.50 163.60 L 570.30 165.40 L 559.00 167.80 L 547.60 170.90 L 530.90 176.70 L 514.60 184.00 L 506.70 188.30 L 499.00 192.90 L 491.60 197.90 L 484.30 203.30 Z" fill="url(#SVGID_1_)" fill-rule="nonzero" group-id="15,16,17" node-id="572" stroke="none" target-height="555.5" target-width="712.9" target-x="44.6" target-y="162"></path><g node-id="781"><path d="M 116.90 405.40 L 116.60 405.20 L 116.40 405.40 L 113.40 412.40 L 105.00 435.30 L 98.30 456.60 L 95.10 468.40 L 92.30 480.40 L 88.70 500.70 L 87.10 518.30 L 87.50 523.10 L 88.20 526.10 L 90.70 531.60 L 94.40 535.70 L 96.70 537.50 L 99.70 539.10 L 103.30 540.50 L 107.10 541.50 L 111.70 542.10 L 117.40 542.30 L 121.70 542.10 L 128.60 540.70 L 131.20 539.60 L 134.60 537.60 L 137.40 535.50 L 139.50 533.00 L 141.30 530.30 L 143.60 524.50 L 144.60 520.10 L 145.00 516.10 L 144.90 504.70 L 143.40 493.30 L 141.60 484.20 L 139.30 474.40 L 133.80 454.60 L 127.90 435.90 L 116.90 405.40 Z" fill="url(#SVGID_2_)" fill-rule="nonzero" group-id="15,16,17,22" node-id="576" stroke="none" target-height="137.09998" target-width="57.9" target-x="87.1" target-y="405.2"></path><g node-id="796"><path d="M 116.10 571.50 L 115.40 571.20 L 115.10 570.50 L 115.10 421.40 L 115.40 420.70 L 116.10 420.40 L 116.80 420.70 L 117.10 421.40 L 117.10 570.50 L 116.80 571.20 L 116.10 571.50 Z" fill="url(#SVGID_3_)" fill-rule="nonzero" group-id="15,16,17,22,37" node-id="580" stroke="none" target-height="151.1" target-width="2" target-x="115.1" target-y="420.4"></path></g></g><g node-id="782"><path d="M 617.80 362.60 L 617.40 362.70 L 615.50 367.10 L 612.10 376.20 L 607.90 388.60 L 603.70 403.20 L 601.90 410.90 L 599.30 426.60 L 598.70 434.10 L 598.70 437.60 L 599.20 440.00 L 600.10 442.40 L 601.70 445.00 L 603.20 446.50 L 605.10 447.90 L 607.60 449.20 L 610.30 450.00 L 613.70 450.60 L 618.10 450.80 L 621.70 450.50 L 624.60 449.90 L 627.00 449.10 L 630.90 446.40 L 632.30 444.80 L 633.90 442.10 L 635.00 439.40 L 635.80 433.90 L 635.90 429.70 L 635.50 424.10 L 633.00 410.30 L 631.10 402.80 L 626.70 388.10 L 617.80 362.60 Z" fill="url(#SVGID_4_)" fill-rule="nonzero" group-id="15,16,17,23" node-id="586" stroke="none" target-height="88.19998" target-width="37.200012" target-x="598.7" target-y="362.6"></path><g node-id="797"><path d="M 617.30 469.60 L 616.80 469.40 L 616.60 469.00 L 616.80 372.50 L 617.70 372.50 L 617.90 372.90 L 617.90 469.00 L 617.30 469.60 Z" fill="url(#SVGID_5_)" fill-rule="nonzero" group-id="15,16,17,23,38" node-id="590" stroke="none" target-height="97.100006" target-width="1.3000488" target-x="616.6" target-y="372.5"></path></g></g><path d="M 480.50 118.30 L 480.20 123.10 L 479.30 127.60 L 477.80 131.80 L 475.80 135.90 L 473.30 139.50 L 470.40 142.90 L 467.00 145.80 L 463.30 148.30 L 459.30 150.30 L 455.10 151.80 L 450.60 152.70 L 445.80 153.10 L 441.00 152.70 L 436.50 151.80 L 432.30 150.30 L 428.20 148.30 L 424.60 145.80 L 421.20 142.90 L 418.30 139.50 L 415.80 135.90 L 413.80 131.80 L 412.30 127.60 L 411.40 123.10 L 411.00 118.30 L 411.40 113.50 L 412.30 109.00 L 413.80 104.80 L 415.80 100.70 L 418.30 97.10 L 421.20 93.70 L 424.60 90.80 L 428.20 88.30 L 432.30 86.30 L 436.50 84.80 L 441.00 83.90 L 445.80 83.60 L 450.60 83.90 L 455.10 84.80 L 459.30 86.30 L 463.30 88.30 L 467.00 90.80 L 470.40 93.70 L 473.30 97.10 L 475.80 100.70 L 477.80 104.80 L 479.30 109.00 L 480.20 113.50 L 480.50 118.30 Z" fill="url(#SVGID_6_)" fill-rule="nonzero" group-id="15,16,17" node-id="594" stroke="none" target-height="69.50001" target-width="69.5" target-x="411" target-y="83.6"></path><path d="M 465.60 137.30 L 431.00 137.30 L 430.00 133.80 L 428.50 130.60 L 426.60 127.70 L 424.20 125.10 L 421.60 122.90 L 418.50 121.10 L 415.30 119.80 L 411.80 119.00 L 408.10 118.70 L 404.30 119.00 L 400.90 119.80 L 397.60 121.10 L 394.60 122.90 L 391.90 125.10 L 389.60 127.70 L 387.60 130.60 L 386.20 133.80 L 385.10 137.30 L 376.10 137.30 L 372.50 137.60 L 369.30 138.50 L 366.30 139.90 L 363.60 141.80 L 361.20 144.10 L 359.30 146.90 L 357.90 149.90 L 357.00 153.10 L 356.70 156.70 L 357.00 160.20 L 357.90 163.50 L 359.30 166.50 L 361.20 169.20 L 363.50 171.50 L 366.30 173.50 L 369.30 174.90 L 372.50 175.80 L 376.10 176.10 L 465.60 176.10 L 469.10 175.80 L 472.40 174.90 L 475.40 173.50 L 478.10 171.50 L 480.40 169.20 L 482.30 166.50 L 483.80 163.50 L 484.70 160.20 L 485.00 156.70 L 484.70 153.10 L 483.80 149.90 L 482.30 146.90 L 480.40 144.10 L 478.10 141.80 L 475.40 139.90 L 472.40 138.50 L 469.10 137.60 L 465.60 137.30 Z" fill="url(#SVGID_7_)" fill-rule="nonzero" group-id="15,16,17" node-id="596" stroke="none" target-height="57.40001" target-width="128.29999" target-x="356.7" target-y="118.7"></path><g node-id="783"><path d="M 701.80 526.10 L 701.50 528.70 L 700.90 531.00 L 699.90 533.20 L 698.50 535.10 L 696.80 536.80 L 694.90 538.10 L 692.70 539.20 L 690.40 539.80 L 687.90 540.00 L 685.30 539.80 L 683.00 539.20 L 680.80 538.10 L 678.90 536.80 L 677.20 535.10 L 674.80 531.00 L 674.20 528.70 L 673.90 526.10 L 674.20 523.60 L 674.80 521.30 L 675.80 519.10 L 677.20 517.20 L 678.90 515.50 L 680.80 514.10 L 683.00 513.10 L 685.30 512.50 L 687.90 512.20 L 690.40 512.50 L 692.70 513.10 L 694.90 514.10 L 696.80 515.50 L 699.90 519.10 L 700.90 521.30 L 701.50 523.60 L 701.80 526.10 Z" fill="url(#SVGID_8_)" fill-rule="nonzero" group-id="15,16,17,24" node-id="600" stroke="none" target-height="27.799988" target-width="27.899963" target-x="673.9" target-y="512.2"></path><path d="M 687.90 560.50 L 687.50 560.10 L 687.60 515.90 L 688.20 515.90 L 688.30 516.20 L 688.30 560.10 L 687.90 560.50 Z" fill="url(#SVGID_9_)" fill-rule="nonzero" group-id="15,16,17,24" node-id="602" stroke="none" target-height="44.599976" target-width="0.7999878" target-x="687.5" target-y="515.9"></path></g></g><g node-id="777"><g node-id="784"><path d="M 262.60 466.50 L 261.40 466.00 L 261.10 464.90 L 262.70 461.60 L 263.60 460.90 L 264.80 461.10 L 265.20 461.50 L 265.50 462.60 L 263.90 465.70 L 263.40 466.30 L 262.60 466.50 Z" fill="url(#SVGID_10_)" fill-rule="nonzero" group-id="15,16,18,25" node-id="610" stroke="none" target-height="5.600006" target-width="4.399994" target-x="261.1" target-y="460.9"></path></g><g node-id="785"><path d="M 610.00 593.50 L 608.90 593.10 L 608.60 592.70 L 608.50 591.50 L 610.10 585.80 L 610.30 585.30 L 611.30 584.70 L 612.40 584.90 L 613.00 585.90 L 613.00 586.50 L 611.40 592.50 L 610.80 593.20 L 610.00 593.50 Z M 612.50 581.60 L 611.30 581.10 L 611.00 580.00 L 611.30 573.50 L 612.00 572.70 L 612.60 572.60 L 613.20 572.70 L 614.00 573.40 L 614.20 575.60 L 614.00 580.30 L 613.50 581.30 L 612.50 581.60 Z M 612.10 569.50 L 610.80 568.80 L 609.50 562.50 L 609.50 561.90 L 610.00 560.90 L 611.20 560.60 L 612.10 561.20 L 612.40 561.70 L 613.60 567.80 L 613.30 568.90 L 612.10 569.50 Z M 609.10 557.80 L 608.30 557.60 L 607.70 556.80 L 605.40 551.40 L 605.20 550.90 L 605.50 549.80 L 606.60 549.30 L 607.70 549.60 L 608.00 550.10 L 610.50 555.80 L 610.50 556.90 L 610.20 557.40 L 609.10 557.80 Z M 385.10 551.00 L 382.70 551.00 L 381.60 550.50 L 381.20 549.40 L 381.30 548.90 L 382.10 548.10 L 382.70 548.00 L 388.70 547.90 L 389.80 548.40 L 390.20 549.40 L 390.10 550.00 L 389.30 550.80 L 385.10 551.00 Z M 376.60 550.80 L 369.90 550.40 L 369.10 549.50 L 369.00 549.00 L 369.20 548.40 L 370.00 547.60 L 377.20 548.00 L 378.00 548.80 L 378.00 549.90 L 377.20 550.70 L 376.60 550.80 Z M 394.80 550.80 L 393.80 550.40 L 393.30 549.30 L 393.70 548.30 L 394.70 547.80 L 401.40 547.50 L 402.20 548.30 L 402.40 548.90 L 402.00 549.90 L 401.00 550.50 L 394.80 550.80 Z M 364.50 550.10 L 357.70 549.40 L 357.00 548.50 L 357.00 547.90 L 357.10 547.30 L 358.00 546.60 L 365.20 547.30 L 365.90 548.20 L 366.00 548.80 L 365.50 549.70 L 364.50 550.10 Z M 406.90 550.00 L 405.90 549.60 L 405.40 548.60 L 405.50 548.00 L 406.20 547.20 L 412.80 546.40 L 413.40 546.50 L 414.30 547.20 L 414.40 548.30 L 413.70 549.20 L 406.90 550.00 Z M 352.40 548.80 L 345.60 547.80 L 345.00 546.90 L 344.90 546.30 L 345.10 545.70 L 346.00 545.00 L 353.20 546.10 L 353.90 546.90 L 353.90 547.50 L 353.40 548.50 L 352.40 548.80 Z M 419.00 548.70 L 418.00 548.30 L 417.50 547.40 L 417.50 546.80 L 418.20 545.90 L 424.70 544.80 L 425.30 544.80 L 426.20 545.40 L 426.40 546.60 L 425.80 547.50 L 419.00 548.70 Z M 340.40 547.00 L 333.60 545.60 L 333.00 544.60 L 333.00 544.00 L 333.20 543.50 L 334.20 542.90 L 341.30 544.20 L 341.90 545.20 L 341.90 545.80 L 341.40 546.60 L 340.40 547.00 Z M 603.70 547.00 L 602.40 546.30 L 598.80 540.90 L 598.90 539.80 L 599.80 539.10 L 600.90 539.20 L 601.40 539.60 L 605.00 544.70 L 605.20 545.20 L 605.00 546.30 L 603.70 547.00 Z M 430.90 546.70 L 430.00 546.40 L 429.50 545.50 L 429.50 544.90 L 430.10 543.90 L 436.60 542.50 L 437.20 542.50 L 438.10 543.10 L 438.40 544.30 L 437.80 545.20 L 430.90 546.70 Z M 328.60 544.50 L 321.70 542.70 L 321.20 541.80 L 321.20 541.20 L 321.50 540.60 L 322.40 540.10 L 329.40 541.80 L 330.00 542.80 L 330.00 543.40 L 329.50 544.20 L 328.60 544.50 Z M 442.80 544.10 L 441.90 543.80 L 441.30 543.00 L 441.30 542.40 L 441.90 541.40 L 448.30 539.70 L 449.40 539.80 L 450.10 540.70 L 450.20 541.30 L 449.60 542.30 L 442.80 544.10 Z M 316.80 541.40 L 310.00 539.30 L 309.50 538.30 L 309.60 537.70 L 310.30 536.80 L 311.50 536.70 L 317.80 538.80 L 318.30 539.80 L 318.30 540.40 L 317.70 541.10 L 316.80 541.40 Z M 454.50 541.00 L 453.60 540.70 L 453.10 539.90 L 453.00 539.30 L 453.60 538.30 L 459.80 536.20 L 460.40 536.20 L 461.40 536.70 L 461.80 537.80 L 461.30 538.80 L 454.50 541.00 Z M 305.30 537.70 L 298.50 535.10 L 298.10 534.10 L 298.20 533.50 L 299.00 532.70 L 300.20 532.70 L 306.30 535.10 L 306.80 536.10 L 306.70 536.70 L 306.10 537.40 L 305.30 537.70 Z M 596.20 537.40 L 595.20 537.00 L 590.50 532.40 L 590.40 531.30 L 590.70 530.80 L 591.70 530.30 L 592.80 530.60 L 597.30 534.90 L 597.60 535.40 L 597.60 536.50 L 597.30 537.00 L 596.20 537.40 Z M 466.10 537.20 L 465.20 537.00 L 464.60 536.20 L 464.60 535.60 L 465.00 534.60 L 471.20 532.20 L 472.30 532.20 L 473.10 533.10 L 473.20 533.70 L 472.80 534.70 L 466.10 537.20 Z M 294.00 533.20 L 287.30 530.10 L 287.00 529.00 L 287.10 528.50 L 288.00 527.70 L 289.20 527.80 L 295.10 530.70 L 295.50 531.70 L 295.40 532.30 L 294.80 533.00 L 294.00 533.20 Z M 477.40 532.90 L 476.50 532.60 L 476.00 531.90 L 475.90 531.30 L 476.30 530.30 L 482.90 527.50 L 484.00 527.90 L 484.30 528.40 L 484.40 528.90 L 484.00 530.00 L 477.40 532.90 Z M 587.10 529.50 L 586.20 529.20 L 580.80 525.60 L 580.50 524.50 L 580.70 524.00 L 581.60 523.30 L 582.80 523.40 L 588.40 527.20 L 588.50 528.30 L 588.30 528.90 L 587.10 529.50 Z M 488.50 528.00 L 487.70 527.80 L 487.10 527.10 L 487.00 526.50 L 487.40 525.50 L 494.10 522.70 L 495.20 523.10 L 495.50 523.60 L 495.60 524.20 L 495.10 525.30 L 488.50 528.00 Z M 283.10 527.80 L 282.40 527.60 L 276.70 524.00 L 276.40 522.90 L 276.70 522.40 L 277.60 521.70 L 278.70 521.90 L 284.30 525.40 L 284.60 526.50 L 284.40 527.10 L 283.90 527.60 L 283.10 527.80 Z M 499.80 523.60 L 498.90 523.30 L 498.40 522.60 L 498.30 522.00 L 498.80 521.00 L 505.10 518.70 L 506.20 518.80 L 507.00 519.70 L 507.00 520.30 L 506.50 521.30 L 499.80 523.60 Z M 576.60 523.40 L 570.00 520.60 L 569.50 519.60 L 569.60 519.00 L 570.40 518.10 L 571.60 518.10 L 577.80 520.90 L 578.10 521.90 L 578.00 522.50 L 577.40 523.20 L 576.60 523.40 Z M 273.00 521.20 L 272.00 520.90 L 267.30 516.80 L 267.00 516.20 L 267.00 515.10 L 267.90 514.30 L 269.00 514.30 L 269.50 514.70 L 274.30 519.00 L 274.40 520.10 L 274.10 520.60 L 273.00 521.20 Z M 511.40 520.00 L 510.50 519.70 L 509.90 518.90 L 509.90 518.30 L 510.50 517.30 L 517.00 515.60 L 517.60 515.60 L 518.50 516.20 L 518.70 517.40 L 518.10 518.30 L 511.40 520.00 Z M 565.30 519.10 L 558.50 517.40 L 557.90 516.50 L 557.90 515.90 L 558.20 515.30 L 559.10 514.70 L 566.20 516.40 L 566.80 517.40 L 566.70 518.00 L 566.20 518.80 L 565.30 519.10 Z M 523.20 517.40 L 522.30 517.10 L 521.70 516.20 L 521.80 515.60 L 522.40 514.70 L 529.10 513.60 L 529.60 513.60 L 530.50 514.30 L 530.70 515.50 L 530.00 516.40 L 523.20 517.40 Z M 553.40 516.70 L 546.70 515.90 L 546.00 515.10 L 545.90 514.50 L 546.10 513.90 L 546.90 513.20 L 554.20 513.90 L 554.90 514.80 L 554.90 515.40 L 554.40 516.30 L 553.40 516.70 Z M 535.30 516.10 L 534.20 515.70 L 533.80 514.70 L 533.90 514.10 L 534.60 513.20 L 541.30 512.90 L 541.90 513.00 L 542.70 513.80 L 542.70 515.00 L 541.90 515.80 L 535.30 516.10 Z M 264.50 512.60 L 263.30 512.00 L 260.00 506.60 L 259.90 505.50 L 260.60 504.60 L 261.20 504.40 L 262.20 504.80 L 265.70 510.20 L 266.00 510.70 L 265.80 511.90 L 264.50 512.60 Z M 258.90 501.80 L 258.10 501.60 L 257.50 500.80 L 256.00 494.70 L 256.30 493.60 L 257.30 493.00 L 257.90 493.00 L 258.80 493.70 L 260.40 499.90 L 260.30 501.00 L 259.90 501.50 L 258.90 501.80 Z M 257.00 489.90 L 256.40 489.80 L 255.70 489.00 L 255.60 485.10 L 256.10 481.60 L 257.00 480.90 L 257.60 480.90 L 258.10 481.10 L 258.80 481.90 L 258.50 488.40 L 258.10 489.50 L 257.00 489.90 Z M 258.50 477.90 L 257.20 477.20 L 257.00 476.00 L 258.80 470.10 L 259.60 469.20 L 260.70 469.20 L 261.30 469.50 L 261.70 470.50 L 259.90 476.80 L 259.40 477.60 L 258.50 477.90 Z" fill="url(#SVGID_11_)" fill-rule="nonzero" group-id="15,16,18,26" node-id="615" stroke="none" target-height="124.29999" target-width="358.6" target-x="255.6" target-y="469.2"></path></g><path d="M 606.20 601.80 L 605.00 601.30 L 604.70 600.20 L 606.20 597.00 L 607.10 596.30 L 608.30 596.40 L 608.70 596.70 L 609.10 597.80 L 607.50 601.10 L 607.00 601.60 L 606.20 601.80 Z" fill="url(#SVGID_12_)" fill-rule="nonzero" group-id="15,16,18,27" node-id="620" stroke="none" target-height="5.5" target-width="4.3999634" target-x="604.7" target-y="596.3"></path></g><g node-id="778"><path d="M 538.00 396.00 L 537.70 387.10 L 536.80 378.90 L 535.40 371.30 L 533.60 364.30 L 531.30 357.80 L 528.40 351.40 L 525.00 345.40 L 521.30 339.90 L 517.10 334.80 L 512.50 330.00 L 507.60 325.70 L 502.30 321.70 L 496.60 318.00 L 490.50 314.60 L 484.00 311.60 L 475.70 308.30 L 466.90 305.50 L 457.60 303.20 L 447.70 301.30 L 437.90 299.90 L 427.70 298.90 L 417.10 298.30 L 406.00 298.10 L 395.00 298.30 L 384.40 298.90 L 374.20 299.90 L 364.30 301.30 L 354.40 303.20 L 345.10 305.50 L 336.40 308.30 L 328.10 311.60 L 321.60 314.60 L 315.50 318.00 L 309.80 321.70 L 304.50 325.70 L 299.50 330.00 L 294.90 334.80 L 290.80 339.90 L 287.00 345.40 L 283.70 351.40 L 280.80 357.80 L 278.50 364.30 L 276.60 371.30 L 275.30 378.90 L 274.40 387.10 L 274.10 396.00 L 274.40 405.10 L 275.30 414.00 L 276.70 422.60 L 278.80 431.10 L 281.40 439.40 L 284.40 447.40 L 288.00 455.10 L 292.10 462.60 L 296.60 469.80 L 301.60 476.60 L 306.90 483.10 L 312.70 489.30 L 318.90 495.10 L 325.40 500.50 L 332.20 505.40 L 339.40 509.90 L 346.90 514.00 L 354.60 517.60 L 362.60 520.70 L 370.90 523.20 L 379.40 525.30 L 388.00 526.70 L 396.90 527.60 L 406.00 528.00 L 415.20 527.60 L 424.00 526.70 L 432.70 525.30 L 441.10 523.20 L 449.40 520.70 L 457.40 517.60 L 465.20 514.00 L 472.60 509.90 L 479.80 505.40 L 486.70 500.50 L 493.20 495.10 L 499.30 489.30 L 505.10 483.10 L 510.50 476.60 L 515.40 469.80 L 520.00 462.60 L 524.00 455.10 L 527.60 447.40 L 530.70 439.40 L 533.30 431.10 L 535.30 422.60 L 536.80 414.00 L 537.70 405.10 L 538.00 396.00 Z" fill="url(#SVGID_13_)" fill-rule="nonzero" group-id="15,16,19" node-id="626" stroke="none" target-height="229.9" target-width="263.9" target-x="274.1" target-y="298.1"></path><path d="M 406.00 272.40 L 424.00 224.10 L 435.50 228.30 L 422.80 276.60 L 406.00 272.40 Z" fill="url(#SVGID_14_)" fill-rule="nonzero" group-id="15,16,19" node-id="628" stroke="none" target-height="52.5" target-width="29.5" target-x="406" target-y="224.1"></path><path d="M 452.30 222.90 L 451.90 226.60 L 451.00 230.00 L 449.50 233.20 L 447.50 236.00 L 445.00 238.40 L 442.20 240.50 L 439.10 242.00 L 435.70 242.90 L 432.00 243.20 L 428.20 242.90 L 424.80 242.00 L 421.70 240.50 L 418.90 238.40 L 416.40 236.00 L 414.40 233.20 L 412.90 230.00 L 412.00 226.60 L 411.70 222.90 L 412.00 219.20 L 412.90 215.80 L 414.40 212.70 L 416.40 209.80 L 418.90 207.40 L 421.70 205.40 L 424.80 203.90 L 428.20 203.00 L 432.00 202.60 L 435.70 203.00 L 439.10 203.90 L 442.20 205.40 L 445.00 207.40 L 447.50 209.80 L 449.50 212.70 L 451.00 215.80 L 451.90 219.20 L 452.30 222.90 Z" fill="url(#SVGID_15_)" fill-rule="nonzero" group-id="15,16,19" node-id="630" stroke="none" target-height="40.59999" target-width="40.599976" target-x="411.7" target-y="202.6"></path><path d="M 625.50 414.30 L 625.20 417.80 L 624.30 421.20 L 622.80 424.70 L 620.60 428.20 L 617.60 431.70 L 613.70 435.60 L 608.70 439.50 L 602.70 443.40 L 595.50 447.40 L 588.40 450.80 L 580.30 454.10 L 571.30 457.40 L 551.30 463.40 L 529.10 468.50 L 516.70 470.90 L 500.40 473.40 L 482.90 475.60 L 464.30 477.50 L 445.60 478.70 L 426.20 479.50 L 405.90 479.80 L 385.60 479.50 L 366.20 478.70 L 347.50 477.50 L 328.90 475.60 L 311.40 473.40 L 295.10 470.90 L 282.70 468.50 L 260.50 463.40 L 240.50 457.40 L 231.50 454.10 L 223.50 450.80 L 216.30 447.40 L 209.10 443.40 L 203.10 439.50 L 198.20 435.60 L 194.20 431.70 L 191.20 428.20 L 189.10 424.70 L 187.50 421.20 L 186.60 417.80 L 186.30 414.30 L 186.40 397.70 L 186.70 396.90 L 189.60 393.60 L 193.30 390.20 L 197.90 386.80 L 203.50 383.30 L 215.30 377.40 L 230.30 371.60 L 240.90 368.20 L 252.60 365.10 L 265.60 362.00 L 278.70 359.40 L 292.70 357.00 L 322.80 353.10 L 355.00 350.40 L 388.50 349.10 L 405.90 348.90 L 441.00 349.60 L 474.50 351.60 L 505.60 354.90 L 520.70 357.00 L 534.80 359.40 L 547.90 362.00 L 560.90 365.10 L 572.50 368.30 L 582.90 371.60 L 590.80 374.60 L 603.80 380.60 L 609.10 383.60 L 614.50 387.10 L 618.80 390.60 L 622.20 394.10 L 624.90 397.60 L 625.50 398.80 L 625.50 414.30 Z" fill="url(#SVGID_16_)" fill-rule="nonzero" group-id="15,16,19" node-id="632" stroke="none" target-height="130.9" target-width="439.2" target-x="186.3" target-y="348.9"></path><path d="M 625.50 399.70 L 625.20 403.10 L 624.30 406.60 L 622.80 410.00 L 620.60 413.50 L 617.60 417.10 L 613.70 420.90 L 608.70 424.80 L 602.70 428.70 L 595.50 432.70 L 588.40 436.10 L 580.30 439.40 L 571.30 442.70 L 561.20 445.90 L 540.60 451.40 L 529.10 453.80 L 516.70 456.20 L 500.40 458.80 L 482.90 461.00 L 464.30 462.80 L 445.60 464.00 L 426.20 464.80 L 405.90 465.10 L 385.60 464.80 L 366.20 464.00 L 347.50 462.80 L 328.90 461.00 L 311.40 458.80 L 295.10 456.20 L 282.70 453.80 L 271.20 451.40 L 250.60 445.90 L 240.50 442.70 L 231.50 439.40 L 223.50 436.10 L 216.30 432.70 L 209.10 428.70 L 203.10 424.80 L 198.20 420.90 L 194.20 417.10 L 191.20 413.50 L 189.10 410.00 L 187.50 406.60 L 186.60 403.10 L 186.30 399.70 L 186.60 396.20 L 187.50 392.80 L 189.10 389.30 L 191.20 385.80 L 194.20 382.30 L 198.20 378.40 L 203.10 374.50 L 209.10 370.60 L 216.30 366.60 L 223.50 363.20 L 231.50 359.90 L 240.50 356.60 L 250.60 353.40 L 271.20 348.00 L 282.70 345.50 L 295.10 343.10 L 311.40 340.60 L 328.90 338.40 L 347.50 336.50 L 366.20 335.30 L 385.60 334.50 L 405.90 334.20 L 426.20 334.50 L 445.60 335.30 L 464.30 336.50 L 482.90 338.40 L 500.40 340.60 L 516.70 343.10 L 529.10 345.50 L 540.60 348.00 L 561.20 353.40 L 571.30 356.60 L 580.30 359.90 L 588.40 363.20 L 595.50 366.60 L 602.70 370.60 L 608.70 374.50 L 613.70 378.40 L 617.60 382.30 L 620.60 385.80 L 622.80 389.30 L 624.30 392.80 L 625.20 396.20 L 625.50 399.70 Z" fill="url(#SVGID_17_)" fill-rule="nonzero" group-id="15,16,19" node-id="634" stroke="none" target-height="130.9" target-width="439.2" target-x="186.3" target-y="334.2"></path><path d="M 536.10 373.30 L 534.50 365.80 L 532.60 358.60 L 530.30 351.60 L 527.70 344.70 L 524.60 338.10 L 520.30 330.00 L 515.50 322.30 L 510.20 315.00 L 504.40 308.00 L 498.10 301.50 L 491.40 295.40 L 484.40 289.80 L 476.80 284.60 L 470.60 280.90 L 464.10 277.50 L 457.50 274.40 L 450.60 271.80 L 443.50 269.40 L 436.40 267.50 L 429.00 266.00 L 421.60 264.90 L 413.90 264.30 L 406.00 264.00 L 398.00 264.30 L 390.20 265.00 L 382.60 266.10 L 375.20 267.60 L 367.90 269.60 L 360.70 272.00 L 353.80 274.80 L 347.00 277.90 L 340.50 281.40 L 334.20 285.30 L 326.60 290.60 L 319.50 296.40 L 312.80 302.60 L 306.50 309.40 L 301.80 315.10 L 297.40 321.00 L 293.40 327.20 L 289.70 333.60 L 286.40 340.30 L 283.40 347.10 L 280.80 354.10 L 278.70 361.30 L 276.90 368.70 L 275.40 378.00 L 276.40 382.90 L 279.00 388.00 L 280.90 390.60 L 283.50 393.50 L 287.00 396.70 L 290.70 399.50 L 295.60 402.40 L 301.70 405.50 L 308.00 408.20 L 315.70 410.80 L 325.10 413.40 L 334.60 415.40 L 345.90 417.30 L 359.20 419.00 L 372.60 420.10 L 388.10 420.80 L 406.00 421.10 L 424.00 420.80 L 439.60 420.00 L 453.00 418.90 L 466.40 417.10 L 477.70 415.10 L 487.20 412.90 L 496.60 410.20 L 504.30 407.40 L 510.50 404.60 L 516.60 401.30 L 521.40 398.20 L 525.10 395.20 L 528.50 391.80 L 531.10 388.80 L 534.40 383.00 L 535.90 378.30 L 536.20 375.10 L 536.10 373.30 Z" fill="url(#SVGID_18_)" fill-rule="nonzero" group-id="15,16,19" node-id="636" stroke="none" target-height="157.1" target-width="260.80002" target-x="275.4" target-y="264"></path><path d="M 267.60 372.30 L 267.40 373.60 L 266.60 374.80 L 265.30 376.10 L 261.60 378.00 L 255.00 379.50 L 250.20 379.80 L 245.50 379.50 L 238.90 378.00 L 235.20 376.10 L 233.80 374.80 L 233.10 373.60 L 232.80 372.30 L 233.10 371.00 L 233.80 369.70 L 235.20 368.50 L 238.90 366.60 L 245.50 365.00 L 250.20 364.70 L 255.00 365.00 L 261.60 366.60 L 265.30 368.50 L 266.60 369.70 L 267.40 371.00 L 267.60 372.30 Z" fill="#ffffff" fill-rule="nonzero" group-id="15,16,19" node-id="638" stroke="none" target-height="15.099976" target-width="34.800003" target-x="232.8" target-y="364.7"></path><path d="M 235.60 398.90 L 235.30 400.20 L 234.50 401.50 L 233.20 402.70 L 229.50 404.60 L 222.90 406.20 L 218.20 406.40 L 213.40 406.20 L 206.80 404.60 L 203.10 402.70 L 201.80 401.50 L 201.00 400.20 L 200.80 398.90 L 201.00 397.60 L 201.80 396.40 L 203.10 395.10 L 206.80 393.20 L 213.40 391.70 L 218.20 391.40 L 222.90 391.70 L 229.50 393.20 L 233.20 395.10 L 234.50 396.40 L 235.30 397.60 L 235.60 398.90 Z" fill="#ffffff" fill-rule="nonzero" group-id="15,16,19" node-id="640" stroke="none" target-height="15" target-width="34.800003" target-x="200.8" target-y="391.4"></path><g node-id="787"><path d="M 266.10 414.10 L 270.60 415.50 L 276.60 418.70 L 279.70 421.40 L 280.70 422.90 L 281.20 424.30 L 281.10 425.70 L 280.50 426.90 L 279.50 427.90 L 277.90 428.80 L 273.80 429.70 L 267.00 429.60 L 262.40 428.70 L 257.90 427.30 L 251.80 424.10 L 248.70 421.40 L 247.70 419.80 L 247.30 418.40 L 247.40 417.10 L 247.90 415.90 L 249.00 414.90 L 250.60 414.00 L 254.60 413.10 L 261.40 413.20 L 266.10 414.10 Z" fill="#ffffff" fill-rule="nonzero" group-id="15,16,19,28" node-id="644" stroke="none" target-height="16.600006" target-width="33.90001" target-x="247.3" target-y="413.1"></path></g><g node-id="788"><path d="M 318.10 429.00 L 322.80 430.10 L 329.00 432.70 L 332.30 435.20 L 333.40 436.70 L 334.00 438.10 L 334.00 439.40 L 333.50 440.60 L 332.60 441.70 L 331.00 442.70 L 327.10 444.00 L 320.30 444.40 L 315.60 443.80 L 310.90 442.70 L 307.10 441.30 L 304.70 440.10 L 301.40 437.60 L 300.30 436.10 L 299.70 434.70 L 299.70 433.40 L 300.20 432.20 L 301.10 431.10 L 304.50 429.40 L 309.30 428.50 L 313.40 428.50 L 318.10 429.00 Z" fill="#ffffff" fill-rule="nonzero" group-id="15,16,19,29" node-id="649" stroke="none" target-height="15.899994" target-width="34.299988" target-x="299.7" target-y="428.5"></path></g><g node-id="789"><path d="M 373.80 436.80 L 378.50 437.40 L 385.10 439.40 L 388.60 441.50 L 389.90 442.80 L 390.50 444.10 L 390.70 445.40 L 390.40 446.70 L 389.50 447.90 L 388.10 449.10 L 384.30 450.70 L 377.60 451.90 L 372.90 451.80 L 368.20 451.30 L 364.20 450.20 L 361.70 449.30 L 358.10 447.20 L 356.80 445.80 L 356.20 444.50 L 356.00 443.20 L 356.30 441.90 L 357.20 440.70 L 360.30 438.70 L 365.00 437.30 L 369.10 436.80 L 373.80 436.80 Z" fill="#ffffff" fill-rule="nonzero" group-id="15,16,19,30" node-id="654" stroke="none" target-height="15.100006" target-width="34.700012" target-x="356" target-y="436.8"></path></g><path d="M 577.70 372.30 L 577.40 373.70 L 576.40 375.10 L 574.90 376.40 L 572.60 377.60 L 567.00 379.20 L 560.30 379.80 L 553.70 379.20 L 548.00 377.60 L 545.80 376.40 L 544.20 375.10 L 543.20 373.70 L 542.90 372.30 L 543.20 370.80 L 544.20 369.40 L 545.80 368.10 L 548.00 366.90 L 553.70 365.30 L 560.30 364.70 L 567.00 365.30 L 572.60 366.90 L 574.90 368.10 L 576.40 369.40 L 577.40 370.80 L 577.70 372.30 Z" fill="#ffffff" fill-rule="nonzero" group-id="15,16,19" node-id="657" stroke="none" target-height="15.099976" target-width="34.799988" target-x="542.9" target-y="364.7"></path><path d="M 609.80 398.90 L 609.50 400.30 L 608.50 401.80 L 607.00 403.00 L 604.70 404.20 L 599.10 405.90 L 592.40 406.40 L 585.70 405.90 L 580.10 404.20 L 577.80 403.00 L 576.30 401.80 L 575.30 400.30 L 575.00 398.90 L 575.30 397.50 L 576.30 396.00 L 577.80 394.80 L 580.10 393.60 L 585.70 392.00 L 592.40 391.40 L 599.10 392.00 L 604.70 393.60 L 607.00 394.80 L 608.50 396.00 L 609.50 397.50 L 609.80 398.90 Z" fill="#ffffff" fill-rule="nonzero" group-id="15,16,19" node-id="659" stroke="none" target-height="15" target-width="34.799988" target-x="575" target-y="391.4"></path><g node-id="790"><path d="M 563.30 417.10 L 563.30 418.60 L 562.70 420.20 L 561.50 421.80 L 559.60 423.50 L 554.60 426.50 L 548.20 428.70 L 541.70 429.80 L 535.80 429.60 L 533.30 429.00 L 531.50 428.10 L 530.20 427.00 L 529.50 425.70 L 529.50 424.20 L 530.10 422.50 L 531.30 421.00 L 533.20 419.20 L 538.20 416.30 L 544.60 414.10 L 551.10 413.00 L 557.00 413.20 L 559.50 413.80 L 561.30 414.70 L 562.60 415.80 L 563.30 417.10 Z" fill="#ffffff" fill-rule="nonzero" group-id="15,16,19,31" node-id="663" stroke="none" target-height="16.799988" target-width="33.799988" target-x="529.5" target-y="413"></path></g><g node-id="791"><path d="M 510.00 433.50 L 510.00 434.80 L 509.50 436.20 L 508.30 437.60 L 505.00 440.10 L 498.80 442.80 L 494.20 443.90 L 489.50 444.40 L 482.70 444.00 L 478.70 442.80 L 477.20 441.80 L 476.20 440.70 L 475.70 439.40 L 475.80 438.10 L 476.30 436.80 L 478.80 434.00 L 483.10 431.60 L 487.00 430.10 L 491.60 429.00 L 496.30 428.50 L 503.10 428.90 L 507.00 430.10 L 508.60 431.10 L 509.50 432.20 L 510.00 433.50 Z" fill="#ffffff" fill-rule="nonzero" group-id="15,16,19,32" node-id="668" stroke="none" target-height="15.899994" target-width="34.299988" target-x="475.7" target-y="428.5"></path></g><g node-id="792"><path d="M 452.10 443.10 L 451.90 444.40 L 451.20 445.70 L 450.00 447.10 L 446.40 449.20 L 439.90 451.20 L 435.20 451.80 L 430.50 451.80 L 423.80 450.70 L 420.00 449.00 L 418.50 447.80 L 417.70 446.60 L 417.40 445.40 L 417.50 444.10 L 418.20 442.80 L 419.50 441.40 L 423.00 439.30 L 429.50 437.30 L 434.20 436.70 L 439.00 436.70 L 445.70 437.80 L 449.50 439.50 L 450.90 440.70 L 451.70 441.90 L 452.10 443.10 Z" fill="#ffffff" fill-rule="nonzero" group-id="15,16,19,33" node-id="673" stroke="none" target-height="15.099976" target-width="34.700012" target-x="417.4" target-y="436.7"></path></g><path d="M 314.90 359.80 L 311.30 359.10 L 308.50 357.30 L 307.40 356.10 L 306.10 354.00 L 305.50 351.60 L 305.40 350.00 L 306.10 346.70 L 309.40 339.20 L 312.90 332.50 L 316.40 326.70 L 324.20 316.20 L 327.90 311.90 L 335.70 304.50 L 344.70 297.90 L 349.20 295.30 L 356.40 291.90 L 361.30 290.40 L 364.60 290.70 L 366.80 291.60 L 368.80 293.10 L 369.80 294.30 L 371.30 297.40 L 371.60 299.10 L 371.30 302.30 L 370.40 304.60 L 369.00 306.50 L 367.80 307.60 L 358.40 311.90 L 354.10 314.50 L 347.90 319.10 L 344.20 322.40 L 337.30 330.10 L 333.60 335.20 L 330.20 340.50 L 326.90 346.70 L 322.80 355.60 L 320.10 358.20 L 316.80 359.60 L 314.90 359.80 Z" fill="#ffffff" fill-rule="nonzero" group-id="15,16,19,34" node-id="678" stroke="none" target-height="69.399994" target-width="66.20001" target-x="305.4" target-y="290.4"></path></g><g node-id="779"><path d="M 308.20 596.60 L 328.60 594.90 L 329.10 604.00 L 328.50 608.70 L 311.30 608.50 Z" fill="url(#SVGID_19_)" fill-rule="nonzero" group-id="15,16,20" node-id="684" stroke="none" target-height="13.799988" target-width="20.899994" target-x="308.2" target-y="594.9"></path><path d="M 334.60 572.20 L 340.90 570.00 L 340.90 580.00 L 332.40 587.80 L 336.60 587.70 L 336.60 597.40 L 328.50 608.70 L 328.20 597.20 L 316.80 589.20 L 310.90 597.20 L 311.30 608.50 L 295.00 626.90 L 295.00 612.50 L 295.90 604.60 Z" fill="url(#SVGID_20_)" fill-rule="nonzero" group-id="15,16,20" node-id="686" stroke="none" target-height="56.900024" target-width="45.899994" target-x="295" target-y="570"></path><path d="M 238.50 592.90 L 218.10 596.30 L 218.10 611.30 L 259.60 611.30 L 252.40 612.50 L 252.40 627.90 L 295.00 626.90 L 295.00 608.30 L 293.30 591.80 Z" fill="url(#SVGID_21_)" fill-rule="nonzero" group-id="15,16,20" node-id="688" stroke="none" target-height="36.100037" target-width="76.899994" target-x="218.1" target-y="591.8"></path><path d="M 317.90 574.40 L 299.30 591.20 L 261.90 588.80 L 270.90 584.00 L 316.90 572.10 Z" fill="url(#SVGID_22_)" fill-rule="nonzero" group-id="15,16,20" node-id="690" stroke="none" target-height="19.100037" target-width="56" target-x="261.9" target-y="572.1"></path><path d="M 378.20 600.60 L 379.60 595.70 L 380.70 593.60 L 383.70 590.20 L 387.30 588.00 L 389.40 587.30 L 395.10 586.60 L 400.80 587.20 L 402.90 587.80 L 405.70 589.20 L 407.80 590.70 L 409.50 592.60 L 411.30 596.00 L 412.00 598.50 L 413.50 592.50 L 413.70 589.90 L 413.00 585.10 L 411.20 581.50 L 409.80 579.90 L 407.90 578.50 L 405.40 577.20 L 402.70 576.30 L 399.20 575.80 L 394.70 575.50 L 390.30 575.80 L 386.80 576.40 L 384.10 577.40 L 381.70 578.80 L 379.80 580.30 L 378.40 582.00 L 376.70 586.00 L 376.20 591.20 L 376.50 594.10 L 378.20 600.60 Z" fill="url(#SVGID_23_)" fill-rule="nonzero" group-id="15,16,20" node-id="692" stroke="none" target-height="25.099976" target-width="37.5" target-x="376.2" target-y="575.5"></path><path d="M 357.70 584.90 L 348.90 592.60 L 348.90 600.20 L 349.60 606.10 L 350.50 608.90 L 353.30 614.00 L 357.20 618.30 L 359.50 620.00 L 366.30 623.30 L 376.60 626.60 L 382.60 627.90 L 389.00 628.70 L 396.20 629.00 L 403.40 628.70 L 409.50 628.10 L 414.80 627.20 L 424.30 624.60 L 430.70 621.70 L 433.20 619.90 L 437.30 615.50 L 440.20 610.30 L 441.20 607.40 L 441.90 601.30 L 441.90 590.80 L 431.40 597.50 L 426.50 600.30 L 420.60 603.20 L 414.40 605.80 L 407.90 607.90 L 403.40 609.00 L 394.70 609.90 L 390.50 609.60 L 386.50 608.70 L 382.70 607.30 L 375.60 603.40 L 368.10 597.30 L 364.60 593.70 L 361.50 590.10 L 357.70 584.90 Z" fill="url(#SVGID_24_)" fill-rule="nonzero" group-id="15,16,20" node-id="694" stroke="none" target-height="44.099976" target-width="93" target-x="348.9" target-y="584.9"></path><path d="M 457.70 586.20 L 455.40 588.10 L 455.40 601.70 L 464.00 609.10 L 464.10 596.60 Z" fill="url(#SVGID_25_)" fill-rule="nonzero" group-id="15,16,20" node-id="696" stroke="none" target-height="22.899963" target-width="8.700012" target-x="455.4" target-y="586.2"></path><path d="M 488.70 573.20 L 488.90 585.50 L 498.00 590.60 L 516.50 589.40 L 503.90 575.80 Z" fill="url(#SVGID_26_)" fill-rule="nonzero" group-id="15,16,20" node-id="698" stroke="none" target-height="17.399963" target-width="27.799988" target-x="488.7" target-y="573.2"></path><path d="M 468.40 592.70 L 464.10 596.60 L 464.00 609.10 L 523.40 609.70 L 523.70 596.60 L 523.10 595.30 Z" fill="url(#SVGID_27_)" fill-rule="nonzero" group-id="15,16,20" node-id="700" stroke="none" target-height="17" target-width="59.700012" target-x="464" target-y="592.7"></path><path d="M 480.50 579.70 L 488.90 575.50 L 488.90 585.50 L 486.50 592.10 L 476.00 590.10 Z" fill="url(#SVGID_28_)" fill-rule="nonzero" group-id="15,16,20" node-id="702" stroke="none" target-height="16.599976" target-width="12.899994" target-x="476" target-y="575.5"></path><path d="M 526.70 593.40 L 523.70 596.60 L 523.40 609.70 L 549.60 627.00 L 549.90 612.90 Z" fill="url(#SVGID_29_)" fill-rule="nonzero" group-id="15,16,20" node-id="704" stroke="none" target-height="33.599976" target-width="26.5" target-x="523.4" target-y="593.4"></path><path d="M 546.10 592.20 L 572.20 596.70 L 572.20 605.70 L 591.90 612.90 L 591.90 626.70 L 549.60 627.00 L 549.90 612.90 Z" fill="url(#SVGID_30_)" fill-rule="nonzero" group-id="15,16,20" node-id="706" stroke="none" target-height="34.799988" target-width="45.80005" target-x="546.1" target-y="592.2"></path><path d="M 556.20 596.70 L 572.20 596.70 L 553.10 586.90 L 536.60 586.90 L 500.40 569.80 L 472.20 569.80 L 455.40 588.10 L 464.10 596.60 L 523.70 596.60 L 549.90 612.90 L 591.90 612.90 L 556.20 596.70 Z M 484.20 587.80 L 488.90 575.50 L 508.00 587.80 L 484.20 587.80 Z" fill="url(#SVGID_31_)" fill-rule="nonzero" group-id="15,16,20" node-id="708" stroke="none" target-height="43.100037" target-width="136.50003" target-x="455.4" target-y="569.8"></path><path d="M 395.40 568.70 L 388.90 569.00 L 382.90 569.60 L 377.30 570.60 L 371.70 572.00 L 366.80 573.80 L 362.50 575.70 L 358.40 578.10 L 355.10 580.60 L 352.50 583.30 L 350.90 585.60 L 349.80 587.80 L 349.10 590.20 L 348.90 592.60 L 349.10 595.00 L 349.80 597.30 L 350.90 599.60 L 352.50 601.90 L 355.10 604.50 L 358.40 607.00 L 362.50 609.40 L 366.80 611.40 L 371.70 613.10 L 377.30 614.60 L 382.90 615.60 L 388.90 616.20 L 395.40 616.40 L 401.90 616.20 L 407.90 615.60 L 413.50 614.60 L 419.10 613.10 L 424.00 611.40 L 428.30 609.40 L 432.40 607.00 L 435.70 604.50 L 438.30 601.90 L 439.90 599.60 L 441.00 597.30 L 441.70 595.00 L 441.90 592.60 L 441.70 590.20 L 441.00 587.80 L 439.90 585.60 L 438.30 583.30 L 435.70 580.60 L 432.40 578.10 L 428.30 575.70 L 424.00 573.80 L 419.10 572.00 L 413.50 570.60 L 407.90 569.60 L 401.90 569.00 L 395.40 568.70 Z M 395.40 601.80 L 389.30 601.00 L 386.60 600.10 L 384.00 598.80 L 381.90 597.20 L 380.30 595.40 L 379.00 593.20 L 378.40 590.90 L 378.30 588.20 L 378.80 586.00 L 379.70 584.00 L 381.00 582.30 L 384.60 579.80 L 386.90 578.80 L 392.20 577.80 L 398.50 577.80 L 401.40 578.30 L 406.40 580.40 L 408.50 581.80 L 410.10 583.50 L 411.40 585.40 L 412.20 587.60 L 412.50 590.00 L 412.20 592.40 L 411.40 594.50 L 410.10 596.40 L 408.50 598.00 L 406.50 599.30 L 404.00 600.40 L 398.50 601.60 L 395.40 601.80 Z" fill="url(#SVGID_32_)" fill-rule="nonzero" group-id="15,16,20" node-id="710" stroke="none" target-height="47.700012" target-width="93" target-x="348.9" target-y="568.7"></path><path d="M 340.90 570.00 L 310.30 570.00 L 218.10 596.30 L 279.70 596.20 L 252.40 612.50 L 295.00 612.50 L 310.90 597.20 L 328.20 597.20 L 336.60 587.70 L 321.70 587.70 L 340.90 570.00 Z M 293.80 587.20 L 270.90 587.10 L 311.60 575.90 L 293.80 587.20 Z" fill="url(#SVGID_33_)" fill-rule="nonzero" group-id="15,16,20" node-id="712" stroke="none" target-height="42.5" target-width="122.79999" target-x="218.1" target-y="570"></path></g><g node-id="780"><path d="M 531.20 302.20 L 524.00 301.80 L 517.40 302.40 L 514.00 303.10 L 510.80 304.30 L 507.10 306.70 L 505.70 308.40 L 504.00 311.30 L 501.10 319.00 L 498.40 331.30 L 497.20 339.80 L 511.70 339.00 L 510.40 365.30 L 537.10 381.00 L 575.10 360.50 L 569.30 336.70 L 581.50 333.50 L 581.10 331.00 L 578.90 320.90 L 575.90 312.90 L 573.80 309.40 L 572.10 307.30 L 570.30 305.70 L 568.40 304.40 L 566.20 303.70 L 563.80 303.50 L 554.20 304.60 L 549.60 304.80 L 548.50 307.00 L 546.10 309.60 L 543.00 311.20 L 539.40 311.40 L 536.00 310.50 L 533.40 308.20 L 531.70 304.90 L 531.20 302.20 Z" fill="url(#SVGID_34_)" fill-rule="nonzero" group-id="15,16,21" node-id="717" stroke="none" target-height="79.20001" target-width="84.29999" target-x="497.2" target-y="301.8"></path><path d="M 533.10 291.30 L 529.10 309.10 L 529.10 309.70 L 529.60 310.80 L 534.50 312.60 L 540.60 313.40 L 542.80 313.20 L 546.80 312.00 L 551.50 309.30 L 551.70 307.70 L 545.30 288.90 L 544.30 288.30 L 543.60 288.30 L 534.50 290.00 L 533.60 290.40 L 533.10 291.30 Z" fill="url(#SVGID_35_)" fill-rule="nonzero" group-id="15,16,21" node-id="719" stroke="none" target-height="25.100006" target-width="22.600037" target-x="529.1" target-y="288.3"></path><path d="M 556.10 289.20 L 556.80 287.30 L 556.60 285.50 L 555.40 285.20 L 554.30 285.90 L 554.20 279.00 L 553.50 273.60 L 551.40 270.30 L 548.00 267.90 L 545.90 267.10 L 543.20 266.50 L 539.70 266.30 L 535.00 266.80 L 531.00 268.70 L 529.40 270.10 L 527.60 272.70 L 527.10 273.90 L 526.90 275.50 L 526.60 285.80 L 525.60 285.20 L 525.00 285.20 L 524.30 285.60 L 524.10 286.20 L 524.40 288.40 L 525.50 291.10 L 525.90 295.50 L 526.80 296.60 L 528.00 296.70 L 529.70 300.90 L 531.10 302.80 L 533.40 305.30 L 535.80 307.20 L 539.10 308.70 L 542.10 308.70 L 545.40 307.20 L 547.70 305.30 L 549.90 302.80 L 551.70 299.90 L 552.90 296.70 L 554.10 296.60 L 554.70 296.20 L 555.00 295.50 L 555.40 291.10 L 556.10 289.20 Z" fill="url(#SVGID_36_)" fill-rule="nonzero" group-id="15,16,21" node-id="721" stroke="none" target-height="42.400024" target-width="32.700012" target-x="524.1" target-y="266.3"></path><path d="M 547.30 264.00 L 545.30 260.90 L 544.10 259.90 L 542.30 259.20 L 540.20 258.80 L 537.40 259.00 L 534.60 259.80 L 531.00 261.40 L 526.90 264.30 L 523.90 264.90 L 522.20 265.80 L 520.80 267.10 L 519.90 268.90 L 519.60 271.60 L 519.90 273.20 L 521.50 276.50 L 524.20 279.90 L 524.60 281.00 L 524.50 284.20 L 525.90 287.60 L 526.40 291.00 L 528.40 286.10 L 529.40 281.30 L 529.90 280.80 L 532.70 280.60 L 538.50 280.90 L 543.40 280.20 L 546.50 278.70 L 547.60 276.90 L 548.20 279.10 L 549.30 281.10 L 549.80 281.30 L 551.70 281.30 L 552.40 281.60 L 552.90 282.20 L 554.00 286.40 L 554.30 290.60 L 554.90 285.80 L 556.70 280.70 L 557.50 276.90 L 557.60 273.10 L 557.20 271.60 L 555.90 269.60 L 554.40 265.70 L 553.60 264.60 L 552.20 263.80 L 551.10 263.60 L 547.30 264.00 Z" fill="url(#SVGID_37_)" fill-rule="nonzero" group-id="15,16,21" node-id="723" stroke="none" target-height="32.200012" target-width="38" target-x="519.6" target-y="258.8"></path><path d="M 509.20 305.30 L 513.70 304.60 L 515.90 304.90 L 518.00 305.80 L 520.30 308.00 L 522.00 311.70 L 522.70 317.20 L 522.50 321.10 L 520.40 329.90 L 514.90 347.60 L 514.20 353.40 L 514.50 355.20 L 515.10 356.70 L 521.00 364.40 L 528.30 372.60 L 535.20 379.40 L 533.20 385.60 L 530.00 391.80 L 521.50 387.50 L 513.40 382.80 L 504.90 377.20 L 501.10 374.10 L 497.90 371.10 L 496.30 369.00 L 493.90 364.10 L 493.10 361.20 L 492.20 352.80 L 492.40 348.10 L 493.10 341.00 L 494.30 333.80 L 497.60 320.20 L 499.70 314.50 L 502.80 309.80 L 506.60 306.60 L 509.20 305.30 Z" fill="url(#SVGID_38_)" fill-rule="nonzero" group-id="15,16,21" node-id="725" stroke="none" target-height="87.19998" target-width="43" target-x="492.2" target-y="304.6"></path><path d="M 567.80 305.30 L 565.70 304.70 L 563.40 304.60 L 561.20 304.90 L 559.10 305.80 L 556.80 308.00 L 555.10 311.70 L 554.40 317.20 L 554.60 321.10 L 556.70 329.90 L 562.20 347.60 L 562.90 353.40 L 562.60 355.20 L 561.90 356.70 L 556.10 364.40 L 548.80 372.60 L 541.90 379.40 L 543.80 385.60 L 547.10 391.80 L 555.60 387.50 L 563.70 382.80 L 572.10 377.20 L 576.00 374.10 L 579.20 371.10 L 580.80 369.00 L 583.20 364.10 L 584.00 361.20 L 584.80 352.80 L 584.70 348.10 L 584.00 341.00 L 582.70 333.80 L 579.50 320.20 L 577.40 314.60 L 574.20 309.80 L 570.50 306.60 L 567.80 305.30 Z" fill="url(#SVGID_39_)" fill-rule="nonzero" group-id="15,16,21" node-id="727" stroke="none" target-height="87.19998" target-width="42.899963" target-x="541.9" target-y="304.6"></path><path d="M 518.50 302.80 L 520.20 288.20 L 520.60 286.50 L 523.80 281.70 L 525.10 278.60 L 527.40 277.20 L 533.40 274.90 L 534.40 275.10 L 534.60 275.70 L 534.40 276.30 L 535.50 277.30 L 535.40 277.80 L 532.00 281.90 L 530.40 284.90 L 532.90 283.20 L 533.20 284.40 L 532.90 287.10 L 530.50 291.20 L 529.10 297.10 L 527.20 300.80 L 523.60 304.80 L 518.70 308.70 L 518.50 302.80 Z" fill="url(#SVGID_40_)" fill-rule="nonzero" group-id="15,16,21" node-id="729" stroke="none" target-height="33.80002" target-width="17" target-x="518.5" target-y="274.9"></path><path d="M 517.40 297.30 L 530.00 301.70 L 529.00 314.20 L 527.40 326.80 L 524.80 340.90 L 522.90 348.00 L 520.80 354.60 L 517.20 362.60 L 515.30 365.90 L 512.90 368.90 L 510.50 371.10 L 507.90 372.70 L 505.90 373.50 L 503.60 373.80 L 501.20 373.70 L 498.60 373.10 L 496.80 371.80 L 494.20 368.60 L 492.50 363.70 L 492.10 360.60 L 492.10 357.20 L 492.60 352.10 L 493.70 347.10 L 495.20 342.30 L 496.80 338.30 L 517.40 297.30 Z" fill="url(#SVGID_41_)" fill-rule="nonzero" group-id="15,16,21" node-id="731" stroke="none" target-height="76.5" target-width="37.899994" target-x="492.1" target-y="297.3"></path><path d="M 559.60 302.80 L 557.90 288.20 L 557.50 286.50 L 554.30 281.70 L 553.00 278.60 L 550.70 277.20 L 544.70 274.90 L 543.70 275.10 L 543.40 275.70 L 543.70 276.30 L 542.80 276.80 L 542.50 277.30 L 542.60 277.80 L 546.00 281.90 L 547.70 284.90 L 545.20 283.20 L 544.90 284.40 L 545.20 287.10 L 547.60 291.20 L 549.00 297.10 L 550.90 300.80 L 554.50 304.80 L 559.40 308.70 L 559.60 302.80 Z" fill="url(#SVGID_42_)" fill-rule="nonzero" group-id="15,16,21" node-id="733" stroke="none" target-height="33.80002" target-width="17.099976" target-x="542.5" target-y="274.9"></path><path d="M 560.70 297.30 L 548.10 301.70 L 549.10 314.20 L 550.70 326.80 L 553.40 340.90 L 555.20 348.00 L 557.30 354.60 L 560.90 362.60 L 562.80 365.90 L 565.20 368.90 L 567.60 371.10 L 570.20 372.70 L 572.20 373.50 L 574.50 373.80 L 576.90 373.70 L 579.50 373.10 L 581.30 371.80 L 583.90 368.60 L 585.60 363.70 L 586.00 360.60 L 586.00 357.20 L 585.50 352.10 L 584.40 347.10 L 582.90 342.30 L 581.30 338.30 L 560.70 297.30 Z" fill="url(#SVGID_43_)" fill-rule="nonzero" group-id="15,16,21" node-id="735" stroke="none" target-height="76.5" target-width="37.900024" target-x="548.1" target-y="297.3"></path><path d="M 512.00 402.70 L 566.20 402.70 L 568.00 402.40 L 569.60 401.40 L 570.90 400.00 L 571.80 398.00 L 582.70 362.00 L 583.10 359.70 L 582.80 357.40 L 582.00 355.40 L 580.70 353.80 L 578.50 352.60 L 577.20 352.40 L 501.50 352.40 L 500.20 352.60 L 498.00 353.80 L 496.70 355.40 L 495.90 357.40 L 495.60 359.60 L 496.00 361.90 L 506.40 397.90 L 507.30 399.90 L 508.60 401.40 L 509.60 402.10 L 512.00 402.70 Z" fill="url(#SVGID_44_)" fill-rule="nonzero" group-id="15,16,21" node-id="737" stroke="none" target-height="50.30002" target-width="87.49997" target-x="495.6" target-y="352.4"></path><g node-id="794"><path d="M 509.80 419.30 L 508.30 417.20 L 498.40 416.30 L 489.20 414.90 L 484.10 414.90 L 481.60 415.40 L 479.40 416.20 L 477.60 417.40 L 475.60 420.30 L 474.60 424.10 L 474.90 428.10 L 475.60 430.10 L 476.70 431.90 L 478.30 433.60 L 480.60 435.00 L 482.00 435.40 L 484.10 435.60 L 496.40 435.30 L 505.80 434.40 L 508.20 433.80 L 510.30 432.80 L 511.50 431.70 L 511.00 425.90 L 509.80 419.30 Z" fill="#ffffff" fill-rule="nonzero" group-id="15,16,21,35" node-id="741" stroke="none" target-height="20.700012" target-width="36.899994" target-x="474.6" target-y="414.9"></path><path d="M 518.40 417.20 L 509.50 418.80 L 506.20 418.90 L 505.30 419.40 L 504.70 421.40 L 504.70 423.20 L 505.70 431.50 L 514.30 431.30 L 521.80 429.90 L 522.40 426.40 L 522.40 423.80 L 521.80 421.50 L 520.10 418.60 L 518.40 417.20 Z" fill="url(#SVGID_45_)" fill-rule="nonzero" group-id="15,16,21,35" node-id="743" stroke="none" target-height="14.299988" target-width="17.700012" target-x="504.7" target-y="417.2"></path><path d="M 515.20 416.70 L 519.90 431.20 L 532.30 429.20 L 545.30 426.60 L 560.30 422.90 L 568.10 420.60 L 575.80 418.00 L 583.20 415.00 L 589.80 411.80 L 597.60 406.90 L 600.60 404.40 L 603.30 401.50 L 605.20 398.60 L 606.50 395.70 L 607.00 393.30 L 607.00 390.90 L 606.60 388.30 L 605.70 385.50 L 604.30 383.20 L 602.70 381.40 L 600.70 380.00 L 598.30 379.10 L 595.90 378.60 L 590.00 378.50 L 582.00 380.00 L 577.10 381.50 L 564.00 386.90 L 555.90 390.90 L 540.70 399.70 L 527.60 408.00 L 515.20 416.70 Z" fill="url(#SVGID_46_)" fill-rule="nonzero" group-id="15,16,21,35" node-id="745" stroke="none" target-height="52.700012" target-width="91.79999" target-x="515.2" target-y="378.5"></path><path d="M 508.60 417.90 L 510.50 419.10 L 511.50 420.40 L 512.30 422.00 L 512.80 424.40 L 512.80 426.90 L 512.40 428.90 L 511.00 431.20 L 509.80 432.20 L 506.50 433.40 L 503.90 433.90 L 497.70 434.50 L 485.30 434.60 L 481.30 433.80 L 479.50 432.80 L 478.00 431.20 L 476.60 428.20 L 476.20 425.90 L 476.20 423.60 L 476.50 421.70 L 477.20 420.10 L 478.30 418.80 L 480.10 417.50 L 482.30 416.50 L 485.10 415.90 L 488.00 415.70 L 498.00 417.00 L 508.60 417.90 Z" fill="url(#SVGID_47_)" fill-rule="nonzero" group-id="15,16,21,35" node-id="747" stroke="none" target-height="18.899994" target-width="36.599976" target-x="476.2" target-y="415.7"></path></g><g node-id="795"><path d="M 572.30 419.30 L 573.70 417.20 L 583.60 416.30 L 592.70 414.80 L 597.60 414.90 L 600.00 415.30 L 602.30 416.10 L 604.20 417.30 L 606.40 420.30 L 607.40 424.10 L 607.00 428.10 L 605.30 431.80 L 603.80 433.50 L 601.50 434.90 L 600.10 435.30 L 595.50 435.70 L 585.60 435.30 L 579.20 434.80 L 573.80 433.80 L 571.70 432.80 L 570.50 431.70 L 571.00 425.90 L 572.30 419.30 Z" fill="#ffffff" fill-rule="nonzero" group-id="15,16,21,36" node-id="752" stroke="none" target-height="20.900024" target-width="36.900024" target-x="570.5" target-y="414.8"></path><path d="M 563.70 417.20 L 572.60 418.80 L 575.80 418.90 L 576.80 419.40 L 577.30 421.40 L 577.40 423.20 L 576.30 431.50 L 567.80 431.30 L 560.20 429.90 L 559.60 426.40 L 559.70 423.80 L 560.20 421.50 L 561.90 418.60 L 563.70 417.20 Z" fill="url(#SVGID_48_)" fill-rule="nonzero" group-id="15,16,21,36" node-id="754" stroke="none" target-height="14.299988" target-width="17.800049" target-x="559.6" target-y="417.2"></path><path d="M 566.90 416.70 L 562.20 431.20 L 549.70 429.20 L 536.80 426.60 L 521.70 422.90 L 513.90 420.60 L 506.30 418.00 L 498.90 415.00 L 492.30 411.80 L 484.50 406.90 L 481.40 404.40 L 478.80 401.50 L 476.80 398.60 L 475.60 395.70 L 475.10 393.30 L 475.00 390.90 L 475.40 388.30 L 476.40 385.50 L 477.70 383.20 L 479.40 381.40 L 481.40 380.00 L 483.70 379.10 L 486.20 378.60 L 492.10 378.50 L 500.10 380.00 L 505.00 381.50 L 518.10 386.90 L 526.10 390.90 L 541.40 399.70 L 554.40 408.00 L 566.90 416.70 Z" fill="url(#SVGID_49_)" fill-rule="nonzero" group-id="15,16,21,36" node-id="756" stroke="none" target-height="52.700012" target-width="91.900024" target-x="475" target-y="378.5"></path><path d="M 573.40 417.90 L 571.60 419.10 L 570.60 420.40 L 569.80 422.00 L 569.30 424.40 L 569.30 426.90 L 569.70 428.90 L 571.10 431.20 L 572.30 432.20 L 575.60 433.40 L 578.20 433.90 L 584.30 434.50 L 596.80 434.60 L 600.80 433.80 L 602.50 432.80 L 604.10 431.20 L 605.40 428.20 L 605.90 425.90 L 605.90 423.60 L 605.50 421.70 L 604.80 420.10 L 603.80 418.80 L 602.00 417.50 L 599.70 416.50 L 596.90 415.90 L 594.00 415.70 L 584.00 417.00 L 573.40 417.90 Z" fill="url(#SVGID_50_)" fill-rule="nonzero" group-id="15,16,21,36" node-id="758" stroke="none" target-height="18.899994" target-width="36.600037" target-x="569.3" target-y="415.7"></path></g></g></g></g></svg>