<?xml version="1.0" standalone="no"?><!DOCTYPE svg PUBLIC "-//W3C//DTD SVG 1.1//EN" "http://www.w3.org/Graphics/SVG/1.1/DTD/svg11.dtd"><svg height="800" node-id="1" sillyvg="true" template-height="800" template-width="800" version="1.1" viewBox="0 0 800 800" width="800" xmlns="http://www.w3.org/2000/svg" xmlns:xlink="http://www.w3.org/1999/xlink"><defs node-id="202"><linearGradient gradientUnits="objectBoundingBox" id="SVGID_1_" node-id="19" spreadMethod="pad" x1="402.6138" x2="402.6138" y1="160.7809" y2="716.2725"><stop offset="0.00000009590021" stop-color="#f4f2fb"></stop><stop offset="1" stop-color="#e1eef5"></stop></linearGradient><linearGradient gradientUnits="objectBoundingBox" id="SVGID_2_" node-id="23" spreadMethod="pad" x1="329.1308" x2="521.4274" y1="667.8314" y2="334.7639"><stop offset="0.3396" stop-color="#b0b9e1"></stop><stop offset="0.8657" stop-color="#eaf0f8"></stop></linearGradient><linearGradient gradientUnits="objectBoundingBox" id="SVGID_3_" node-id="28" spreadMethod="pad" x1="117.6956" x2="117.6956" y1="541.1672" y2="403.9926"><stop offset="0.2267" stop-color="#b7ace0"></stop><stop offset="0.7893" stop-color="#e8e7fa"></stop></linearGradient><linearGradient gradientUnits="objectBoundingBox" id="SVGID_4_" node-id="33" spreadMethod="pad" x1="117.6974" x2="117.6974" y1="419.2243" y2="570.3577"><stop offset="0" stop-color="#ecf1fb"></stop><stop offset="0.818" stop-color="#afb0e7"></stop></linearGradient><linearGradient gradientUnits="objectBoundingBox" id="SVGID_5_" node-id="38" spreadMethod="pad" x1="618.8244" x2="618.8244" y1="449.6453" y2="361.3208"><stop offset="0.2267" stop-color="#ccd4f4"></stop><stop offset="0.7893" stop-color="#ecf1fb"></stop></linearGradient><linearGradient gradientUnits="objectBoundingBox" id="SVGID_6_" node-id="43" spreadMethod="pad" x1="618.8256" x2="618.8256" y1="371.1282" y2="468.4406"><stop offset="0" stop-color="#ecf1fb"></stop><stop offset="1" stop-color="#a6a8e2"></stop></linearGradient><linearGradient gradientUnits="objectBoundingBox" id="SVGID_7_" node-id="47" spreadMethod="pad" x1="464.7425" x2="429.9882" y1="87.0387" y2="147.2348"><stop offset="0" stop-color="#ffdb80"></stop><stop offset="1" stop-color="#ffbb24"></stop></linearGradient><linearGradient gradientUnits="objectBoundingBox" id="SVGID_8_" node-id="51" spreadMethod="pad" x1="422.4053" x2="422.4053" y1="117.5048" y2="174.9588"><stop offset="0" stop-color="#f9fafe"></stop><stop offset="1" stop-color="#e5edf7"></stop></linearGradient><linearGradient gradientUnits="objectBoundingBox" id="SVGID_9_" node-id="56" spreadMethod="pad" x1="689.4267" x2="689.4267" y1="538.8854" y2="511.0572"><stop offset="0.2267" stop-color="#afb0e7"></stop><stop offset="1" stop-color="#ecf1fb"></stop></linearGradient><linearGradient gradientUnits="objectBoundingBox" id="SVGID_10_" node-id="60" spreadMethod="pad" x1="689.4758" x2="689.4758" y1="514.5709" y2="559.3668"><stop offset="0.00000009590021" stop-color="#dde1f6"></stop><stop offset="0.818" stop-color="#a6a8e2"></stop></linearGradient><linearGradient gradientUnits="objectBoundingBox" id="SVGID_11_" node-id="65" spreadMethod="pad" x1="569.9565" x2="587.6913" y1="522.8313" y2="553.5488"><stop offset="0" stop-color="#9eb6d8"></stop><stop offset="1" stop-color="#9194c9"></stop></linearGradient><linearGradient gradientUnits="objectBoundingBox" id="SVGID_12_" node-id="69" spreadMethod="pad" x1="557.4269" x2="578.8872" y1="521.4615" y2="558.6318"><stop offset="0.1157" stop-color="#dee4ff"></stop><stop offset="0.8472" stop-color="#bacbee"></stop></linearGradient><linearGradient gradientUnits="objectBoundingBox" id="SVGID_13_" node-id="73" spreadMethod="pad" x1="276.2471" x2="295.0154" y1="454.5114" y2="487.0189"><stop offset="0" stop-color="#9eb6d8"></stop><stop offset="1" stop-color="#9194c9"></stop></linearGradient><linearGradient gradientUnits="objectBoundingBox" id="SVGID_14_" node-id="77" spreadMethod="pad" x1="267.076" x2="288.2014" y1="454.3628" y2="490.9529"><stop offset="0.1157" stop-color="#dee4ff"></stop><stop offset="0.8472" stop-color="#bacbee"></stop></linearGradient><linearGradient gradientUnits="objectBoundingBox" id="SVGID_15_" node-id="81" spreadMethod="pad" x1="328.2156" x2="439.5805" y1="436.8372" y2="629.7269"><stop offset="0" stop-color="#afc5eb"></stop><stop offset="1" stop-color="#afb0e7"></stop></linearGradient><linearGradient gradientUnits="objectBoundingBox" id="SVGID_16_" node-id="85" spreadMethod="pad" x1="328.2156" x2="439.5805" y1="440.9963" y2="633.886"><stop offset="0.1157" stop-color="#dee4ff"></stop><stop offset="0.8472" stop-color="#bacbee"></stop></linearGradient><linearGradient gradientUnits="objectBoundingBox" id="SVGID_17_" node-id="89" spreadMethod="pad" x1="209.0837" x2="253.8855" y1="451.5848" y2="529.1838"><stop offset="0.1157" stop-color="#dee4ff"></stop><stop offset="0.8472" stop-color="#bacbee"></stop></linearGradient><linearGradient gradientUnits="objectBoundingBox" id="SVGID_18_" node-id="93" spreadMethod="pad" x1="223.9421" x2="263.1039" y1="455.5414" y2="523.3716"><stop offset="0" stop-color="#9eb6d8"></stop><stop offset="1" stop-color="#9194c9"></stop></linearGradient><linearGradient gradientUnits="objectBoundingBox" id="SVGID_19_" node-id="97" spreadMethod="pad" x1="512.4865" x2="559.0372" y1="527.8867" y2="608.515"><stop offset="0.1157" stop-color="#dee4ff"></stop><stop offset="0.8472" stop-color="#bacbee"></stop></linearGradient><linearGradient gradientUnits="objectBoundingBox" id="SVGID_20_" node-id="101" spreadMethod="pad" x1="527.692" x2="567.5411" y1="534.0946" y2="603.1154"><stop offset="0" stop-color="#9eb6d8"></stop><stop offset="1" stop-color="#9194c9"></stop></linearGradient><linearGradient gradientUnits="objectBoundingBox" id="SVGID_21_" node-id="105" spreadMethod="pad" x1="592.9922" x2="592.9922" y1="501.159" y2="337.5751"><stop offset="0" stop-color="#9eb6d8"></stop><stop offset="1" stop-color="#9194c9"></stop></linearGradient><linearGradient gradientUnits="objectBoundingBox" id="SVGID_22_" node-id="109" spreadMethod="pad" x1="292.9368" x2="505.5376" y1="209.714" y2="577.9495"><stop offset="0.1157" stop-color="#dee4ff"></stop><stop offset="0.8472" stop-color="#bacbee"></stop></linearGradient><linearGradient gradientUnits="objectBoundingBox" id="SVGID_23_" node-id="113" spreadMethod="pad" x1="344.9484" x2="478.6743" y1="178.7828" y2="410.4028"><stop offset="0.1157" stop-color="#c6d3f4"></stop><stop offset="0.8472" stop-color="#bacbee"></stop></linearGradient><linearGradient gradientUnits="objectBoundingBox" id="SVGID_24_" node-id="117" spreadMethod="pad" x1="560.8557" x2="641.0508" y1="360.8088" y2="499.7109"><stop offset="0" stop-color="#afc5eb"></stop><stop offset="1" stop-color="#afb0e7"></stop></linearGradient><linearGradient gradientUnits="objectBoundingBox" id="SVGID_25_" node-id="126" spreadMethod="pad" x1="278.8538" x2="332.6665" y1="276.0491" y2="276.0491"><stop offset="0.00000009590021" stop-color="#f4f2fb"></stop><stop offset="1" stop-color="#e1eef5"></stop></linearGradient><linearGradient gradientUnits="objectBoundingBox" id="SVGID_26_" node-id="130" spreadMethod="pad" x1="379.5989" x2="430.036" y1="294.2621" y2="294.2621"><stop offset="0.00000009590021" stop-color="#f4f2fb"></stop><stop offset="1" stop-color="#e1eef5"></stop></linearGradient><linearGradient gradientUnits="objectBoundingBox" id="SVGID_27_" node-id="134" spreadMethod="pad" x1="472.9918" x2="524.4968" y1="311.371" y2="311.371"><stop offset="0.00000009590021" stop-color="#f4f2fb"></stop><stop offset="1" stop-color="#e1eef5"></stop></linearGradient><linearGradient gradientUnits="objectBoundingBox" id="SVGID_28_" node-id="138" spreadMethod="pad" x1="568.5383" x2="622.4174" y1="328.8255" y2="328.8255"><stop offset="0.00000009590021" stop-color="#f4f2fb"></stop><stop offset="1" stop-color="#e1eef5"></stop></linearGradient><linearGradient gradientUnits="objectBoundingBox" id="SVGID_29_" node-id="143" spreadMethod="pad" x1="206.2043" x2="206.2043" y1="564.5048" y2="488.8849"><stop offset="0" stop-color="#c3d5fd"></stop><stop offset="1" stop-color="#1a90fc"></stop></linearGradient><linearGradient gradientUnits="objectBoundingBox" id="SVGID_30_" node-id="147" spreadMethod="pad" x1="207.2529" x2="207.2529" y1="475.9879" y2="499.9438"><stop offset="0" stop-color="#f4ae98"></stop><stop offset="1" stop-color="#fad1bb"></stop></linearGradient><linearGradient gradientUnits="objectBoundingBox" id="SVGID_31_" node-id="151" spreadMethod="pad" x1="-1279.4722" x2="-1267.7632" y1="892.169" y2="809.7254"><stop offset="0" stop-color="#c3d5fd"></stop><stop offset="1" stop-color="#1a90fc"></stop></linearGradient><linearGradient gradientUnits="objectBoundingBox" id="SVGID_32_" node-id="155" spreadMethod="pad" x1="-6987.0747" x2="-6975.3657" y1="81.5551" y2="-0.8885"><stop offset="0" stop-color="#c3d5fd"></stop><stop offset="1" stop-color="#1a90fc"></stop></linearGradient><linearGradient gradientUnits="objectBoundingBox" id="SVGID_33_" node-id="159" spreadMethod="pad" x1="206.2043" x2="206.2043" y1="537.1954" y2="585.2507"><stop offset="0" stop-color="#275c89"></stop><stop offset="1" stop-color="#013f7c"></stop></linearGradient><linearGradient gradientUnits="objectBoundingBox" id="SVGID_34_" node-id="165" spreadMethod="pad" x1="-5694.1514" x2="-5677.139" y1="605.9902" y2="605.9902"><stop offset="0" stop-color="#f4b9a4"></stop><stop offset="0.652" stop-color="#fad1bb"></stop></linearGradient><linearGradient gradientUnits="objectBoundingBox" id="SVGID_35_" node-id="169" spreadMethod="pad" x1="183.1378" x2="270.9006" y1="587.2399" y2="587.2399"><stop offset="0" stop-color="#18264b"></stop><stop offset="0.652" stop-color="#2d3c65"></stop></linearGradient><linearGradient gradientUnits="objectBoundingBox" id="SVGID_36_" node-id="173" spreadMethod="pad" x1="163.3495" x2="163.3495" y1="597.7255" y2="615.7841"><stop offset="0" stop-color="#ffdb80"></stop><stop offset="1" stop-color="#ffbb24"></stop></linearGradient><linearGradient gradientUnits="objectBoundingBox" id="SVGID_37_" node-id="179" spreadMethod="pad" x1="225.5401" x2="242.5523" y1="605.9902" y2="605.9902"><stop offset="0" stop-color="#f4b9a4"></stop><stop offset="0.652" stop-color="#fad1bb"></stop></linearGradient><linearGradient gradientUnits="objectBoundingBox" id="SVGID_38_" node-id="183" spreadMethod="pad" x1="144.7325" x2="232.4953" y1="587.2399" y2="587.2399"><stop offset="0" stop-color="#445677"></stop><stop offset="1" stop-color="#293861"></stop></linearGradient><linearGradient gradientUnits="objectBoundingBox" id="SVGID_39_" node-id="187" spreadMethod="pad" x1="252.2835" x2="252.2835" y1="597.7255" y2="615.7841"><stop offset="0" stop-color="#ffdb80"></stop><stop offset="1" stop-color="#ffbb24"></stop></linearGradient><linearGradient gradientUnits="objectBoundingBox" id="SVGID_40_" node-id="191" spreadMethod="pad" x1="222.9326" x2="191.6253" y1="470.4928" y2="470.4928"><stop offset="0" stop-color="#f4b9a4"></stop><stop offset="0.652" stop-color="#fad1bb"></stop></linearGradient><linearGradient gradientUnits="objectBoundingBox" id="SVGID_41_" node-id="195" spreadMethod="pad" x1="187.3168" x2="223.6645" y1="458.3912" y2="458.3912"><stop offset="0" stop-color="#4f5c7c"></stop><stop offset="1" stop-color="#274168"></stop></linearGradient></defs><g node-id="603"><g node-id="606"><g node-id="607"><path d="M 485.90 202.10 L 481.00 205.70 L 475.60 209.00 L 469.70 212.10 L 463.30 215.00 L 456.90 217.40 L 442.90 221.40 L 435.30 223.00 L 425.10 224.60 L 414.60 225.50 L 403.60 225.90 L 392.50 225.60 L 381.40 224.80 L 370.00 223.20 L 361.50 221.70 L 344.80 217.40 L 336.40 214.70 L 328.30 211.60 L 320.20 208.10 L 312.40 204.20 L 298.10 196.30 L 291.20 192.90 L 283.80 189.80 L 268.20 184.60 L 251.90 180.90 L 235.00 178.50 L 217.90 177.60 L 209.30 177.60 L 200.60 178.10 L 192.20 179.00 L 183.90 180.30 L 175.70 181.90 L 167.60 184.00 L 159.90 186.50 L 152.40 189.30 L 145.20 192.60 L 138.20 196.30 L 131.70 200.50 L 125.70 205.10 L 120.00 210.10 L 115.80 214.40 L 112.00 219.10 L 108.50 224.00 L 105.30 229.20 L 102.50 234.80 L 99.90 241.10 L 97.90 247.30 L 96.40 253.50 L 95.40 259.50 L 94.50 271.80 L 95.20 284.00 L 96.30 292.00 L 97.80 300.00 L 103.00 319.70 L 116.10 361.00 L 119.30 375.00 L 120.30 382.00 L 120.70 388.60 L 120.50 395.10 L 119.90 399.90 L 118.80 404.60 L 117.30 409.20 L 115.30 413.80 L 112.00 419.60 L 103.80 432.50 L 81.70 464.00 L 74.00 475.40 L 64.50 491.20 L 60.20 499.30 L 56.30 507.70 L 52.90 516.20 L 50.10 524.80 L 48.50 531.40 L 47.20 538.10 L 46.50 544.90 L 46.10 551.90 L 46.30 558.70 L 47.10 565.70 L 48.40 572.90 L 50.40 580.30 L 54.80 591.80 L 57.70 597.70 L 65.30 610.20 L 71.60 618.80 L 77.80 626.50 L 83.90 633.20 L 90.00 639.10 L 96.60 644.80 L 103.10 649.70 L 109.50 654.00 L 115.80 657.60 L 122.40 660.80 L 129.00 663.50 L 135.50 665.80 L 141.90 667.50 L 150.60 669.30 L 159.20 670.50 L 167.60 671.00 L 176.00 671.10 L 192.10 670.00 L 203.80 668.40 L 234.50 662.60 L 240.80 661.70 L 247.20 661.30 L 253.80 661.30 L 260.40 661.80 L 269.20 663.10 L 278.20 665.10 L 287.50 667.60 L 306.10 674.00 L 360.40 696.10 L 375.80 702.00 L 386.20 705.50 L 396.80 708.70 L 407.40 711.40 L 415.50 713.10 L 431.70 715.50 L 440.00 716.10 L 448.20 716.30 L 456.50 716.00 L 464.90 715.10 L 473.50 713.70 L 481.80 711.80 L 490.30 709.30 L 499.00 706.00 L 507.90 702.00 L 514.60 698.50 L 521.50 694.50 L 528.50 689.90 L 535.70 684.60 L 548.40 674.70 L 553.80 671.20 L 559.20 668.30 L 564.60 665.90 L 575.90 662.20 L 587.50 660.10 L 595.30 659.40 L 603.20 659.10 L 623.20 659.90 L 659.00 662.80 L 666.80 663.20 L 681.90 662.80 L 689.30 662.00 L 696.40 660.60 L 703.30 658.60 L 708.30 656.60 L 713.20 654.20 L 718.00 651.20 L 722.80 647.70 L 727.10 643.90 L 731.30 639.40 L 735.50 634.20 L 739.60 628.10 L 743.20 622.00 L 746.60 614.90 L 750.00 606.70 L 753.30 597.40 L 755.50 589.60 L 757.20 582.30 L 758.30 575.30 L 758.90 568.70 L 759.10 561.90 L 758.90 555.40 L 758.30 549.20 L 757.30 543.20 L 755.40 535.30 L 753.00 527.70 L 750.20 520.50 L 747.00 513.40 L 739.60 499.90 L 733.50 490.20 L 714.90 462.80 L 709.40 453.90 L 704.60 445.30 L 701.80 439.30 L 699.60 433.40 L 698.00 427.50 L 697.10 423.00 L 696.60 418.50 L 696.60 413.80 L 696.90 409.10 L 697.70 404.50 L 699.00 399.60 L 700.90 394.60 L 707.90 380.10 L 711.90 370.80 L 715.50 361.50 L 718.60 352.10 L 721.30 342.50 L 723.50 333.00 L 725.30 323.50 L 726.60 314.10 L 727.60 304.60 L 728.00 295.30 L 728.10 286.20 L 727.80 277.20 L 727.00 268.10 L 725.80 259.40 L 724.20 251.00 L 722.30 242.80 L 719.90 234.70 L 717.10 227.00 L 714.00 219.60 L 710.60 212.60 L 706.60 205.90 L 702.40 199.50 L 697.80 193.70 L 692.90 188.30 L 688.60 184.30 L 683.90 180.70 L 678.60 177.20 L 672.80 174.00 L 666.90 171.30 L 660.60 168.90 L 653.80 166.70 L 646.70 164.90 L 632.00 162.20 L 616.20 160.90 L 605.40 160.80 L 594.40 161.30 L 583.10 162.50 L 571.80 164.20 L 560.50 166.60 L 549.20 169.70 L 532.50 175.50 L 516.20 182.90 L 508.30 187.10 L 500.60 191.70 L 493.10 196.70 L 485.90 202.10 Z" fill="url(#SVGID_1_)" fill-rule="nonzero" group-id="13,16,17" node-id="468" stroke="none" target-height="555.5" target-width="713" target-x="46.1" target-y="160.8"></path><path d="M 190.20 511.70 L 224.70 487.40 L 371.30 385.80 L 693.30 434.00 L 547.30 614.60 L 534.30 574.00 L 357.10 531.20 L 250.30 596.00 L 256.60 594.50 L 259.30 594.20 L 262.20 594.20 L 265.00 594.60 L 267.40 595.50 L 268.80 596.50 L 270.00 597.70 L 270.90 599.40 L 271.40 601.30 L 271.50 603.70 L 271.10 606.90 L 264.00 607.50 L 249.90 607.80 L 231.70 606.60 L 220.70 605.20 L 190.20 511.70 Z" fill="url(#SVGID_2_)" fill-rule="nonzero" group-id="13,16,17" node-id="470" stroke="none" target-height="228.79999" target-width="503.09998" target-x="190.2" target-y="385.8"></path><g node-id="610"><path d="M 118.50 404.20 L 118.20 404.00 L 118.00 404.30 L 115.00 411.20 L 106.50 434.10 L 99.90 455.40 L 96.70 467.20 L 93.90 479.20 L 90.30 499.50 L 88.70 517.10 L 89.10 522.00 L 89.80 524.90 L 91.10 528.30 L 92.30 530.40 L 96.00 534.60 L 98.30 536.30 L 101.20 537.90 L 104.90 539.30 L 108.70 540.30 L 113.30 540.90 L 119.00 541.20 L 123.30 540.90 L 130.20 539.50 L 132.80 538.40 L 136.20 536.50 L 138.90 534.30 L 141.10 531.80 L 142.80 529.10 L 145.20 523.40 L 146.10 518.90 L 146.60 514.90 L 146.40 503.60 L 145.00 492.10 L 143.20 483.00 L 140.90 473.20 L 135.40 453.40 L 129.40 434.80 L 118.50 404.20 Z" fill="url(#SVGID_3_)" fill-rule="nonzero" group-id="13,16,17,20" node-id="474" stroke="none" target-height="137.20001" target-width="57.90001" target-x="88.7" target-y="404"></path><g node-id="615"><path d="M 117.70 570.40 L 117.00 570.10 L 116.70 569.40 L 116.70 420.20 L 117.00 419.50 L 117.70 419.20 L 118.40 419.50 L 118.70 420.20 L 118.70 569.40 L 118.40 570.10 L 117.70 570.40 Z" fill="url(#SVGID_4_)" fill-rule="nonzero" group-id="13,16,17,20,25" node-id="478" stroke="none" target-height="151.20001" target-width="2" target-x="116.7" target-y="419.2"></path></g></g><g node-id="611"><path d="M 619.30 361.50 L 619.00 361.50 L 617.10 366.00 L 613.60 375.00 L 609.50 387.40 L 605.30 402.00 L 603.50 409.80 L 600.90 425.40 L 600.30 432.90 L 600.30 436.40 L 600.80 438.90 L 601.70 441.30 L 603.30 443.80 L 604.80 445.30 L 606.70 446.70 L 609.20 448.00 L 611.90 448.90 L 615.30 449.40 L 619.70 449.70 L 623.30 449.40 L 626.20 448.80 L 628.60 447.90 L 632.50 445.20 L 633.90 443.70 L 635.50 441.00 L 636.50 438.20 L 637.40 432.70 L 637.50 428.50 L 637.10 422.90 L 634.60 409.10 L 632.70 401.60 L 628.30 387.00 L 619.30 361.50 Z" fill="url(#SVGID_5_)" fill-rule="nonzero" group-id="13,16,17,21" node-id="484" stroke="none" target-height="88.20001" target-width="37.200012" target-x="600.3" target-y="361.5"></path><g node-id="616"><path d="M 618.80 468.40 L 618.20 467.80 L 618.40 371.30 L 618.80 371.10 L 619.50 371.80 L 619.50 467.80 L 618.80 468.40 Z" fill="url(#SVGID_6_)" fill-rule="nonzero" group-id="13,16,17,21,26" node-id="488" stroke="none" target-height="97.29999" target-width="1.2999878" target-x="618.2" target-y="371.1"></path></g></g><path d="M 482.10 117.10 L 481.80 121.90 L 480.90 126.40 L 479.40 130.70 L 477.40 134.70 L 474.90 138.40 L 471.90 141.70 L 468.60 144.70 L 464.90 147.10 L 460.90 149.20 L 456.60 150.60 L 452.10 151.60 L 447.40 151.90 L 442.60 151.60 L 438.10 150.60 L 433.80 149.20 L 429.80 147.10 L 426.10 144.70 L 422.80 141.70 L 419.90 138.40 L 417.40 134.70 L 415.40 130.70 L 413.90 126.40 L 413.00 121.90 L 412.60 117.10 L 413.00 112.40 L 413.90 107.90 L 415.40 103.60 L 417.40 99.60 L 419.90 95.90 L 422.80 92.60 L 426.10 89.60 L 429.80 87.10 L 433.80 85.10 L 438.10 83.60 L 442.60 82.70 L 447.40 82.40 L 452.10 82.70 L 456.60 83.60 L 460.90 85.10 L 464.90 87.10 L 468.60 89.60 L 471.90 92.60 L 474.90 95.90 L 477.40 99.60 L 479.40 103.60 L 480.90 107.90 L 481.80 112.40 L 482.10 117.10 Z" fill="url(#SVGID_7_)" fill-rule="nonzero" group-id="13,16,17" node-id="492" stroke="none" target-height="69.49999" target-width="69.5" target-x="412.6" target-y="82.4"></path><path d="M 467.10 136.10 L 432.60 136.10 L 431.60 132.60 L 430.10 129.50 L 428.10 126.60 L 425.80 124.00 L 423.10 121.80 L 420.10 120.00 L 416.80 118.60 L 413.40 117.80 L 409.60 117.50 L 405.90 117.80 L 402.40 118.60 L 399.20 120.00 L 396.20 121.80 L 393.50 124.00 L 391.10 126.60 L 389.20 129.50 L 387.70 132.60 L 386.70 136.10 L 377.70 136.10 L 374.10 136.40 L 370.90 137.30 L 367.90 138.70 L 365.10 140.70 L 362.80 143.00 L 360.90 145.70 L 359.40 148.70 L 358.60 152.00 L 358.20 155.50 L 358.60 159.10 L 359.40 162.30 L 360.90 165.30 L 362.80 168.10 L 365.10 170.40 L 367.80 172.30 L 370.90 173.80 L 374.10 174.60 L 377.70 175.00 L 467.10 175.00 L 470.70 174.60 L 473.90 173.80 L 476.90 172.30 L 479.70 170.40 L 482.00 168.10 L 483.90 165.30 L 485.40 162.30 L 486.20 159.10 L 486.60 155.50 L 486.20 152.00 L 485.40 148.70 L 483.90 145.70 L 482.00 143.00 L 479.70 140.70 L 477.00 138.70 L 473.90 137.30 L 470.70 136.40 L 467.10 136.10 Z" fill="url(#SVGID_8_)" fill-rule="nonzero" group-id="13,16,17" node-id="494" stroke="none" target-height="57.5" target-width="128.4" target-x="358.2" target-y="117.5"></path><g node-id="612"><path d="M 703.30 525.00 L 703.10 527.50 L 702.50 529.80 L 701.40 532.00 L 700.10 533.90 L 698.40 535.60 L 696.50 537.00 L 694.30 538.00 L 692.00 538.60 L 689.40 538.90 L 686.90 538.60 L 684.60 538.00 L 682.40 537.00 L 680.50 535.60 L 677.40 532.00 L 676.40 529.80 L 675.80 527.50 L 675.50 525.00 L 675.80 522.40 L 676.40 520.10 L 677.40 517.90 L 678.80 516.00 L 680.50 514.30 L 682.40 513.00 L 684.60 511.90 L 686.90 511.30 L 689.40 511.10 L 692.00 511.30 L 694.30 511.90 L 696.50 513.00 L 700.10 516.00 L 701.40 517.90 L 702.50 520.10 L 703.10 522.40 L 703.30 525.00 Z" fill="url(#SVGID_9_)" fill-rule="nonzero" group-id="13,16,17,22" node-id="498" stroke="none" target-height="27.800018" target-width="27.799988" target-x="675.5" target-y="511.1"></path><path d="M 689.50 559.40 L 689.10 558.90 L 689.20 514.70 L 689.80 514.70 L 689.90 515.00 L 689.90 558.90 L 689.50 559.40 Z" fill="url(#SVGID_10_)" fill-rule="nonzero" group-id="13,16,17,22" node-id="500" stroke="none" target-height="44.700012" target-width="0.8000488" target-x="689.1" target-y="514.7"></path></g></g><g node-id="608"><path d="M 582.90 520.20 L 581.60 554.90 L 577.40 559.50 L 576.00 558.30 L 576.40 519.10 Z" fill="url(#SVGID_11_)" fill-rule="nonzero" group-id="13,16,18" node-id="506" stroke="none" target-height="40.400024" target-width="6.9000244" target-x="576" target-y="519.1"></path><path d="M 553.60 523.70 L 554.60 554.50 L 577.40 559.50 L 578.60 520.10 Z" fill="url(#SVGID_12_)" fill-rule="nonzero" group-id="13,16,18" node-id="508" stroke="none" target-height="39.400024" target-width="25" target-x="553.6" target-y="520.1"></path><path d="M 288.50 458.00 L 292.40 487.80 L 287.80 491.20 L 280.50 479.70 L 278.30 453.30 Z" fill="url(#SVGID_13_)" fill-rule="nonzero" group-id="13,16,18" node-id="510" stroke="none" target-height="37.900024" target-width="14.100006" target-x="278.3" target-y="453.3"></path><path d="M 264.00 456.20 L 269.30 486.80 L 287.80 491.20 L 283.70 454.60 Z" fill="url(#SVGID_14_)" fill-rule="nonzero" group-id="13,16,18" node-id="512" stroke="none" target-height="36.600006" target-width="23.799988" target-x="264" target-y="454.6"></path><path d="M 238.10 488.80 L 531.60 559.10 L 530.90 577.00 L 233.30 502.30 Z" fill="url(#SVGID_15_)" fill-rule="nonzero" group-id="13,16,18" node-id="514" stroke="none" target-height="88.20001" target-width="298.3" target-x="233.3" target-y="488.8"></path><path d="M 238.10 493.00 L 531.60 563.30 L 530.90 581.20 L 233.30 506.50 Z" fill="url(#SVGID_16_)" fill-rule="nonzero" group-id="13,16,18" node-id="516" stroke="none" target-height="88.20001" target-width="298.3" target-x="233.3" target-y="493"></path><path d="M 223.70 443.20 L 215.00 533.70 L 238.30 538.20 L 245.60 443.00 Z" fill="url(#SVGID_17_)" fill-rule="nonzero" group-id="13,16,18" node-id="518" stroke="none" target-height="95.20001" target-width="30.600006" target-x="215" target-y="443"></path><path d="M 250.40 444.00 L 243.70 534.40 L 238.30 537.70 L 245.60 443.00 Z" fill="url(#SVGID_18_)" fill-rule="nonzero" group-id="13,16,18" node-id="520" stroke="none" target-height="94.70001" target-width="12.099991" target-x="238.3" target-y="443"></path><path d="M 528.60 518.60 L 518.60 613.90 L 541.90 618.40 L 550.60 518.40 Z" fill="url(#SVGID_19_)" fill-rule="nonzero" group-id="13,16,18" node-id="522" stroke="none" target-height="100" target-width="32" target-x="518.6" target-y="518.4"></path><path d="M 555.00 522.10 L 547.30 614.60 L 541.90 617.90 L 550.20 521.10 Z" fill="url(#SVGID_20_)" fill-rule="nonzero" group-id="13,16,18" node-id="524" stroke="none" target-height="96.80005" target-width="13.099976" target-x="541.9" target-y="521.1"></path><path d="M 583.90 344.70 L 616.80 337.60 L 614.20 493.20 L 610.50 501.20 L 569.20 496.10 L 583.90 344.70 Z" fill="url(#SVGID_21_)" fill-rule="nonzero" group-id="13,16,18" node-id="526" stroke="none" target-height="163.6" target-width="47.599976" target-x="569.2" target-y="337.6"></path><path d="M 195.50 447.40 L 579.50 535.30 L 602.30 339.00 L 200.70 263.00 Z" fill="url(#SVGID_22_)" fill-rule="nonzero" group-id="13,16,18" node-id="528" stroke="none" target-height="272.3" target-width="406.8" target-x="195.5" target-y="263"></path><path d="M 216.70 252.80 L 200.70 263.00 L 602.30 339.00 L 622.40 325.30 Z" fill="url(#SVGID_23_)" fill-rule="nonzero" group-id="13,16,18" node-id="530" stroke="none" target-height="86.2" target-width="421.7" target-x="200.7" target-y="252.8"></path><path d="M 620.60 492.80 L 610.50 501.20 L 610.20 353.70 L 591.40 525.50 L 579.50 535.30 L 596.60 381.90 L 601.20 344.80 L 602.30 339.10 L 622.40 325.30 L 620.60 492.80 Z" fill="url(#SVGID_24_)" fill-rule="nonzero" group-id="13,16,18" node-id="532" stroke="none" target-height="210" target-width="42.900024" target-x="579.5" target-y="325.3"></path><path d="M 197.30 384.70 L 314.90 284.60 L 278.90 277.80 L 198.30 346.30 Z" fill="#ffffff" fill-rule="nonzero" group-id="13,16,18" node-id="534" stroke="none" target-height="106.900024" target-width="117.59999" target-x="197.3" target-y="277.8"></path><path d="M 235.90 456.70 L 415.70 303.70 L 379.60 296.90 L 201.10 448.70 Z" fill="#ffffff" fill-rule="nonzero" group-id="13,16,18" node-id="536" stroke="none" target-height="159.80002" target-width="214.6" target-x="201.1" target-y="296.9"></path><path d="M 325.90 477.30 L 509.10 321.40 L 473.00 314.60 L 291.10 469.30 Z" fill="#ffffff" fill-rule="nonzero" group-id="13,16,18" node-id="538" stroke="none" target-height="162.69998" target-width="218" target-x="291.1" target-y="314.6"></path><path d="M 418.00 498.30 L 602.00 341.80 L 602.30 339.00 L 568.50 332.70 L 383.20 490.40 Z" fill="#ffffff" fill-rule="nonzero" group-id="13,16,18" node-id="540" stroke="none" target-height="165.59998" target-width="219.09998" target-x="383.2" target-y="332.7"></path><path d="M 506.80 518.60 L 589.60 448.20 L 594.40 406.50 L 472.00 510.70 Z" fill="#ffffff" fill-rule="nonzero" group-id="13,16,18" node-id="542" stroke="none" target-height="112.099976" target-width="122.400024" target-x="472" target-y="406.5"></path><path d="M 278.90 277.80 L 298.60 267.50 L 332.70 273.60 L 314.90 284.60 Z" fill="url(#SVGID_25_)" fill-rule="nonzero" group-id="13,16,18" node-id="544" stroke="none" target-height="17.100006" target-width="53.80002" target-x="278.9" target-y="267.5"></path><path d="M 379.60 296.90 L 396.00 284.80 L 430.00 290.80 L 415.70 303.70 Z" fill="url(#SVGID_26_)" fill-rule="nonzero" group-id="13,16,18" node-id="546" stroke="none" target-height="18.900024" target-width="50.399994" target-x="379.6" target-y="284.8"></path><path d="M 473.00 314.60 L 488.80 301.40 L 524.50 307.80 L 509.10 321.40 Z" fill="url(#SVGID_27_)" fill-rule="nonzero" group-id="13,16,18" node-id="548" stroke="none" target-height="20" target-width="51.5" target-x="473" target-y="301.4"></path><path d="M 568.50 332.70 L 586.30 318.60 L 622.40 325.30 L 602.30 339.00 Z" fill="url(#SVGID_28_)" fill-rule="nonzero" group-id="13,16,18" node-id="550" stroke="none" target-height="20.399994" target-width="53.900024" target-x="568.5" target-y="318.6"></path></g><g node-id="609"><path d="M 198.40 489.20 L 191.60 488.90 L 185.20 489.40 L 182.00 490.10 L 178.90 491.30 L 175.40 493.60 L 174.10 495.10 L 172.50 497.90 L 169.70 505.30 L 167.10 517.00 L 166.00 525.10 L 179.80 524.40 L 178.60 549.60 L 204.10 564.50 L 240.40 545.00 L 234.90 522.20 L 246.50 519.20 L 246.10 516.70 L 244.00 507.10 L 241.10 499.50 L 239.10 496.10 L 237.50 494.10 L 235.80 492.60 L 233.90 491.40 L 231.90 490.70 L 229.50 490.50 L 226.90 491.00 L 216.00 491.70 L 214.90 493.80 L 212.70 496.30 L 211.00 497.30 L 209.00 498.00 L 206.30 498.10 L 203.00 497.20 L 200.50 495.00 L 198.90 491.80 L 198.40 489.20 Z" fill="url(#SVGID_29_)" fill-rule="nonzero" group-id="13,16,19" node-id="555" stroke="none" target-height="75.600006" target-width="80.5" target-x="166" target-y="488.9"></path><path d="M 200.20 478.90 L 196.40 495.90 L 196.90 497.50 L 201.60 499.20 L 207.40 500.00 L 209.50 499.80 L 213.30 498.60 L 217.80 496.00 L 218.00 494.50 L 211.90 476.60 L 210.90 476.00 L 210.30 476.00 L 201.60 477.60 L 200.70 478.00 L 200.20 478.90 Z" fill="url(#SVGID_30_)" fill-rule="nonzero" group-id="13,16,19" node-id="557" stroke="none" target-height="24" target-width="21.600006" target-x="196.4" target-y="476"></path><path d="M 177.50 492.20 L 181.70 491.50 L 183.80 491.90 L 185.80 492.70 L 188.00 494.80 L 189.60 498.30 L 190.30 503.60 L 190.10 507.30 L 188.10 515.70 L 182.80 532.60 L 182.20 538.10 L 183.10 541.30 L 188.70 548.70 L 195.70 556.50 L 202.30 563.00 L 200.40 568.90 L 197.30 574.80 L 189.20 570.70 L 181.40 566.30 L 173.40 560.90 L 169.70 558.00 L 166.60 555.10 L 165.10 553.10 L 162.80 548.40 L 162.00 545.60 L 161.20 537.60 L 162.10 526.30 L 163.20 519.50 L 166.30 506.50 L 168.30 501.10 L 171.30 496.50 L 174.90 493.40 L 177.50 492.20 Z" fill="url(#SVGID_31_)" fill-rule="nonzero" group-id="13,16,19" node-id="559" stroke="none" target-height="83.29999" target-width="41.100006" target-x="161.2" target-y="491.5"></path><path d="M 233.40 492.20 L 229.20 491.50 L 227.10 491.90 L 225.10 492.70 L 222.90 494.80 L 221.30 498.30 L 220.50 503.60 L 220.80 507.30 L 222.80 515.70 L 228.00 532.60 L 228.70 538.10 L 227.80 541.30 L 222.20 548.70 L 215.20 556.50 L 208.60 563.00 L 210.50 568.90 L 213.60 574.80 L 221.70 570.70 L 229.50 566.30 L 237.50 560.90 L 241.20 558.00 L 244.30 555.10 L 245.80 553.10 L 248.10 548.40 L 248.80 545.60 L 249.60 537.60 L 249.50 533.10 L 248.80 526.30 L 247.60 519.50 L 244.60 506.50 L 242.60 501.10 L 239.50 496.50 L 236.00 493.40 L 233.40 492.20 Z" fill="url(#SVGID_32_)" fill-rule="nonzero" group-id="13,16,19" node-id="561" stroke="none" target-height="83.29999" target-width="41" target-x="208.6" target-y="491.5"></path><path d="M 180.00 585.30 L 231.90 585.30 L 233.60 584.90 L 235.10 584.00 L 236.30 582.60 L 237.20 580.80 L 247.60 546.40 L 248.00 544.10 L 247.70 542.00 L 246.90 540.10 L 245.70 538.60 L 243.60 537.40 L 170.10 537.20 L 168.80 537.40 L 166.70 538.60 L 165.50 540.10 L 164.70 542.00 L 164.40 544.10 L 164.80 546.30 L 174.70 580.70 L 175.60 582.60 L 176.80 584.00 L 178.30 584.90 L 180.00 585.30 Z" fill="url(#SVGID_33_)" fill-rule="nonzero" group-id="13,16,19" node-id="563" stroke="none" target-height="48.099976" target-width="83.600006" target-x="164.4" target-y="537.2"></path><g node-id="613"><path d="M 178.00 601.10 L 176.60 599.10 L 167.10 598.30 L 158.30 596.90 L 153.40 596.90 L 151.10 597.40 L 149.00 598.20 L 147.30 599.30 L 145.40 602.10 L 144.40 605.70 L 144.60 609.50 L 145.30 611.40 L 146.40 613.10 L 148.00 614.80 L 150.10 616.10 L 151.50 616.50 L 153.50 616.70 L 165.20 616.40 L 174.20 615.50 L 178.50 614.10 L 179.60 613.00 L 179.20 607.40 L 178.00 601.10 Z" fill="#ffffff" fill-rule="nonzero" group-id="13,16,19,23" node-id="567" stroke="none" target-height="19.799988" target-width="35.200012" target-x="144.4" target-y="596.9"></path><path d="M 186.20 599.10 L 177.70 600.60 L 174.00 600.90 L 173.20 602.50 L 173.10 604.40 L 174.10 612.80 L 182.30 612.60 L 189.50 611.30 L 190.10 607.90 L 190.00 605.40 L 189.50 603.20 L 187.80 600.40 L 186.20 599.10 Z" fill="url(#SVGID_34_)" fill-rule="nonzero" group-id="13,16,19,23" node-id="569" stroke="none" target-height="13.700012" target-width="17" target-x="173.1" target-y="599.1"></path><path d="M 183.10 598.70 L 187.60 612.50 L 209.20 608.70 L 225.30 604.80 L 233.70 602.30 L 242.00 599.50 L 249.60 596.30 L 254.60 593.90 L 262.50 588.80 L 267.20 584.30 L 270.00 579.70 L 270.70 577.20 L 270.90 574.60 L 270.50 571.80 L 269.60 568.90 L 268.30 566.60 L 266.70 564.90 L 264.80 563.60 L 262.60 562.70 L 259.40 562.10 L 255.60 562.00 L 251.20 562.60 L 242.20 565.00 L 229.70 570.20 L 222.10 574.00 L 207.50 582.40 L 195.00 590.40 L 183.10 598.70 Z" fill="url(#SVGID_35_)" fill-rule="nonzero" group-id="13,16,19,23" node-id="571" stroke="none" target-height="50.5" target-width="87.79999" target-x="183.1" target-y="562"></path><path d="M 176.90 599.70 L 178.60 601.00 L 179.60 602.20 L 180.30 603.70 L 180.80 606.00 L 180.80 608.40 L 180.50 610.30 L 179.10 612.50 L 178.00 613.40 L 174.80 614.60 L 172.40 615.10 L 166.50 615.60 L 154.60 615.70 L 150.70 615.00 L 149.10 614.00 L 147.60 612.50 L 146.30 609.60 L 145.90 607.40 L 146.20 603.40 L 146.90 601.90 L 147.90 600.70 L 149.60 599.40 L 151.80 598.40 L 154.40 597.90 L 157.20 597.70 L 166.70 599.00 L 176.90 599.70 Z" fill="url(#SVGID_36_)" fill-rule="nonzero" group-id="13,16,19,23" node-id="573" stroke="none" target-height="18" target-width="34.90001" target-x="145.9" target-y="597.7"></path></g><g node-id="614"><path d="M 237.70 601.10 L 239.10 599.10 L 248.50 598.30 L 257.20 596.90 L 261.90 596.90 L 264.20 597.30 L 266.30 598.10 L 268.10 599.20 L 270.20 602.10 L 271.20 605.70 L 270.90 609.50 L 269.20 613.10 L 267.80 614.60 L 265.60 616.00 L 264.20 616.40 L 256.40 616.70 L 244.30 616.00 L 241.40 615.50 L 239.10 614.90 L 237.20 614.00 L 236.00 613.00 L 236.50 607.40 L 237.70 601.10 Z" fill="#ffffff" fill-rule="nonzero" group-id="13,16,19,24" node-id="578" stroke="none" target-height="19.799988" target-width="35.200012" target-x="236" target-y="596.9"></path><path d="M 229.40 599.10 L 237.90 600.60 L 241.70 600.90 L 242.40 602.50 L 242.60 604.40 L 241.60 612.80 L 233.40 612.60 L 226.20 611.30 L 225.60 607.90 L 225.60 605.40 L 226.10 603.20 L 227.80 600.40 L 229.40 599.10 Z" fill="url(#SVGID_37_)" fill-rule="nonzero" group-id="13,16,19,24" node-id="580" stroke="none" target-height="13.700012" target-width="17" target-x="225.6" target-y="599.1"></path><path d="M 232.50 598.70 L 228.10 612.50 L 206.50 608.70 L 190.40 604.80 L 181.90 602.30 L 173.70 599.50 L 166.00 596.30 L 161.10 593.90 L 153.10 588.80 L 148.50 584.30 L 145.70 579.70 L 144.90 577.20 L 144.70 574.60 L 145.10 571.80 L 146.10 568.90 L 147.40 566.60 L 149.00 564.90 L 150.80 563.60 L 153.10 562.70 L 156.30 562.10 L 160.00 562.00 L 164.40 562.60 L 173.40 565.00 L 185.90 570.20 L 193.60 574.00 L 208.20 582.40 L 220.60 590.40 L 232.50 598.70 Z" fill="url(#SVGID_38_)" fill-rule="nonzero" group-id="13,16,19,24" node-id="582" stroke="none" target-height="50.5" target-width="87.8" target-x="144.7" target-y="562"></path><path d="M 238.80 599.70 L 237.00 601.00 L 236.00 602.20 L 235.30 603.70 L 234.80 606.00 L 234.80 608.40 L 235.20 610.30 L 236.50 612.50 L 237.70 613.40 L 240.80 614.60 L 243.30 615.10 L 249.20 615.60 L 261.10 615.70 L 264.90 615.00 L 266.60 614.00 L 268.00 612.50 L 269.30 609.60 L 269.70 607.40 L 269.80 605.20 L 269.40 603.40 L 268.70 601.90 L 267.70 600.70 L 266.00 599.40 L 263.90 598.40 L 261.20 597.90 L 258.40 597.70 L 248.90 599.00 L 238.80 599.70 Z" fill="url(#SVGID_39_)" fill-rule="nonzero" group-id="13,16,19,24" node-id="584" stroke="none" target-height="18" target-width="34.999985" target-x="234.8" target-y="597.7"></path></g><path d="M 222.30 472.10 L 222.90 470.20 L 222.70 468.60 L 221.50 468.20 L 220.50 468.90 L 220.40 462.30 L 219.70 457.10 L 217.70 454.00 L 214.50 451.70 L 209.90 450.40 L 206.60 450.10 L 202.00 450.70 L 198.20 452.50 L 196.70 453.80 L 195.00 456.30 L 194.30 459.00 L 194.10 468.80 L 193.00 468.20 L 192.50 468.20 L 191.80 468.60 L 191.60 469.20 L 191.90 471.30 L 193.00 473.90 L 193.40 478.00 L 194.20 479.10 L 195.40 479.20 L 197.00 483.20 L 198.30 485.00 L 200.50 487.40 L 202.80 489.20 L 206.00 490.70 L 208.80 490.70 L 212.00 489.20 L 214.20 487.40 L 216.30 485.00 L 218.00 482.30 L 219.10 479.20 L 220.30 479.10 L 220.90 478.70 L 221.60 473.90 L 222.30 472.10 Z" fill="url(#SVGID_40_)" fill-rule="nonzero" group-id="13,16,19" node-id="587" stroke="none" target-height="40.600006" target-width="31.299988" target-x="191.6" target-y="450.1"></path><path d="M 213.90 448.00 L 211.90 445.10 L 210.70 444.10 L 209.00 443.40 L 207.00 443.00 L 204.30 443.30 L 200.90 444.20 L 198.80 445.20 L 194.60 448.10 L 191.60 448.80 L 190.20 449.40 L 188.90 450.50 L 188.00 451.80 L 187.50 453.40 L 187.30 455.30 L 187.70 457.20 L 188.80 459.30 L 191.80 463.10 L 192.10 464.20 L 192.10 467.30 L 193.30 470.60 L 193.90 473.70 L 194.90 469.50 L 195.20 465.80 L 194.60 462.00 L 195.20 461.40 L 197.90 460.90 L 204.40 461.00 L 209.70 460.20 L 213.10 458.60 L 214.30 456.80 L 215.00 459.70 L 216.40 462.90 L 219.20 465.30 L 219.60 466.50 L 220.50 473.40 L 221.00 468.80 L 222.80 464.00 L 223.50 460.30 L 223.60 456.70 L 223.30 455.20 L 222.00 453.40 L 220.60 449.60 L 219.80 448.60 L 217.50 447.60 L 213.90 448.00 Z" fill="url(#SVGID_41_)" fill-rule="nonzero" group-id="13,16,19" node-id="589" stroke="none" target-height="30.700012" target-width="36.300003" target-x="187.3" target-y="443"></path></g></g></g></svg>