<?xml version="1.0" standalone="no"?><!DOCTYPE svg PUBLIC "-//W3C//DTD SVG 1.1//EN" "http://www.w3.org/Graphics/SVG/1.1/DTD/svg11.dtd"><svg class="icon" width="128px" height="128.00px" viewBox="0 0 1024 1024" version="1.1" xmlns="http://www.w3.org/2000/svg"><path d="M512 989.86666667c-263.23626667 0-477.86666667-214.6304-477.86666667-477.86666667S248.76373333 34.13333333 512 34.13333333s477.86666667 214.6304 477.86666667 477.86666667-214.6304 477.86666667-477.86666667 477.86666667z m0-890.19733334c-227.19146667 0-412.33066667 185.1392-412.33066667 412.33066667s185.1392 412.33066667 412.33066667 412.33066667 412.33066667-185.1392 412.33066667-412.33066667-185.1392-412.33066667-412.33066667-412.33066667zM557.32906667 229.10293333c31.67573333 7.64586667 46.96746667 44.78293333 39.86773333 76.45866667-7.64586667 31.67573333-37.13706667 58.43626667-68.8128 50.7904-31.67573333-7.64586667-43.69066667-44.2368-36.59093333-75.91253333 7.64586667-31.67573333 33.86026667-58.9824 65.536-51.33653334zM421.34186667 463.39413333s95.57333333-83.5584 132.7104-67.1744c25.12213333 6.5536 11.4688 119.6032 7.64586666 134.89493334-1.09226667 13.65333333-22.9376 185.68533333-17.47626666 193.3312 7.64586667 28.39893333 16.384 6.00746667 43.14453333-16.384 0 0 62.80533333-42.5984-4.36906667 45.8752-55.7056 59.52853333-109.7728 51.88266667-117.9648 7.09973333-6.5536-33.86026667 20.20693333-238.66026667 26.76053334-284.53546667 2.18453333-15.29173333-16.93013333 0-16.93013334 0s-51.88266667 32.22186667-64.44373333 10.37653334c-3.2768-6.00746667 1.6384-15.29173333 10.92266667-23.48373334z" /></svg>