<?xml version="1.0" standalone="no"?><!DOCTYPE svg PUBLIC "-//W3C//DTD SVG 1.1//EN" "http://www.w3.org/Graphics/SVG/1.1/DTD/svg11.dtd"><svg class="icon" width="128px" height="128.00px" viewBox="0 0 1024 1024" version="1.1" xmlns="http://www.w3.org/2000/svg"><path d="M834.41195029 538.05652718c0.66360492-1.28490043 1.73917981-2.36047532 2.32039125-3.68768515 11.39263325-23.69605185 7.66263611-52.69203918-12.51051754-71.74953516L366.92876345 30.10009968c-24.9386416-23.57134768-64.24946068-22.45346211-87.86311906 2.44509539-23.57134768 24.9386416-22.49354619 64.24946068 2.44509542 87.86311906l410.31738003 388.15340905L283.12521545 902.4738003c-24.68923326 23.81852942-25.43523295 63.1315751-1.61447564 87.86311905 12.17871572 12.67530578 28.45931318 19.01518528 44.73991064 19.01518528 15.53459906 0 31.06919684-5.79875214 43.12320841-17.39848303l453.15109473-436.74579311c0.87070385-0.87070385 1.20027906-2.0709829 2.0709829-2.98176956 0.66360492-0.62129423 1.36729392-1.07780149 2.02867224-1.7391798C830.14528031 546.79696608 832.00916428 542.28088777 834.41195029 538.05652718z" /></svg>