<?xml version="1.0" standalone="no"?><!DOCTYPE svg PUBLIC "-//W3C//DTD SVG 1.1//EN" "http://www.w3.org/Graphics/SVG/1.1/DTD/svg11.dtd"><svg class="icon" width="128px" height="112.03px" viewBox="0 0 1170 1024" version="1.1" xmlns="http://www.w3.org/2000/svg"><path d="M462.09821405 437.87053595h508.47991095c4.70089298 0 8.49776798-3.85714297 8.49776798-8.49776798v-59.3035719a8.49776798 8.49776798 0 0 0-8.4375-8.49776715H462.03794608a8.49776798 8.49776798 0 0 0-8.4375 8.4375v59.36383905c0 4.640625 3.796875 8.4375 8.4375 8.4375z m-8.4375 216.06026797c0 4.70089298 3.796875 8.49776798 8.4375 8.49776715h508.47991095c4.70089298 0 8.49776798-3.796875 8.49776798-8.4375V594.56696405a8.49776798 8.49776798 0 0 0-8.4375-8.43749999H462.03794608a8.49776798 8.49776798 0 0 0-8.4375 8.4375v59.30357189zM987.51339297 139.0625H156.96205392a8.49776798 8.49776798 0 0 0-8.4375 8.49776798v59.36383905c0 4.640625 3.796875 8.4375 8.4375 8.4375h830.61160702c4.640625 0 8.4375-3.796875 8.4375-8.4375V147.56026797a8.49776798 8.49776798 0 0 0-8.4375-8.43749999z m1e-8 669.57589297H156.96205392a8.49776798 8.49776798 0 0 0-8.4375 8.4375v59.36383905c0 4.640625 3.796875 8.4375 8.4375 8.4375h830.61160702c4.640625 0 8.4375-3.796875 8.4375-8.4375v-59.36383905a8.49776798 8.49776798 0 0 0-8.4375-8.4375z m-835.43303596-289.28571405l165.55580393 130.359375c6.14732108 4.88169607 15.24776797 0.54241095 15.24776797-7.29241095V381.58035702c0-7.83482108-9.04017892-12.17410703-15.24776797-7.29241095L152.140625 504.70758906a9.28125 9.28125 0 0 0 0 14.58482189z" /></svg>