<svg t="1750250438398" class="icon" viewBox="0 0 1024 1024" version="1.1" xmlns="http://www.w3.org/2000/svg" p-id="3291" width="128" height="128"><path d="M361.99970703 62h-180A119.99970703 119.99970703 0 0 0 62 181.99970703v180a119.99970703 119.99970703 0 0 0 119.99970703 120.00058594h180a119.99970703 119.99970703 0 0 0 120.00058594-120.00058594v-180A119.99970703 119.99970703 0 0 0 361.99970703 62zM422 361.99970703a60.00029297 60.00029297 0 0 1-60.00029297 60.00029297h-180a60.00029297 60.00029297 0 0 1-59.99941406-60.00029297v-180a60.00029297 60.00029297 0 0 1 59.99941406-59.99941406h180a60.00029297 60.00029297 0 0 1 60.00029297 59.99941406zM842.00029297 62h-180a119.99970703 119.99970703 0 0 0-120.00058594 119.99970703v180a119.99970703 119.99970703 0 0 0 120.00058594 120.00058594h180A119.99970703 119.99970703 0 0 0 962 361.99970703v-180A119.99970703 119.99970703 0 0 0 842.00029297 62z m59.99941406 299.99970703a60.00029297 60.00029297 0 0 1-59.99941406 60.00029297h-180a60.00029297 60.00029297 0 0 1-60.00029297-60.00029297v-180a60.00029297 60.00029297 0 0 1 60.00029297-59.99941406h180a60.00029297 60.00029297 0 0 1 59.99941406 59.99941406z m-540 180h-180A119.99970703 119.99970703 0 0 0 62 662.00029297v180A119.99970703 119.99970703 0 0 0 181.99970703 962h180a119.99970703 119.99970703 0 0 0 120.00058594-119.99970703v-180a119.99970703 119.99970703 0 0 0-120.00058594-120.00058594zM422 842.00029297a60.00029297 60.00029297 0 0 1-60.00029297 59.99941406h-180a60.00029297 60.00029297 0 0 1-59.99941406-59.99941406v-180a60.00029297 60.00029297 0 0 1 59.99941406-60.00029297h180a60.00029297 60.00029297 0 0 1 60.00029297 60.00029297z m420.00029297-300.00058594h-180a119.99970703 119.99970703 0 0 0-120.00058594 120.00058594v180A119.99970703 119.99970703 0 0 0 662.00029297 962h180A119.99970703 119.99970703 0 0 0 962 842.00029297v-180a119.99970703 119.99970703 0 0 0-119.99970703-120.00058594z m59.99941406 300.00058594a60.00029297 60.00029297 0 0 1-59.99941406 59.99941406h-180a60.00029297 60.00029297 0 0 1-60.00029297-59.99941406v-180a60.00029297 60.00029297 0 0 1 60.00029297-60.00029297h180a60.00029297 60.00029297 0 0 1 59.99941406 60.00029297z" p-id="3292"></path></svg>