<svg t="1750323141621" class="icon" viewBox="0 0 1024 1024" version="1.1" xmlns="http://www.w3.org/2000/svg" p-id="2368" width="128" height="128"><path d="M812 714.5V266.84375c0-7.96875 3.1875-15.5625 8.8125-21.1875L970.4375 96.03125c11.71875-11.71875 11.71875-30.75 0-42.46875s-30.75-11.71875-42.46875 0L778.34375 203.1875c-5.625 5.625-13.21875 8.8125-21.1875 8.8125H309.5c-4.125 0-7.5-3.375-7.5-7.5V39.5c0-4.125-3.375-7.5-7.5-7.5h-75c-4.125 0-7.5 3.375-7.5 7.5v165c0 4.125-3.375 7.5-7.5 7.5H39.5c-4.125 0-7.5 3.375-7.5 7.5v75c0 4.125 3.375 7.5 7.5 7.5h165c4.125 0 7.5 3.375 7.5 7.5v442.5c0 33.09375 26.90625 60 60 60h442.5c4.125 0 7.5 3.375 7.5 7.5v165c0 4.125 3.375 7.5 7.5 7.5h75c4.125 0 7.5-3.375 7.5-7.5V819.5c0-4.125 3.375-7.5 7.5-7.5h165c4.125 0 7.5-3.375 7.5-7.5v-75c0-4.125-3.375-7.5-7.5-7.5H819.5c-4.125 0-7.5-3.375-7.5-7.5zM309.5 302h351.9375c6.65625 0 10.03125 8.0625 5.34375 12.84375L314.84375 666.78125c-4.6875 4.6875-12.84375 1.40625-12.84375-5.34375V309.5c0-4.125 3.375-7.5 7.5-7.5z m405 420H362.5625c-6.65625 0-10.03125-8.0625-5.34375-12.84375l351.9375-351.9375c4.6875-4.6875 12.84375-1.40625 12.84375 5.34375V714.5c0 4.125-3.375 7.5-7.5 7.5z" p-id="2369"></path></svg>