<?xml version="1.0" standalone="no"?><!DOCTYPE svg PUBLIC "-//W3C//DTD SVG 1.1//EN" "http://www.w3.org/Graphics/SVG/1.1/DTD/svg11.dtd"><svg class="icon" width="64px" height="64.00px" viewBox="0 0 1024 1024" version="1.1" xmlns="http://www.w3.org/2000/svg"><path d="M800.81859034 452.18590078c-57.03046918 0-112.4993898-18.53490248-158.12376515-52.8210774v239.18850346c0 122.14025483-94.10027415 221.06096149-210.19801496 221.06096149S222.29879525 760.69358168 222.29879525 638.55332684c0-122.14025483 94.10027415-221.06096149 210.19801498-221.06096147 11.60977409 0 22.88008109 1.01840124 33.87881442 2.91941686v126.68911367c-10.52347943-4.14149836-21.72589302-6.24619425-32.99620002-6.24619424-51.80267618 0-93.82870048 44.1307202-93.82870048 98.64913301 0 54.45051938 42.02602432 98.649133 93.82870048 98.649133 51.73478275 0 93.76080707-44.19861363 93.76080707-98.649133V164.38571167H644.3921606c0 91.31664411 70.40547207 165.32046721 157.24115074 165.32046721v122.41182847l-0.814721 0.06789343" /></svg>