<svg t="1750318912727" class="icon" viewBox="0 0 1024 1024" version="1.1" xmlns="http://www.w3.org/2000/svg" p-id="2309" width="128" height="128"><path d="M484.54284325 539.45715675a38.7196397 38.7196397 0 0 0 54.9143135 0l368.9434074-368.94340742a38.797312 38.797312 0 1 0-54.91431348-54.91431348l-368.94340742 368.9434074a38.797312 38.797312 0 0 0 0 54.9143135" p-id="2310"></path><path d="M900.36148148 473.16385185a38.83614815 38.83614815 0 0 0-38.83614815 38.83614815l0.31068919 349.52533333L162.47466667 861.83602252 162.16397748 162.47466667H512a38.83614815 38.83614815 0 0 0 0-77.6722963H162.16397748A77.47811555 77.47811555 0 0 0 84.80237037 162.16397748v699.67204504C84.80237037 904.47811318 119.52188682 939.19762963 162.16397748 939.19762963h699.67204504A77.47811555 77.47811555 0 0 0 939.19762963 861.83602252V512a38.83614815 38.83614815 0 0 0-38.83614815-38.83614815" p-id="2311"></path></svg>