<?xml version="1.0" standalone="no"?><!DOCTYPE svg PUBLIC "-//W3C//DTD SVG 1.1//EN" "http://www.w3.org/Graphics/SVG/1.1/DTD/svg11.dtd"><svg class="icon" width="128px" height="128.00px" viewBox="0 0 1024 1024" version="1.1" xmlns="http://www.w3.org/2000/svg"><path d="M49.617455 515.304727a34.909091 34.909091 0 0 1-23.645091-60.625454L488.37818201 29.62618199a34.97890899 34.97890899 0 0 1 47.33672699 0.069818L995.444364 454.749091a34.909091 34.909091 0 1 1-47.40654599 51.26981799L511.93018199 102.795636 73.239273 506.088727a34.769455 34.769455 0 0 1-23.621818 9.216zM827.275636 1001.84436398H196.724364c-44.916364 0-81.454545-36.53818199-81.45454599-81.45454597V541.858909a34.909091 34.909091 0 1 1 69.81818199 0v378.53090901a11.636364 11.636364 0 0 0 11.636364 11.636364h630.551272c6.4 0 11.636364-5.236364 11.636364-11.636364V541.858909a34.909091 34.909091 0 1 1 69.81818199 0v378.53090901c0 44.916364-36.53818199 81.454545-81.45454599 81.454546zM597.17818201 1001.84436398h-170.37963702c-44.916364 0-81.454545-36.53818199-81.45454499-81.45454597v-237.14909101c0-44.916364 36.53818199-81.454545 81.45454501-81.45454499h170.379637c44.916364 0 81.454545 36.53818199 81.45454499 81.45454499v237.12581799a81.54763599 81.54763599 0 0 1-81.45454501 81.47781899z m-170.37963702-330.23999998a11.636364 11.636364 0 0 0-11.636363 11.636363v237.12581801a11.636364 11.636364 0 0 0 11.63636302 11.63636398h170.379637c6.4 0 11.636364-5.236364 11.63636299-11.636364V683.240727c0-6.4-5.236364-11.636364-11.63636301-11.636363h-170.37963698z" fill='currentColor' /></svg>