<?xml version="1.0" standalone="no"?><!DOCTYPE svg PUBLIC "-//W3C//DTD SVG 1.1//EN" "http://www.w3.org/Graphics/SVG/1.1/DTD/svg11.dtd"><svg class="icon" width="128px" height="128.00px" viewBox="0 0 1024 1024" version="1.1" xmlns="http://www.w3.org/2000/svg"><path d="M50.84501333 172.08661333a36.40888889 36.40888889 0 0 1 36.40888889-36.40888888h594.70279111a36.40888889 36.40888889 0 0 1 0 72.81777777H87.25390222a36.40888889 36.40888889 0 0 1-36.40888889-36.40888889zM50.84501333 172.08661333a36.40888889 36.40888889 0 0 1 36.40888889-36.40888888h594.70279111a36.40888889 36.40888889 0 0 1 0 72.81777777H87.25390222a36.40888889 36.40888889 0 0 1-36.40888889-36.40888889zM560.56945778 448.28444445a36.40888889 36.40888889 0 0 1 36.40888889-36.4088889h339.84056888a36.40888889 36.40888889 0 0 1 0 72.81777778H596.97834667a36.40888889 36.40888889 0 0 1-36.40888889-36.40888888zM560.56945778 448.28444445a36.40888889 36.40888889 0 0 1 36.40888889-36.4088889h339.84056888a36.40888889 36.40888889 0 0 1 0 72.81777778H596.97834667a36.40888889 36.40888889 0 0 1-36.40888889-36.40888888zM384.56888889 135.67772445a36.40888889 36.40888889 0 0 1 36.40888889 36.40888888v722.13390222a36.40888889 36.40888889 0 0 1-72.81777778 0V172.08661333a36.40888889 36.40888889 0 0 1 36.40888889-36.40888888zM384.56888889 135.67772445a36.40888889 36.40888889 0 0 1 36.40888889 36.40888888v722.13390222a36.40888889 36.40888889 0 0 1-72.81777778 0V172.08661333a36.40888889 36.40888889 0 0 1 36.40888889-36.40888888zM766.86222222 411.87555555a36.40888889 36.40888889 0 0 1 36.40888889 36.4088889v446.00888888a36.40888889 36.40888889 0 0 1-72.81777778 0V448.28444445a36.40888889 36.40888889 0 0 1 36.40888889-36.4088889zM766.86222222 411.87555555a36.40888889 36.40888889 0 0 1 36.40888889 36.4088889v446.00888888a36.40888889 36.40888889 0 0 1-72.81777778 0V448.28444445a36.40888889 36.40888889 0 0 1 36.40888889-36.4088889z" /></svg>