<svg height="505" node-id="1" sillyvg="true" template-height="505" template-width="600" version="1.1" viewBox="0 0 600 505" width="600" xmlns="http://www.w3.org/2000/svg" xmlns:xlink="http://www.w3.org/1999/xlink"><defs node-id="229"><mask height="9.852936" id="mask-8" maskUnits="userSpaceOnUse" node-id="183" width="10.164627" x="165.3015" y="69.694214"><path d="M 171.20 70.50 L 174.60 73.60 L 169.90 78.70 L 166.10 75.20 L 171.20 70.50 Z" fill="#ffffff" fill-rule="evenodd" node-id="234" stroke="none" target-height="8.199997" target-width="8.5" target-x="166.1" target-y="70.5"/></mask></defs><g node-id="236"><path d="M 576.50 394.60 L 487.10 394.60 L 485.90 395.10 L 485.40 396.30 L 485.90 397.50 L 487.10 398.00 L 576.50 398.00 L 577.70 397.50 L 578.20 396.30 L 577.70 395.10 L 576.50 394.60" fill="#9fd4e0" fill-rule="evenodd" group-id="1" id="Fill-1" node-id="11" stroke="none" target-height="3.399994" target-width="92.80002" target-x="485.4" target-y="394.6"/><path d="M 164.40 326.40 L 165.10 323.20 L 165.10 320.10 L 164.60 317.10 L 162.70 311.90 L 162.60 309.70 L 163.50 306.90 L 165.90 303.50 L 168.20 298.70 L 169.00 295.10 L 169.30 291.60 L 169.00 288.10 L 168.10 284.60 L 166.80 281.40 L 164.00 276.60 L 163.10 273.20 L 163.50 269.80 L 165.20 265.80 L 165.90 262.60 L 165.90 259.50 L 165.30 256.50 L 164.10 253.60 L 162.40 251.00 L 158.90 247.20 L 157.60 244.00 L 157.50 242.40 L 157.80 240.80 L 160.90 234.70 L 161.70 231.40 L 161.80 228.10 L 161.30 224.90 L 160.20 221.80 L 158.60 218.90 L 156.50 216.20 L 154.00 213.90 L 151.00 212.00 L 146.50 210.00 L 145.80 209.10 L 145.50 208.10 L 146.50 203.60 L 146.80 200.50 L 146.60 197.30 L 146.10 194.20 L 145.10 191.30 L 143.70 188.40 L 141.90 185.70 L 139.80 183.20 L 137.40 181.00 L 134.60 179.00 L 131.60 177.40 L 128.20 176.10 L 124.90 175.30 L 121.70 175.00 L 115.20 175.50 L 109.20 177.40 L 106.50 178.90 L 101.70 182.80 L 99.80 185.10 L 98.20 187.70 L 97.00 190.60 L 96.30 193.50 L 95.60 203.30 L 95.00 205.20 L 92.90 208.60 L 89.80 211.20 L 87.90 212.10 L 82.20 214.00 L 78.70 215.40 L 72.40 219.30 L 69.60 221.70 L 67.20 224.50 L 65.00 227.50 L 63.20 230.80 L 61.70 234.40 L 60.80 237.90 L 60.20 241.40 L 60.10 245.00 L 61.00 251.90 L 62.60 257.30 L 62.80 259.30 L 62.30 263.10 L 60.80 266.60 L 59.60 268.10 L 51.70 274.40 L 47.90 279.10 L 45.30 284.70 L 44.30 288.40 L 44.00 291.90 L 44.10 295.50 L 44.70 299.00 L 45.70 302.40 L 47.20 305.70 L 49.10 308.80 L 51.40 311.70 L 55.20 315.50 L 55.80 316.80 L 56.00 318.20 L 55.20 323.40 L 56.10 327.00 L 58.20 330.10 L 59.60 331.40 L 64.10 334.00 L 63.50 340.10 L 64.00 342.70 L 64.80 345.20 L 66.10 347.50 L 67.80 349.60 L 69.80 351.40 L 72.10 352.90 L 74.80 354.10 L 80.80 355.40 L 82.70 356.40 L 84.40 357.80 L 88.00 363.30 L 90.80 366.80 L 94.20 370.10 L 98.00 372.80 L 102.20 375.10 L 106.90 377.00 L 111.50 378.20 L 116.00 378.70 L 120.50 378.70 L 124.90 378.10 L 129.10 377.10 L 133.20 375.60 L 137.00 373.50 L 140.50 371.10 L 143.60 368.20 L 146.30 365.00 L 148.50 361.40 L 150.20 357.40 L 151.20 353.90 L 151.70 350.40 L 152.00 344.50 L 153.50 339.90 L 154.70 337.90 L 156.30 336.00 L 160.20 332.80 L 161.90 330.90 L 163.30 328.80 L 164.40 326.40" fill="#89cebc" fill-rule="evenodd" group-id="1" id="Fill-3" node-id="12" stroke="none" target-height="203.70001" target-width="125.3" target-x="44" target-y="175"/><path d="M 123.00 364.80 L 123.00 378.90 L 69.80 378.90 L 70.10 390.50 L 70.80 396.70 L 72.10 402.80 L 73.80 408.80 L 76.00 414.50 L 78.60 420.10 L 81.60 425.30 L 85.00 430.40 L 88.80 435.10 L 92.90 439.50 L 97.30 443.60 L 102.10 447.40 L 107.10 450.80 L 112.40 453.80 L 117.90 456.40 L 123.70 458.60 L 129.60 460.40 L 135.70 461.60 L 142.00 462.40 L 148.50 462.70 L 409.50 462.70 L 416.00 462.40 L 422.30 461.60 L 428.40 460.40 L 434.30 458.60 L 440.10 456.40 L 445.60 453.80 L 450.90 450.80 L 455.90 447.40 L 460.70 443.60 L 465.10 439.50 L 469.20 435.10 L 473.00 430.40 L 476.40 425.30 L 479.40 420.10 L 482.00 414.50 L 484.20 408.80 L 485.90 402.80 L 487.20 396.70 L 487.90 390.50 L 488.20 383.90 L 488.20 364.80 L 123.00 364.80 Z" fill="#fcfbed" fill-rule="evenodd" group-id="1" id="Fill-7" node-id="13" stroke="none" target-height="97.900024" target-width="418.40002" target-x="69.8" target-y="364.8"/><path d="M 358.20 91.80 L 357.90 91.60 L 357.90 74.30 L 358.20 74.10 L 358.40 74.30 L 358.40 91.60 L 358.20 91.80" fill="#bbd4dd" fill-rule="evenodd" group-id="1" id="Fill-9" node-id="14" stroke="none" target-height="17.700005" target-width="0.5" target-x="357.9" target-y="74.1"/><path d="M 397.10 112.30 L 358.10 91.80 L 358.00 91.50 L 358.30 91.30 L 397.20 111.90 L 397.10 112.30" fill="#bbd4dd" fill-rule="evenodd" group-id="1" id="Fill-11" node-id="15" stroke="none" target-height="21" target-width="39.200012" target-x="358" target-y="91.3"/><path d="M 319.20 112.30 L 319.10 111.90 L 358.10 91.30 L 358.40 91.50 L 358.30 91.80 L 319.20 112.30" fill="#bbd4dd" fill-rule="evenodd" group-id="1" id="Fill-13" node-id="16" stroke="none" target-height="21" target-width="39.299988" target-x="319.1" target-y="91.3"/><path d="M 358.20 74.60 L 357.90 74.40 L 358.10 74.10 L 493.10 42.60 L 561.80 74.10 L 562.00 74.40 L 561.60 74.60 L 493.10 43.20 L 358.20 74.60" fill="#bbd4dd" fill-rule="evenodd" group-id="1" id="Fill-15" node-id="17" stroke="none" target-height="32" target-width="204.1" target-x="357.9" target-y="42.6"/><path d="M 480.30 364.20 L 479.70 364.00 L 479.40 363.30 L 479.70 362.70 L 505.00 337.20 L 479.70 312.30 L 479.40 311.70 L 479.70 311.10 L 505.00 285.50 L 479.70 260.00 L 479.40 259.40 L 479.70 258.80 L 505.00 233.70 L 479.70 208.30 L 479.40 207.60 L 479.70 207.00 L 505.00 181.40 L 479.70 156.10 L 479.40 155.40 L 479.70 154.80 L 505.00 129.30 L 479.70 103.70 L 479.40 103.10 L 479.70 102.40 L 480.30 102.20 L 481.00 102.40 L 506.90 128.60 L 507.10 129.30 L 506.90 129.90 L 481.60 155.40 L 506.90 180.70 L 507.10 181.40 L 506.90 182.00 L 481.60 207.60 L 506.90 233.10 L 507.10 233.70 L 506.90 234.30 L 481.60 259.40 L 506.90 284.90 L 507.10 285.50 L 506.90 286.10 L 481.60 311.70 L 506.90 336.60 L 507.10 337.20 L 506.90 337.80 L 480.90 364.00 L 480.30 364.20" fill="#e6e6e6" fill-rule="evenodd" group-id="1" id="Fill-17" node-id="18" stroke="none" target-height="262" target-width="27.700012" target-x="479.4" target-y="102.2"/><path d="M 508.10 103.30 L 478.60 103.30 L 477.70 102.90 L 477.30 102.10 L 477.30 72.50 L 477.70 71.60 L 478.60 71.30 L 508.10 71.30 L 509.00 71.60 L 509.40 72.50 L 509.40 102.10 L 509.00 102.90 L 508.10 103.30" fill="#fcc14a" fill-rule="evenodd" group-id="1" id="Fill-19" node-id="19" stroke="none" target-height="32" target-width="32.100006" target-x="477.3" target-y="71.3"/><path d="M 481.20 362.50 L 505.30 362.50 L 505.30 103.90 L 481.40 103.90 L 481.20 362.50 Z M 506.20 364.20 L 480.30 364.20 L 479.70 364.00 L 479.40 363.30 L 479.60 103.10 L 479.80 102.40 L 480.50 102.20 L 506.20 102.20 L 506.90 102.40 L 507.10 103.10 L 507.10 363.30 L 506.90 364.00 L 506.20 364.20 Z" fill="#fcc14a" fill-rule="evenodd" group-id="1" id="Fill-21" node-id="20" stroke="none" target-height="262" target-width="27.700012" target-x="479.4" target-y="102.2"/><path d="M 506.20 364.20 L 505.60 364.00 L 479.70 337.80 L 479.40 337.20 L 479.70 336.60 L 505.00 311.70 L 479.70 286.10 L 479.40 285.50 L 479.70 284.90 L 505.00 259.40 L 479.70 234.30 L 479.40 233.70 L 479.70 233.10 L 505.00 207.60 L 479.70 182.00 L 479.40 181.40 L 479.70 180.70 L 505.00 155.40 L 479.70 129.90 L 479.40 129.30 L 479.70 128.60 L 505.60 102.40 L 506.20 102.20 L 506.90 102.40 L 507.10 103.10 L 506.90 103.70 L 481.60 129.30 L 506.90 154.80 L 507.10 155.40 L 506.90 156.10 L 481.60 181.40 L 506.90 207.00 L 507.10 207.60 L 506.90 208.30 L 481.60 233.70 L 506.90 258.80 L 507.10 259.40 L 506.90 260.00 L 481.60 285.50 L 506.90 311.10 L 507.10 311.70 L 506.90 312.30 L 481.60 337.20 L 506.90 362.70 L 507.10 363.30 L 506.90 364.00 L 506.20 364.20" fill="#fcc14a" fill-rule="evenodd" group-id="1" id="Fill-23" node-id="21" stroke="none" target-height="262" target-width="27.700012" target-x="479.4" target-y="102.2"/><path d="M 510.30 99.20 L 560.80 99.40 L 560.80 75.20 L 510.30 75.20 L 510.30 99.20 Z M 561.70 101.10 L 509.40 101.00 L 508.70 100.70 L 508.50 100.10 L 508.50 74.30 L 508.70 73.70 L 509.40 73.50 L 561.70 73.40 L 562.40 73.70 L 562.60 74.30 L 562.60 100.30 L 562.40 100.90 L 561.70 101.10 Z" fill="#fcc14a" fill-rule="evenodd" group-id="1" id="Fill-25" node-id="22" stroke="none" target-height="27.699997" target-width="54.099976" target-x="508.5" target-y="73.4"/><path d="M 535.60 101.10 L 534.90 100.90 L 508.70 75.00 L 508.50 74.30 L 508.70 73.70 L 509.40 73.50 L 510.00 73.70 L 535.60 99.00 L 561.10 73.70 L 561.70 73.40 L 562.40 73.70 L 562.60 74.30 L 562.40 75.00 L 536.20 100.90 L 535.60 101.10" fill="#fcc14a" fill-rule="evenodd" group-id="1" id="Fill-27" node-id="23" stroke="none" target-height="27.699997" target-width="54.099976" target-x="508.5" target-y="73.4"/><path d="M 366.50 75.20 L 476.40 99.20 L 476.40 75.20 L 366.50 75.20 Z M 477.30 101.10 L 358.00 75.20 L 357.50 74.90 L 357.30 74.20 L 357.60 73.70 L 358.20 73.50 L 477.30 73.40 L 478.00 73.70 L 478.20 74.30 L 478.20 100.30 L 477.90 100.90 L 477.30 101.10 Z" fill="#fcc14a" fill-rule="evenodd" group-id="1" id="Fill-29" node-id="24" stroke="none" target-height="27.699997" target-width="120.900024" target-x="357.3" target-y="73.4"/><path d="M 455.80 96.50 L 455.20 96.20 L 434.00 75.50 L 421.10 88.50 L 420.50 88.70 L 419.90 88.50 L 407.40 75.90 L 399.60 83.70 L 399.00 83.90 L 398.40 83.70 L 390.60 75.90 L 385.90 80.70 L 385.30 80.90 L 384.60 80.70 L 379.70 75.70 L 376.70 78.80 L 376.00 79.10 L 375.40 78.80 L 372.20 75.60 L 370.40 77.50 L 369.70 77.70 L 369.10 77.50 L 368.80 76.90 L 369.10 76.20 L 371.60 73.70 L 372.20 73.50 L 372.80 73.70 L 376.00 76.90 L 379.10 73.90 L 379.70 73.60 L 380.40 73.90 L 385.30 78.80 L 390.00 74.00 L 390.60 73.80 L 391.20 74.00 L 399.00 81.80 L 406.70 74.10 L 407.40 73.80 L 408.00 74.10 L 420.50 86.60 L 433.40 73.70 L 434.00 73.40 L 434.70 73.70 L 455.80 94.30 L 476.70 73.70 L 477.30 73.40 L 478.00 73.70 L 478.20 74.30 L 478.00 75.00 L 456.40 96.20 L 455.80 96.50" fill="#fcc14a" fill-rule="evenodd" group-id="1" id="Fill-31" node-id="25" stroke="none" target-height="23.099998" target-width="109.400024" target-x="368.8" target-y="73.4"/><path d="M 481.60 85.10 L 504.70 85.10 L 504.70 82.60 L 481.60 82.60 Z" fill="#0d232b" fill-rule="evenodd" group-id="1" id="Fill-33" node-id="26" stroke="none" target-height="2.5" target-width="23.100006" target-x="481.6" target-y="82.6"/><path d="M 480.30 72.20 L 479.50 71.60 L 479.50 70.90 L 492.30 42.50 L 493.10 42.00 L 494.00 42.50 L 507.00 70.90 L 507.10 71.60 L 506.60 72.10 L 505.90 72.10 L 505.40 71.70 L 493.20 45.00 L 481.10 71.60 L 480.30 72.20" fill="#fcc14a" fill-rule="evenodd" group-id="1" id="Fill-35" node-id="27" stroke="none" target-height="30.199997" target-width="27.600006" target-x="479.5" target-y="42"/><path d="M 384.30 117.80 L 382.80 118.20 L 381.50 119.00 L 380.70 120.30 L 380.30 121.80 L 380.70 123.40 L 381.50 124.60 L 382.80 125.50 L 384.30 125.80 L 385.90 125.50 L 387.10 124.60 L 388.00 123.40 L 388.30 121.80 L 388.00 120.30 L 387.10 119.00 L 385.90 118.20 L 384.30 117.80 Z M 366.60 117.80 L 365.00 118.20 L 363.70 119.00 L 362.90 120.30 L 362.60 121.80 L 362.90 123.40 L 363.70 124.60 L 365.00 125.50 L 366.60 125.80 L 368.10 125.50 L 369.40 124.60 L 370.20 123.40 L 370.50 121.80 L 370.20 120.30 L 369.40 119.00 L 368.10 118.20 L 366.60 117.80 Z M 348.80 117.80 L 347.20 118.20 L 346.00 119.00 L 345.10 120.30 L 344.80 121.80 L 345.10 123.40 L 346.00 124.60 L 347.20 125.50 L 348.80 125.80 L 350.40 125.50 L 351.60 124.60 L 352.50 123.40 L 352.80 121.80 L 352.50 120.30 L 351.60 119.00 L 350.40 118.20 L 348.80 117.80 Z M 331.00 117.80 L 329.50 118.20 L 328.20 119.00 L 327.40 120.30 L 327.00 121.80 L 327.40 123.40 L 328.20 124.60 L 329.50 125.50 L 331.00 125.80 L 332.60 125.50 L 333.80 124.60 L 334.70 123.40 L 335.00 121.80 L 334.70 120.30 L 333.80 119.00 L 332.60 118.20 L 331.00 117.80 Z M 319.20 131.60 L 397.50 131.60 L 397.50 112.10 L 319.20 112.10 L 319.20 131.60 Z" fill="#f29d7e" fill-rule="evenodd" group-id="1" id="Fill-36" node-id="28" stroke="none" target-height="19.500008" target-width="78.29999" target-x="319.2" target-y="112.1"/><path d="M 472.30 311.30 L 472.60 308.90 L 472.30 306.60 L 471.50 304.30 L 469.30 300.70 L 468.90 299.00 L 469.10 297.30 L 471.50 293.00 L 472.60 290.10 L 472.90 287.30 L 472.80 284.60 L 472.10 282.00 L 471.00 279.50 L 469.40 277.30 L 466.00 273.40 L 465.20 271.50 L 465.10 268.90 L 466.20 265.70 L 466.40 263.20 L 466.10 260.90 L 465.20 258.70 L 463.90 256.70 L 462.10 254.90 L 458.50 252.40 L 457.00 250.30 L 456.80 247.80 L 458.90 242.90 L 459.20 240.30 L 458.90 237.80 L 458.10 235.40 L 456.80 233.20 L 455.10 231.30 L 452.90 229.50 L 450.40 228.10 L 447.50 227.00 L 443.30 226.00 L 442.60 225.40 L 442.20 224.70 L 442.40 218.80 L 442.00 216.50 L 441.10 214.20 L 439.40 211.40 L 437.20 208.90 L 434.30 206.60 L 431.10 204.90 L 427.40 203.50 L 423.20 202.70 L 419.20 202.50 L 415.30 202.80 L 411.60 203.70 L 408.10 205.10 L 405.00 206.90 L 402.20 209.00 L 400.40 210.90 L 397.90 215.00 L 396.80 219.50 L 397.40 226.20 L 397.00 228.50 L 396.00 230.60 L 394.40 232.50 L 392.40 234.00 L 383.70 238.10 L 378.60 241.80 L 374.50 246.30 L 371.70 251.50 L 370.40 257.10 L 370.60 262.50 L 372.20 267.60 L 374.40 272.20 L 374.70 274.40 L 374.50 276.60 L 373.70 278.60 L 372.30 280.50 L 367.40 284.80 L 365.00 287.60 L 363.60 289.60 L 361.90 294.20 L 361.50 297.00 L 361.60 299.70 L 362.10 302.40 L 363.00 304.90 L 364.30 307.40 L 366.10 309.70 L 368.10 311.80 L 374.20 316.10 L 374.90 317.00 L 375.20 318.00 L 375.20 322.00 L 375.60 323.40 L 376.80 325.20 L 378.60 326.70 L 380.70 327.90 L 384.30 328.90 L 384.40 333.60 L 385.10 335.50 L 387.50 338.80 L 389.20 340.20 L 393.50 342.20 L 396.00 342.80 L 401.50 343.10 L 403.30 343.60 L 404.90 344.40 L 408.70 348.10 L 411.60 350.40 L 415.10 352.50 L 418.70 354.10 L 422.70 355.40 L 427.10 356.20 L 431.30 356.50 L 435.30 356.40 L 439.30 355.90 L 443.20 354.90 L 446.90 353.60 L 450.30 352.00 L 453.50 350.00 L 456.30 347.70 L 458.70 345.30 L 460.70 342.50 L 462.30 339.50 L 463.30 336.40 L 463.90 330.90 L 463.40 326.40 L 464.20 322.80 L 466.30 319.60 L 469.90 316.10 L 471.40 313.90 L 472.30 311.30" fill="#89cebc" fill-rule="evenodd" group-id="1" id="Fill-37" node-id="29" stroke="none" target-height="154" target-width="111.399994" target-x="361.5" target-y="202.5"/><path d="M 515.20 363.50 L 425.80 363.50 L 424.60 364.00 L 424.10 365.20 L 424.60 366.50 L 425.80 367.00 L 515.20 367.00 L 516.40 366.50 L 516.90 365.20 L 516.40 364.00 L 515.20 363.50" fill="#9fd4e0" fill-rule="evenodd" group-id="1" id="Fill-39" node-id="30" stroke="none" target-height="3.5" target-width="92.80002" target-x="424.1" target-y="363.5"/><path d="M 128.00 377.20 L 38.60 377.20 L 37.40 377.70 L 36.90 378.90 L 37.40 380.10 L 38.60 380.60 L 128.00 380.60 L 129.20 380.10 L 129.70 378.90 L 129.20 377.70 L 128.00 377.20" fill="#9fd4e0" fill-rule="evenodd" group-id="1" id="Fill-40" node-id="31" stroke="none" target-height="3.399994" target-width="92.799995" target-x="36.9" target-y="377.2"/><path d="M 171.10 390.70 L 170.80 391.20 L 169.70 391.80 L 162.20 393.30 L 148.10 394.30 L 139.40 394.50 L 130.80 394.30 L 116.60 393.30 L 112.00 392.60 L 109.20 391.80 L 108.00 391.20 L 107.70 390.70 L 108.00 390.20 L 109.20 389.50 L 116.60 388.10 L 130.80 387.10 L 139.40 386.90 L 148.10 387.10 L 162.20 388.10 L 169.70 389.50 L 170.80 390.20 L 171.10 390.70" fill="#9fd4e0" fill-rule="evenodd" group-id="1" id="Fill-41" node-id="32" stroke="none" target-height="7.600006" target-width="63.40001" target-x="107.7" target-y="386.9"/><path d="M 416.20 376.00 L 131.20 376.00 L 127.50 375.70 L 124.00 374.70 L 120.80 373.20 L 117.90 371.20 L 115.50 368.70 L 113.40 365.80 L 111.90 362.60 L 110.90 359.10 L 110.60 355.40 L 110.60 167.90 L 110.90 164.10 L 111.90 160.70 L 113.40 157.50 L 115.50 154.60 L 117.90 152.10 L 120.80 150.10 L 124.00 148.50 L 127.50 147.60 L 131.20 147.20 L 416.20 147.20 L 420.00 147.60 L 423.40 148.50 L 426.60 150.10 L 429.50 152.10 L 432.00 154.60 L 434.00 157.50 L 435.50 160.70 L 436.50 164.10 L 436.80 167.90 L 436.80 355.40 L 436.50 359.10 L 435.50 362.60 L 434.00 365.80 L 432.00 368.70 L 429.50 371.20 L 426.60 373.20 L 423.40 374.70 L 420.00 375.70 L 416.20 376.00" fill="#d8dfe2" fill-rule="evenodd" group-id="1" id="Fill-42" node-id="33" stroke="none" target-height="228.8" target-width="326.19998" target-x="110.6" target-y="147.2"/><path d="M 413.60 380.00 L 129.60 380.00 L 126.50 379.80 L 121.00 378.30 L 118.50 377.00 L 115.50 374.80 L 112.90 372.20 L 110.70 369.20 L 109.40 366.70 L 107.90 361.20 L 107.70 358.10 L 107.70 170.50 L 107.90 167.50 L 109.40 162.00 L 110.70 159.50 L 112.90 156.40 L 115.50 153.80 L 118.50 151.70 L 121.00 150.40 L 126.50 148.90 L 129.60 148.70 L 413.60 148.70 L 416.60 148.90 L 422.10 150.40 L 424.60 151.70 L 427.70 153.80 L 430.30 156.40 L 432.40 159.50 L 433.70 162.00 L 435.20 167.50 L 435.40 170.50 L 435.40 358.10 L 435.20 361.20 L 433.70 366.70 L 432.40 369.20 L 430.30 372.20 L 427.70 374.80 L 424.60 377.00 L 422.10 378.30 L 416.60 379.80 L 413.60 380.00" fill="#0c252e" fill-rule="evenodd" group-id="1" id="Fill-43" node-id="34" stroke="none" target-height="231.3" target-width="327.7" target-x="107.7" target-y="148.7"/><path d="M 416.10 377.50 L 128.60 377.50 L 125.10 377.20 L 121.90 376.30 L 118.90 374.90 L 116.10 372.90 L 113.80 370.60 L 111.90 367.90 L 110.50 364.90 L 109.60 361.70 L 109.30 358.10 L 109.30 168.10 L 109.60 164.60 L 110.50 161.30 L 111.90 158.30 L 113.80 155.60 L 116.10 153.30 L 118.90 151.40 L 121.90 149.90 L 125.10 149.00 L 128.60 148.70 L 416.10 148.70 L 419.70 149.00 L 422.90 149.90 L 425.90 151.40 L 428.60 153.30 L 430.90 155.60 L 432.90 158.30 L 434.30 161.30 L 435.20 164.60 L 435.50 168.10 L 435.50 358.10 L 435.20 361.70 L 434.30 364.90 L 432.90 367.90 L 430.90 370.60 L 428.60 372.90 L 425.90 374.90 L 422.90 376.30 L 419.70 377.20 L 416.10 377.50" fill="#184657" fill-rule="evenodd" group-id="1" id="Fill-44" node-id="35" stroke="none" target-height="228.8" target-width="326.2" target-x="109.3" target-y="148.7"/><path d="M 130.40 372.40 L 414.30 372.40 L 414.30 153.80 L 130.40 153.80 Z" fill="#ffffff" fill-rule="evenodd" group-id="1" id="Fill-45" node-id="36" stroke="none" target-height="218.59999" target-width="283.9" target-x="130.4" target-y="153.8"/><path d="M 131.00 371.80 L 413.70 371.80 L 413.70 154.40 L 131.00 154.40 L 131.00 371.80 Z M 129.90 373.00 L 414.90 373.00 L 414.90 153.30 L 129.90 153.30 L 129.90 373.00 Z" fill="#000000" fill-rule="evenodd" group-id="1" id="Fill-46" node-id="37" stroke="none" target-height="219.7" target-width="285" target-x="129.9" target-y="153.3"/><path d="M 424.20 269.80 L 423.40 269.50 L 423.00 268.60 L 423.00 253.00 L 423.70 251.90 L 424.60 251.90 L 425.40 253.00 L 425.40 268.60 L 425.00 269.50 L 424.20 269.80" fill="#035e80" fill-rule="evenodd" group-id="1" id="Fill-47" node-id="38" stroke="none" target-height="17.899994" target-width="2.399994" target-x="423" target-y="251.9"/><path d="M 122.30 260.80 L 122.10 261.60 L 121.20 262.60 L 119.80 262.60 L 118.90 261.60 L 118.90 260.00 L 119.80 259.00 L 121.20 259.00 L 122.10 260.00 L 122.30 260.80" fill="#000000" fill-rule="evenodd" group-id="1" id="Fill-48" node-id="39" stroke="none" target-height="3.600006" target-width="3.4000015" target-x="118.9" target-y="259"/><path d="M 149.10 275.70 L 395.40 275.70 L 395.40 178.60 L 149.10 178.60 Z" fill="#feebc3" fill-rule="evenodd" group-id="1" id="Fill-49" node-id="40" stroke="none" target-height="97.100006" target-width="246.29999" target-x="149.1" target-y="178.6"/><path d="M 311.10 290.30 L 395.60 290.30 L 395.60 285.00 L 311.10 285.00 Z" fill="#184657" fill-rule="evenodd" group-id="1" id="Fill-96" node-id="41" stroke="none" target-height="5.299988" target-width="84.5" target-x="311.1" target-y="285"/><path d="M 149.10 178.60 L 187.10 178.60 L 187.10 169.90 L 149.10 169.90 Z" fill="#184657" fill-rule="evenodd" group-id="1" id="Fill-97" node-id="42" stroke="none" target-height="8.700012" target-width="38" target-x="149.1" target-y="169.9"/><path d="M 187.10 178.60 L 246.70 178.60 L 246.70 169.90 L 187.10 169.90 Z" fill="#035e80" fill-rule="evenodd" group-id="1" id="Fill-98" node-id="43" stroke="none" target-height="8.700012" target-width="59.59999" target-x="187.1" target-y="169.9"/><g node-id="237"><path d="M 269.90 272.40 L 173.20 261.50 L 171.60 261.00 L 170.20 260.30 L 169.00 259.10 L 168.20 257.80 L 167.70 256.20 L 167.70 254.50 L 170.70 228.10 L 171.10 226.40 L 171.90 225.10 L 173.00 223.90 L 174.40 223.10 L 175.90 222.60 L 177.60 222.60 L 274.30 233.50 L 276.00 234.00 L 277.30 234.70 L 278.50 235.80 L 279.30 237.20 L 279.80 238.80 L 279.80 240.50 L 276.80 266.90 L 276.40 268.50 L 275.60 269.90 L 274.50 271.10 L 273.10 271.90 L 271.60 272.40 L 269.90 272.40" fill="#060606" fill-opacity="0.07" fill-rule="evenodd" group-id="1,2" id="Fill-99" node-id="44" stroke="none" target-height="49.799988" target-width="112.09999" target-x="167.7" target-y="222.6"/></g><path d="M 266.10 266.50 L 166.70 249.00 L 164.90 248.40 L 163.30 247.40 L 162.10 246.00 L 161.30 244.40 L 160.80 242.70 L 160.90 240.70 L 165.30 216.20 L 165.90 214.30 L 166.80 212.80 L 168.20 211.60 L 169.80 210.70 L 171.60 210.30 L 173.50 210.40 L 273.00 228.00 L 274.80 228.50 L 276.30 229.50 L 277.50 230.90 L 278.40 232.50 L 278.80 234.30 L 278.70 236.20 L 274.40 260.80 L 273.80 262.60 L 272.80 264.10 L 271.40 265.30 L 269.80 266.20 L 268.10 266.60 L 266.10 266.50" fill="#ffffff" fill-rule="evenodd" group-id="1" id="Fill-100" node-id="45" stroke="none" target-height="56.300003" target-width="117.999985" target-x="160.8" target-y="210.3"/><path d="M 267.10 267.50 L 166.30 249.70 L 164.60 249.20 L 163.30 248.30 L 162.20 247.10 L 161.40 245.60 L 161.00 244.00 L 161.10 242.20 L 165.70 216.40 L 166.20 214.70 L 167.10 213.30 L 168.30 212.20 L 169.80 211.40 L 171.40 211.10 L 173.10 211.20 L 273.90 228.90 L 275.60 229.50 L 276.90 230.40 L 278.00 231.60 L 278.80 233.10 L 279.20 234.60 L 279.10 236.40 L 274.50 262.30 L 274.00 263.90 L 273.10 265.30 L 271.90 266.40 L 270.40 267.20 L 268.80 267.60 L 267.10 267.50" fill="#e85f5b" fill-rule="evenodd" group-id="1" id="Fill-101" node-id="46" stroke="none" target-height="56.5" target-width="118.20001" target-x="161" target-y="211.1"/><path d="M 180.90 294.60 L 174.90 315.70 L 155.30 325.30 L 154.10 322.30 L 153.30 319.10 L 153.00 315.70 L 153.30 312.70 L 154.80 307.20 L 156.00 304.60 L 158.20 301.60 L 160.80 299.00 L 163.90 296.80 L 169.10 294.60 L 174.90 293.80 L 178.00 294.00 L 180.90 294.60" fill="#184657" fill-rule="evenodd" group-id="1" id="Fill-102" node-id="47" stroke="none" target-height="31.5" target-width="27.899994" target-x="153" target-y="293.8"/><path d="M 174.90 315.70 L 196.80 315.70 L 174.90 315.70" fill="#f29d7e" fill-rule="evenodd" group-id="1" id="Fill-103" node-id="48" stroke="none" target-height="0" target-width="21.90001" target-x="174.9" target-y="315.7"/><path d="M 192.30 302.40 L 174.90 315.70 L 180.90 294.60 L 184.30 295.90 L 187.30 297.60 L 190.00 299.80 L 192.30 302.40" fill="#faf8dc" fill-rule="evenodd" group-id="1" id="Fill-104" node-id="49" stroke="none" target-height="21.100006" target-width="17.40001" target-x="174.9" target-y="294.6"/><path d="M 196.80 315.70 L 174.90 315.70 L 192.30 302.40 L 194.20 305.30 L 195.60 308.50 L 196.50 312.00 L 196.80 315.70" fill="#fcc14a" fill-rule="evenodd" group-id="1" id="Fill-105" node-id="50" stroke="none" target-height="13.300018" target-width="21.90001" target-x="174.9" target-y="302.4"/><path d="M 196.80 315.80 L 196.50 319.40 L 195.60 322.80 L 174.90 315.70 L 196.80 315.80" fill="#7ac4b2" fill-rule="evenodd" group-id="1" id="Fill-106" node-id="51" stroke="none" target-height="7.0999756" target-width="21.90001" target-x="174.9" target-y="315.7"/><path d="M 195.60 322.80 L 194.50 325.60 L 192.90 328.10 L 191.10 330.50 L 188.90 332.50 L 186.60 334.20 L 183.90 335.70 L 181.10 336.70 L 178.10 337.30 L 174.90 337.60 L 172.10 337.40 L 166.80 336.00 L 164.30 334.80 L 160.00 331.70 L 156.60 327.70 L 155.30 325.30 L 174.90 315.70 L 195.60 322.80 Z" fill="#ed6d53" fill-rule="evenodd" group-id="1" id="Fill-107" node-id="52" stroke="none" target-height="21.899994" target-width="40.300003" target-x="155.3" target-y="315.7"/><g node-id="238"><path d="M 289.30 148.70 L 127.60 148.70 L 124.30 149.10 L 121.20 150.00 L 118.40 151.50 L 115.80 153.50 L 113.60 156.00 L 111.80 158.90 L 110.40 162.00 L 109.60 165.40 L 109.30 169.20 L 109.30 357.00 L 109.60 360.80 L 110.40 364.20 L 111.80 367.40 L 113.60 370.30 L 115.80 372.70 L 118.40 374.70 L 121.20 376.20 L 124.30 377.20 L 127.60 377.50 L 145.70 377.50 L 289.30 148.70 Z" fill="#ffffff" fill-opacity="0.3" fill-rule="evenodd" group-id="1,3" id="Fill-108" node-id="53" stroke="none" target-height="228.8" target-width="179.99998" target-x="109.3" target-y="148.7"/></g><path d="M 256.70 243.40 L 185.30 230.80 L 185.80 228.20 L 257.20 240.80 Z" fill="#ffffff" fill-rule="evenodd" group-id="1" id="Fill-109" node-id="54" stroke="none" target-height="15.199997" target-width="71.90001" target-x="185.3" target-y="228.2"/><path d="M 244.50 248.50 L 195.30 239.90 L 195.80 237.20 L 244.90 245.90 Z" fill="#ffffff" fill-rule="evenodd" group-id="1" id="Fill-110" node-id="55" stroke="none" target-height="11.300003" target-width="49.59999" target-x="195.3" target-y="237.2"/><path d="M 226.40 293.80 L 226.40 298.70 L 223.30 299.00 L 220.50 299.80 L 217.90 301.10 L 215.50 302.70 L 213.50 304.80 L 211.80 307.10 L 210.50 309.80 L 209.80 312.60 L 209.50 315.70 L 210.10 320.20 L 210.80 322.30 L 212.40 325.10 L 214.40 327.60 L 210.90 331.10 L 207.50 326.70 L 206.20 324.20 L 204.70 318.70 L 204.50 315.70 L 204.80 312.70 L 206.20 307.20 L 207.50 304.60 L 209.70 301.60 L 212.30 299.00 L 215.40 296.80 L 220.60 294.60 L 226.40 293.80" fill="#f9d4d3" fill-rule="evenodd" group-id="1" id="Fill-112" node-id="56" stroke="none" target-height="37.30002" target-width="21.899994" target-x="204.5" target-y="293.8"/><path d="M 248.30 315.70 L 247.50 321.60 L 245.30 326.70 L 243.20 329.80 L 240.60 332.40 L 237.50 334.60 L 235.00 335.90 L 229.50 337.40 L 226.40 337.60 L 223.40 337.40 L 217.90 335.90 L 215.30 334.60 L 210.90 331.10 L 214.40 327.60 L 216.90 329.70 L 219.80 331.30 L 221.90 332.00 L 226.40 332.60 L 229.50 332.30 L 232.40 331.60 L 235.00 330.30 L 237.40 328.60 L 239.40 326.60 L 241.10 324.20 L 242.30 321.60 L 243.10 318.80 L 243.40 315.70 L 243.10 312.60 L 242.30 309.80 L 241.10 307.10 L 239.40 304.80 L 237.40 302.70 L 235.00 301.10 L 232.40 299.80 L 229.50 299.00 L 226.40 298.70 L 226.40 293.80 L 229.50 294.00 L 235.00 295.50 L 237.50 296.80 L 240.60 299.00 L 243.20 301.60 L 245.30 304.60 L 246.60 307.20 L 248.10 312.70 L 248.30 315.70" fill="#e85f5b" fill-rule="evenodd" group-id="1" id="Fill-113" node-id="57" stroke="none" target-height="43.80002" target-width="37.40001" target-x="210.9" target-y="293.8"/><path d="M 243.40 315.70 L 243.10 318.80 L 242.30 321.60 L 241.10 324.20 L 239.40 326.60 L 237.40 328.60 L 235.00 330.30 L 232.40 331.60 L 229.50 332.30 L 226.40 332.60 L 224.10 332.50 L 219.80 331.30 L 216.90 329.70 L 214.40 327.60 L 212.40 325.10 L 210.80 322.30 L 209.60 318.00 L 209.50 315.70 L 209.80 312.60 L 210.50 309.80 L 211.80 307.10 L 213.50 304.80 L 215.50 302.70 L 217.90 301.10 L 220.50 299.80 L 223.30 299.00 L 226.40 298.70 L 229.50 299.00 L 232.40 299.80 L 235.00 301.10 L 237.40 302.70 L 239.40 304.80 L 241.10 307.10 L 242.30 309.80 L 243.10 312.60 L 243.40 315.70" fill="#faf8dc" fill-rule="evenodd" group-id="1" id="Fill-114" node-id="58" stroke="none" target-height="33.899994" target-width="33.899994" target-x="209.5" target-y="298.7"/><path d="M 294.90 328.70 L 292.70 331.30 L 290.20 333.40 L 287.30 335.20 L 284.20 336.50 L 280.90 337.30 L 277.30 337.60 L 271.50 336.80 L 266.30 334.60 L 263.20 332.40 L 260.60 329.80 L 258.40 326.70 L 256.20 321.60 L 255.40 315.70 L 256.20 309.80 L 258.40 304.60 L 260.60 301.60 L 263.20 299.00 L 266.30 296.80 L 268.80 295.50 L 274.30 294.00 L 277.30 293.80 L 277.30 298.70 L 274.20 299.00 L 271.40 299.80 L 268.80 301.10 L 266.40 302.70 L 264.40 304.80 L 262.70 307.10 L 261.50 309.80 L 260.70 312.60 L 260.40 315.70 L 260.60 318.00 L 261.70 322.30 L 263.30 325.10 L 265.30 327.60 L 267.80 329.70 L 270.70 331.30 L 275.00 332.50 L 280.10 332.40 L 282.70 331.80 L 285.10 330.80 L 287.30 329.40 L 290.90 325.80 L 294.90 328.70 Z" fill="#b3dfd4" fill-rule="evenodd" group-id="1" id="Fill-115" node-id="59" stroke="none" target-height="43.80002" target-width="39.5" target-x="255.4" target-y="293.8"/><path d="M 299.20 315.70 L 298.90 319.30 L 298.10 322.70 L 296.70 325.90 L 294.90 328.70 L 290.90 325.80 L 292.40 323.60 L 293.40 321.10 L 294.10 318.50 L 294.30 315.70 L 294.00 312.60 L 293.20 309.80 L 292.00 307.10 L 290.30 304.80 L 288.30 302.70 L 285.90 301.10 L 283.30 299.80 L 280.40 299.00 L 277.30 298.70 L 277.30 293.80 L 280.40 294.00 L 285.90 295.50 L 288.40 296.80 L 291.50 299.00 L 294.10 301.60 L 296.20 304.60 L 297.50 307.20 L 299.00 312.70 L 299.20 315.70" fill="#41b093" fill-rule="evenodd" group-id="1" id="Fill-116" node-id="60" stroke="none" target-height="34.900024" target-width="21.900024" target-x="277.3" target-y="293.8"/><path d="M 294.30 315.70 L 294.10 318.50 L 293.40 321.10 L 292.40 323.60 L 290.90 325.80 L 289.20 327.70 L 285.10 330.80 L 282.70 331.80 L 280.10 332.40 L 277.30 332.60 L 275.00 332.50 L 270.70 331.30 L 267.80 329.70 L 265.30 327.60 L 263.30 325.10 L 261.70 322.30 L 260.60 318.00 L 260.40 315.70 L 260.70 312.60 L 261.50 309.80 L 262.70 307.10 L 264.40 304.80 L 266.40 302.70 L 268.80 301.10 L 271.40 299.80 L 274.20 299.00 L 277.30 298.70 L 280.40 299.00 L 283.30 299.80 L 285.90 301.10 L 288.30 302.70 L 290.30 304.80 L 292.00 307.10 L 293.20 309.80 L 294.00 312.60 L 294.30 315.70" fill="#faf8dc" fill-rule="evenodd" group-id="1" id="Fill-117" node-id="61" stroke="none" target-height="33.899994" target-width="33.899994" target-x="260.4" target-y="298.7"/><path d="M 348.90 394.90 L 349.60 385.00 L 350.70 379.10 L 353.70 367.10 L 358.10 354.40 L 360.70 348.30 L 366.80 336.40 L 370.10 331.10 L 373.70 326.20 L 377.60 321.60 L 381.60 317.80 L 385.70 314.70 L 389.00 312.80 L 392.30 311.50 L 395.60 310.70 L 399.00 310.40 L 402.40 310.70 L 405.70 311.50 L 409.00 312.80 L 412.30 314.70 L 416.40 317.80 L 420.40 321.60 L 424.30 326.20 L 427.90 331.10 L 431.20 336.40 L 437.30 348.30 L 439.90 354.40 L 444.30 367.10 L 447.30 379.10 L 448.40 385.00 L 449.10 394.90 L 348.90 394.90 Z" fill="#41b093" fill-rule="evenodd" group-id="1" id="Fill-118" node-id="62" stroke="none" target-height="84.5" target-width="100.20001" target-x="348.9" target-y="310.4"/><path d="M 311.10 345.80 L 395.60 345.80 L 395.60 306.30 L 311.10 306.30 Z" fill="#c0e3eb" fill-rule="evenodd" group-id="1" id="Fill-119" node-id="63" stroke="none" target-height="39.5" target-width="84.5" target-x="311.1" target-y="306.3"/><path d="M 348.90 394.90 L 349.60 385.00 L 350.70 379.10 L 353.70 367.10 L 358.10 354.40 L 360.70 348.30 L 366.80 336.40 L 370.10 331.10 L 373.70 326.20 L 377.60 321.60 L 381.60 317.80 L 385.70 314.70 L 389.00 312.80 L 392.30 311.50 L 395.60 310.70 L 399.00 310.40 L 402.40 310.70 L 405.70 311.50 L 409.00 312.80 L 412.30 314.70 L 416.40 317.80 L 420.40 321.60 L 424.30 326.20 L 427.90 331.10 L 431.20 336.40 L 437.30 348.30 L 439.90 354.40 L 444.30 367.10 L 447.30 379.10 L 448.40 385.00 L 449.10 394.90 L 348.90 394.90 Z" fill="#ed6d53" fill-rule="evenodd" group-id="1" id="Fill-120" node-id="64" stroke="none" target-height="84.5" target-width="100.20001" target-x="348.9" target-y="310.4"/><path d="M 413.50 315.60 L 404.90 321.60 L 402.30 320.00 L 399.10 319.40 L 396.80 319.70 L 394.80 320.60 L 393.00 321.90 L 391.70 323.70 L 390.80 325.70 L 390.50 328.00 L 391.10 331.30 L 358.00 354.70 L 354.40 364.80 L 395.40 335.80 L 397.20 336.50 L 399.10 336.70 L 401.50 336.40 L 403.50 335.50 L 405.20 334.10 L 406.60 332.40 L 407.50 330.40 L 407.70 327.20 L 418.40 319.60 L 413.50 315.60" fill="#cbc7ff" fill-rule="evenodd" group-id="1" id="Fill-121" node-id="65" stroke="none" target-height="49.19998" target-width="64" target-x="354.4" target-y="315.6"/><path d="M 495.50 262.30 L 308.00 394.40 L 306.90 394.90 L 305.70 394.90 L 304.60 394.50 L 303.70 393.60 L 303.20 392.50 L 303.20 391.30 L 303.60 390.20 L 304.40 389.30 L 491.90 257.20 L 493.00 256.70 L 494.20 256.70 L 495.30 257.10 L 496.20 258.00 L 496.70 259.10 L 496.70 260.30 L 496.30 261.40 L 495.50 262.30" fill="#e85f5b" fill-rule="evenodd" group-id="1" id="Fill-122" node-id="66" stroke="none" target-height="138.19998" target-width="193.5" target-x="303.2" target-y="256.7"/><path d="M 407.80 326.60 L 407.50 328.90 L 406.60 331.00 L 405.20 332.70 L 403.50 334.10 L 401.50 334.90 L 399.10 335.20 L 396.80 334.90 L 394.80 334.10 L 393.00 332.70 L 391.70 331.00 L 390.80 328.90 L 390.50 326.60 L 390.80 324.30 L 391.70 322.20 L 393.00 320.50 L 394.80 319.20 L 396.80 318.30 L 399.10 318.00 L 401.50 318.30 L 403.50 319.20 L 405.20 320.50 L 406.60 322.20 L 407.50 324.30 L 407.80 326.60" fill="#faf8dc" fill-rule="evenodd" group-id="1" id="Fill-123" node-id="67" stroke="none" target-height="17.200012" target-width="17.299988" target-x="390.5" target-y="318"/><path d="M 404.70 327.90 L 404.40 329.40 L 403.00 331.80 L 400.60 333.20 L 399.10 333.50 L 396.40 332.70 L 394.40 330.70 L 393.80 329.40 L 393.60 327.90 L 394.40 325.20 L 396.40 323.20 L 399.10 322.40 L 400.60 322.60 L 403.00 324.10 L 404.40 326.50 L 404.70 327.90" fill="#cbc7ff" fill-rule="evenodd" group-id="1" id="Fill-124" node-id="68" stroke="none" target-height="11.100006" target-width="11.100006" target-x="393.6" target-y="322.4"/><path d="M 404.70 326.60 L 404.40 328.10 L 403.00 330.50 L 400.60 331.90 L 399.10 332.10 L 397.60 331.90 L 395.20 330.50 L 393.80 328.10 L 393.60 326.60 L 393.80 325.10 L 395.20 322.70 L 397.60 321.30 L 399.10 321.10 L 400.60 321.30 L 403.00 322.70 L 404.40 325.10 L 404.70 326.60" fill="#ed6d53" fill-rule="evenodd" group-id="1" id="Fill-125" node-id="69" stroke="none" target-height="11" target-width="11.100006" target-x="393.6" target-y="321.1"/><path d="M 166.10 390.00 L 164.90 389.10 L 158.90 387.80 L 147.40 387.00 L 140.30 386.90 L 133.30 387.00 L 121.80 387.80 L 115.70 389.10 L 114.50 390.00 L 116.40 391.30 L 123.30 392.50 L 140.30 393.30 L 157.40 392.50 L 164.30 391.30 L 166.10 390.00" fill="#41b093" fill-rule="evenodd" group-id="1" id="Fill-126" node-id="70" stroke="none" target-height="6.399994" target-width="51.600006" target-x="114.5" target-y="386.9"/><path d="M 166.10 390.00 L 164.90 389.10 L 158.90 387.80 L 147.40 387.00 L 140.30 386.90 L 133.30 387.00 L 121.80 387.80 L 115.70 389.10 L 114.50 390.00 L 116.40 391.30 L 123.30 392.50 L 140.30 393.30 L 157.40 392.50 L 164.30 391.30 L 166.10 390.00" fill="#cbc7ff" fill-rule="evenodd" group-id="1" id="Fill-127" node-id="71" stroke="none" target-height="6.399994" target-width="51.600006" target-x="114.5" target-y="386.9"/><path d="M 114.50 377.30 L 114.50 389.80 L 114.80 390.20 L 118.10 391.40 L 121.80 392.00 L 133.30 392.80 L 140.30 392.90 L 147.40 392.80 L 158.90 392.00 L 162.60 391.40 L 165.90 390.20 L 166.10 389.80 L 166.10 377.30 L 114.50 377.30 Z" fill="#7ac4b2" fill-rule="evenodd" group-id="1" id="Fill-128" node-id="72" stroke="none" target-height="15.600006" target-width="51.600006" target-x="114.5" target-y="377.3"/><path d="M 166.10 377.30 L 164.90 378.30 L 158.90 379.50 L 147.40 380.30 L 140.30 380.40 L 133.30 380.30 L 121.80 379.50 L 115.70 378.30 L 114.50 377.30 L 115.70 376.40 L 121.80 375.20 L 133.30 374.40 L 140.30 374.30 L 147.40 374.40 L 158.90 375.20 L 164.90 376.40 L 166.10 377.30" fill="#afdcd1" fill-rule="evenodd" group-id="1" id="Fill-129" node-id="73" stroke="none" target-height="6.100006" target-width="51.600006" target-x="114.5" target-y="374.3"/><path d="M 165.70 377.10 L 164.50 378.00 L 158.60 379.20 L 147.30 380.00 L 140.30 380.10 L 133.40 380.00 L 122.10 379.20 L 118.40 378.60 L 115.20 377.50 L 115.00 377.10 L 115.20 376.60 L 116.10 376.10 L 122.10 375.00 L 133.40 374.20 L 140.30 374.00 L 147.30 374.20 L 158.60 375.00 L 164.50 376.10 L 165.70 377.10" fill="#8ecdbd" fill-rule="evenodd" group-id="1" id="Fill-130" node-id="74" stroke="none" target-height="6.100006" target-width="50.699997" target-x="115" target-y="374"/><path d="M 165.70 377.10 L 164.50 378.00 L 158.60 379.20 L 147.30 380.00 L 140.30 380.10 L 133.40 380.00 L 122.10 379.20 L 118.40 378.60 L 115.20 377.50 L 115.00 377.10 L 115.20 376.60 L 116.10 376.10 L 122.10 375.00 L 133.40 374.20 L 140.30 374.00 L 147.30 374.20 L 158.60 375.00 L 164.50 376.10 L 165.70 377.10" fill="#cbc7ff" fill-rule="evenodd" group-id="1" id="Fill-131" node-id="75" stroke="none" target-height="6.100006" target-width="50.699997" target-x="115" target-y="374"/><path d="M 166.10 376.30 L 164.90 375.30 L 158.90 374.10 L 147.40 373.30 L 140.30 373.20 L 133.30 373.30 L 121.80 374.10 L 115.70 375.30 L 114.50 376.30 L 116.40 377.60 L 123.30 378.80 L 140.30 379.60 L 157.40 378.80 L 164.30 377.60 L 166.10 376.30" fill="#e85f5b" fill-rule="evenodd" group-id="1" id="Fill-132" node-id="76" stroke="none" target-height="6.399994" target-width="51.600006" target-x="114.5" target-y="373.2"/><path d="M 166.10 376.30 L 164.90 375.30 L 158.90 374.10 L 147.40 373.30 L 140.30 373.20 L 133.30 373.30 L 121.80 374.10 L 115.70 375.30 L 114.50 376.30 L 116.40 377.60 L 123.30 378.80 L 140.30 379.60 L 157.40 378.80 L 164.30 377.60 L 166.10 376.30" fill="#cbc7ff" fill-rule="evenodd" group-id="1" id="Fill-133" node-id="77" stroke="none" target-height="6.399994" target-width="51.600006" target-x="114.5" target-y="373.2"/><path d="M 114.50 363.60 L 114.50 376.10 L 114.80 376.50 L 118.10 377.60 L 121.80 378.20 L 133.30 379.10 L 140.30 379.20 L 147.40 379.10 L 158.90 378.20 L 162.60 377.60 L 165.90 376.50 L 166.10 376.10 L 166.10 363.60 L 114.50 363.60 Z" fill="#e85f5b" fill-rule="evenodd" group-id="1" id="Fill-134" node-id="78" stroke="none" target-height="15.600006" target-width="51.600006" target-x="114.5" target-y="363.6"/><path d="M 166.10 363.60 L 164.90 364.60 L 158.90 365.80 L 147.40 366.60 L 140.30 366.70 L 133.30 366.60 L 121.80 365.80 L 118.10 365.20 L 114.80 364.00 L 114.50 363.60 L 114.80 363.20 L 115.70 362.70 L 121.80 361.50 L 133.30 360.70 L 140.30 360.60 L 147.40 360.70 L 158.90 361.50 L 164.90 362.70 L 166.10 363.60" fill="#f4a798" fill-rule="evenodd" group-id="1" id="Fill-135" node-id="79" stroke="none" target-height="6.100006" target-width="51.600006" target-x="114.5" target-y="360.6"/><path d="M 165.70 363.30 L 164.50 364.30 L 158.60 365.40 L 147.30 366.20 L 140.30 366.40 L 133.40 366.20 L 122.10 365.40 L 118.40 364.90 L 115.20 363.80 L 115.00 363.30 L 115.20 362.90 L 116.10 362.40 L 122.10 361.20 L 133.40 360.40 L 140.30 360.30 L 147.30 360.40 L 158.60 361.20 L 164.50 362.40 L 165.70 363.30" fill="#f0836d" fill-rule="evenodd" group-id="1" id="Fill-136" node-id="80" stroke="none" target-height="6.100006" target-width="50.699997" target-x="115" target-y="360.3"/><path d="M 149.10 290.30 L 156.50 290.30 L 156.50 285.00 L 149.10 285.00 Z" fill="#184657" fill-rule="evenodd" group-id="1" id="Fill-137" node-id="81" stroke="none" target-height="5.299988" target-width="7.399994" target-x="149.1" target-y="285"/><path d="M 199.60 290.30 L 206.90 290.30 L 206.90 285.00 L 199.60 285.00 Z" fill="#184657" fill-rule="evenodd" group-id="1" id="Fill-138" node-id="82" stroke="none" target-height="5.299988" target-width="7.299988" target-x="199.6" target-y="285"/><path d="M 248.30 290.30 L 255.60 290.30 L 255.60 285.00 L 248.30 285.00 Z" fill="#184657" fill-rule="evenodd" group-id="1" id="Fill-139" node-id="83" stroke="none" target-height="5.299988" target-width="7.300003" target-x="248.3" target-y="285"/><path d="M 149.10 193.00 L 154.60 193.00 L 154.60 187.50 L 149.10 187.50 Z" fill="#5190a7" fill-rule="evenodd" group-id="1" id="Fill-140" node-id="84" stroke="none" target-height="5.5" target-width="5.5" target-x="149.1" target-y="187.5"/><path d="M 149.10 202.30 L 154.60 202.30 L 154.60 196.80 L 149.10 196.80 Z" fill="#5190a7" fill-rule="evenodd" group-id="1" id="Fill-141" node-id="85" stroke="none" target-height="5.5" target-width="5.5" target-x="149.1" target-y="196.8"/><path d="M 149.10 211.50 L 154.60 211.50 L 154.60 206.00 L 149.10 206.00 Z" fill="#fdd482" fill-rule="evenodd" group-id="1" id="Fill-142" node-id="86" stroke="none" target-height="5.5" target-width="5.5" target-x="149.1" target-y="206"/><path d="M 455.60 395.00 L 191.40 395.00 L 190.20 395.50 L 189.70 396.80 L 190.20 398.00 L 191.40 398.50 L 455.60 398.50 L 456.80 398.00 L 457.30 396.80 L 456.80 395.50 L 455.60 395.00" fill="#9fd4e0" fill-rule="evenodd" group-id="1" id="Fill-220" node-id="95" stroke="none" target-height="3.5" target-width="267.59998" target-x="189.7" target-y="395"/><path d="M 211.50 383.50 L 206.10 388.00 L 205.70 388.60 L 205.90 389.30 L 208.50 392.80 L 211.20 394.70 L 215.20 395.00 L 214.80 394.20 L 213.30 392.80 L 212.40 391.10 L 212.30 390.30 L 212.70 389.60 L 215.70 387.20 L 211.50 383.50 Z" fill="#ffd1c4" fill-rule="evenodd" group-id="1" id="Fill-221" node-id="96" stroke="none" target-height="11.5" target-width="10" target-x="205.7" target-y="383.5"/><path d="M 247.20 346.40 L 241.70 359.50 L 239.50 363.90 L 234.30 372.70 L 231.40 376.20 L 227.40 380.40 L 220.70 385.90 L 216.60 388.60 L 214.40 387.00 L 211.50 383.50 L 219.60 375.80 L 224.40 370.00 L 226.30 366.90 L 229.90 359.60 L 236.70 342.40 L 247.20 346.40 Z" fill="#e85f5b" fill-rule="evenodd" group-id="1" id="Fill-222" node-id="97" stroke="none" target-height="46.200012" target-width="35.699997" target-x="211.5" target-y="342.4"/><path d="M 247.20 346.40 L 241.70 359.50 L 239.50 363.90 L 234.30 372.70 L 231.40 376.20 L 227.40 380.40 L 220.70 385.90 L 216.60 388.60 L 214.40 387.00 L 211.50 383.50 L 219.60 375.80 L 224.40 370.00 L 226.30 366.90 L 229.90 359.60 L 236.70 342.40 L 247.20 346.40 Z" fill="#c15653" fill-rule="evenodd" group-id="1" id="Fill-223" node-id="98" stroke="none" target-height="46.200012" target-width="35.699997" target-x="211.5" target-y="342.4"/><path d="M 263.10 395.00 L 254.00 395.00 L 253.40 394.70 L 253.10 394.10 L 252.70 388.90 L 257.90 388.30 L 258.40 392.40 L 262.40 394.00 L 262.90 394.30 L 263.10 395.00" fill="#ffd1c4" fill-rule="evenodd" group-id="1" id="Fill-224" node-id="99" stroke="none" target-height="6.700012" target-width="10.400009" target-x="252.7" target-y="388.3"/><path d="M 259.40 388.10 L 252.40 389.20 L 250.60 376.80 L 249.00 371.10 L 247.70 368.50 L 244.30 363.60 L 241.30 360.30 L 232.30 352.10 L 230.30 349.90 L 229.10 347.80 L 228.60 345.70 L 228.60 343.50 L 229.20 341.20 L 230.40 338.60 L 242.70 346.00 L 247.50 350.60 L 249.50 353.00 L 253.80 359.70 L 255.60 363.80 L 257.00 368.10 L 258.70 376.50 L 259.40 388.10" fill="#e85f5b" fill-rule="evenodd" group-id="1" id="Fill-225" node-id="100" stroke="none" target-height="50.600006" target-width="30.799988" target-x="228.6" target-y="338.6"/><path d="M 284.50 348.10 L 284.30 346.10 L 282.60 344.10 L 268.50 333.60 L 262.20 334.80 L 263.40 336.60 L 267.70 339.90 L 279.90 345.80 L 281.30 346.70 L 282.30 347.90 L 282.40 346.90 L 282.90 348.20 L 283.20 348.00 L 283.10 347.00 L 283.60 348.40 L 283.90 347.30 L 284.50 348.10 Z" fill="#f29d7e" fill-rule="evenodd" group-id="1" id="Fill-226" node-id="101" stroke="none" target-height="14.799988" target-width="22.299988" target-x="262.2" target-y="333.6"/><path d="M 284.50 348.10 L 284.30 346.10 L 282.60 344.10 L 268.50 333.60 L 262.20 334.80 L 263.40 336.60 L 267.70 339.90 L 279.90 345.80 L 281.30 346.70 L 282.30 347.90 L 282.40 346.90 L 282.90 348.20 L 283.20 348.00 L 283.10 347.00 L 283.60 348.40 L 283.90 347.30 L 284.50 348.10 Z" fill="#f2cdc2" fill-rule="evenodd" group-id="1" id="Fill-227" node-id="102" stroke="none" target-height="14.799988" target-width="22.299988" target-x="262.2" target-y="333.6"/><path d="M 293.20 394.50 L 289.30 394.90 L 285.40 394.80 L 281.40 394.00 L 275.90 391.80 L 273.20 390.10 L 270.70 388.10 L 268.30 385.50 L 266.20 382.80 L 264.60 379.80 L 263.40 376.60 L 262.70 373.40 L 262.30 370.10 L 262.40 366.80 L 262.80 363.50 L 263.80 360.20 L 265.10 357.10 L 266.80 354.20 L 269.10 351.40 L 271.70 348.90 L 274.40 346.90 L 277.40 345.30 L 280.60 344.10 L 283.80 343.30 L 287.10 342.90 L 290.40 343.00 L 293.70 343.50 L 297.00 344.40 L 300.10 345.70 L 303.00 347.50 L 305.80 349.70 L 301.90 354.10 L 298.90 351.80 L 295.80 350.20 L 292.50 349.20 L 289.10 348.80 L 285.70 349.00 L 282.30 349.70 L 279.10 351.00 L 276.10 352.90 L 273.40 355.30 L 271.70 357.50 L 270.30 359.80 L 268.60 364.70 L 268.20 369.80 L 269.00 374.90 L 271.20 379.60 L 272.80 381.80 L 274.70 383.80 L 277.30 385.80 L 280.10 387.30 L 283.00 388.30 L 286.00 388.90 L 289.10 389.00 L 292.10 388.70 L 293.20 394.50 Z" fill="#fee6b7" fill-rule="evenodd" group-id="1" id="Fill-228" node-id="103" stroke="none" target-height="52" target-width="43.5" target-x="262.3" target-y="342.9"/><path d="M 307.50 386.50 L 305.40 388.50 L 300.90 391.70 L 297.10 393.40 L 293.20 394.50 L 292.10 388.70 L 295.10 387.90 L 298.00 386.50 L 300.70 384.80 L 303.10 382.50 L 305.40 379.60 L 307.00 376.50 L 308.00 373.10 L 308.40 369.70 L 308.20 366.30 L 307.50 362.90 L 306.20 359.70 L 304.30 356.80 L 301.90 354.10 L 305.80 349.70 L 308.30 352.30 L 310.30 355.10 L 311.90 358.10 L 313.10 361.20 L 313.90 364.40 L 314.30 367.80 L 314.20 371.10 L 313.70 374.40 L 312.80 377.60 L 311.50 380.70 L 309.70 383.70 L 307.50 386.50" fill="#fcc14a" fill-rule="evenodd" group-id="1" id="Fill-229" node-id="104" stroke="none" target-height="44.799988" target-width="22.199982" target-x="292.1" target-y="349.7"/><path d="M 303.10 382.50 L 300.70 384.80 L 298.00 386.50 L 295.10 387.90 L 292.10 388.70 L 289.10 389.00 L 286.00 388.90 L 283.00 388.30 L 280.10 387.30 L 277.30 385.80 L 274.70 383.80 L 271.20 379.60 L 270.00 377.30 L 268.40 372.40 L 268.20 367.20 L 268.60 364.70 L 270.30 359.80 L 271.70 357.50 L 273.40 355.30 L 276.10 352.90 L 279.10 351.00 L 282.30 349.70 L 285.70 349.00 L 289.10 348.80 L 292.50 349.20 L 295.80 350.20 L 298.90 351.80 L 301.90 354.10 L 304.30 356.80 L 306.20 359.70 L 307.50 362.90 L 308.20 366.30 L 308.40 369.70 L 308.00 373.10 L 307.00 376.50 L 305.40 379.60 L 303.10 382.50" fill="#faf8dc" fill-rule="evenodd" group-id="1" id="Fill-230" node-id="105" stroke="none" target-height="40.200012" target-width="40.19998" target-x="268.2" target-y="348.8"/><path d="M 260.60 318.60 L 263.00 326.30 L 264.20 329.10 L 266.70 332.20 L 268.50 333.50 L 263.70 338.00 L 254.80 332.70 L 260.60 318.60 Z" fill="#184657" fill-rule="evenodd" group-id="1" id="Fill-231" node-id="106" stroke="none" target-height="19.399994" target-width="13.699997" target-x="254.8" target-y="318.6"/><path d="M 251.60 318.00 L 252.30 319.40 L 254.50 321.40 L 256.80 322.40 L 258.90 322.50 L 259.60 321.90 L 259.30 318.40 L 259.70 316.50 L 266.10 309.60 L 261.30 305.30 L 254.70 311.60 L 251.00 312.70 L 251.00 315.30 L 251.60 318.00" fill="#ffd1c4" fill-rule="evenodd" group-id="1" id="Fill-232" node-id="107" stroke="none" target-height="17.200012" target-width="15.100006" target-x="251" target-y="305.3"/><path d="M 261.50 313.20 L 262.10 313.60 L 265.60 309.80 L 262.10 306.80 L 261.00 308.60 L 260.50 310.30 L 260.50 311.40 L 261.50 313.20" fill="#eebeb1" fill-rule="evenodd" group-id="1" id="Fill-235" node-id="112" stroke="none" target-height="6.8000183" target-width="5.100006" target-x="260.5" target-y="306.8"/><path d="M 262.70 300.00 L 261.20 301.00 L 260.10 302.80 L 260.10 306.40 L 262.30 307.00 L 263.50 302.20 L 262.70 300.00 Z" fill="#333333" fill-rule="evenodd" group-id="1" id="Fill-236" node-id="113" stroke="none" target-height="7" target-width="3.399994" target-x="260.1" target-y="300"/><path d="M 269.10 309.80 L 266.30 313.10 L 265.30 313.60 L 263.90 313.40 L 262.20 311.90 L 261.40 310.70 L 261.00 309.10 L 261.30 306.70 L 262.00 305.30 L 263.40 303.50 L 264.80 302.40 L 265.90 302.00 L 267.10 302.10 L 268.60 302.70 L 269.90 303.80 L 270.50 304.80 L 270.60 306.00 L 270.40 307.20 L 269.10 309.80" fill="#ffd1c4" fill-rule="evenodd" group-id="1" id="Fill-237" node-id="114" stroke="none" target-height="11.600006" target-width="9.600006" target-x="261" target-y="302"/><path d="M 268.40 308.20 L 267.80 308.10 L 268.00 307.70 L 268.40 308.20" fill="#000000" fill-rule="evenodd" group-id="1" id="Fill-238" node-id="115" stroke="none" target-height="0.5" target-width="0.6000061" target-x="267.8" target-y="307.7"/><path d="M 262.60 308.20 L 261.60 306.80 L 261.90 305.10 L 263.30 304.10 L 264.90 304.40 L 262.60 308.20 Z" fill="#ffc5b5" fill-rule="evenodd" group-id="1" id="Fill-239" node-id="116" stroke="none" target-height="4.100006" target-width="3.2999878" target-x="261.6" target-y="304.1"/><path d="M 263.10 307.30 L 262.60 306.50 L 262.80 305.60 L 263.50 305.10 L 264.40 305.30 L 263.10 307.30 Z" fill="#d9a597" fill-rule="evenodd" group-id="1" id="Fill-240" node-id="117" stroke="none" target-height="2.1999817" target-width="1.7999878" target-x="262.6" target-y="305.1"/><path d="M 269.40 308.60 L 269.40 311.10 L 267.90 310.70 L 269.40 308.60 Z" fill="#d9a597" fill-rule="evenodd" group-id="1" id="Fill-242" node-id="118" stroke="none" target-height="2.5" target-width="1.5" target-x="267.9" target-y="308.6"/><path d="M 264.70 304.90 L 263.70 306.30 L 264.20 306.70 L 265.30 305.20 L 264.70 304.90 Z" fill="#333333" fill-rule="evenodd" group-id="1" id="Fill-243" node-id="119" stroke="none" target-height="1.8000183" target-width="1.5999756" target-x="263.7" target-y="304.9"/><path d="M 264.90 297.80 L 263.30 298.20 L 261.00 299.70 L 260.10 302.00 L 260.30 303.10 L 262.10 304.60 L 264.90 305.40 L 266.70 305.00 L 268.50 303.50 L 269.80 304.40 L 270.70 305.70 L 272.70 305.30 L 275.30 304.20 L 275.90 303.70 L 275.90 302.40 L 268.90 298.50 L 267.30 297.90 L 264.90 297.80 Z" fill="#333333" fill-rule="evenodd" group-id="1" id="Fill-244" node-id="120" stroke="none" target-height="7.9000244" target-width="15.799988" target-x="260.1" target-y="297.8"/><path d="M 267.60 306.60 L 268.60 306.90 L 269.40 307.80 L 267.60 306.60" fill="#333333" fill-rule="evenodd" group-id="1" id="Fill-245" node-id="121" stroke="none" target-height="1.1999817" target-width="1.7999878" target-x="267.6" target-y="306.6"/><path d="M 267.50 311.50 L 267.50 312.00 L 267.20 311.70 L 266.80 310.90 L 267.50 311.50" fill="#ed6d53" fill-rule="evenodd" group-id="1" id="Fill-246" node-id="122" stroke="none" target-height="1.1000061" target-width="0.7000122" target-x="266.8" target-y="310.9"/><path d="M 259.60 316.60 L 258.20 317.20 L 256.10 316.60 L 253.90 314.80 L 252.30 312.10 L 249.70 313.10 L 245.50 315.80 L 242.80 318.20 L 240.10 321.10 L 237.10 325.30 L 233.30 331.70 L 229.40 339.20 L 231.50 341.40 L 235.80 344.20 L 241.40 346.00 L 247.60 346.70 L 253.20 337.10 L 259.80 329.00 L 260.80 326.90 L 261.50 324.70 L 261.50 322.40 L 261.00 319.70 L 259.60 316.60" fill="#184657" fill-rule="evenodd" group-id="1" id="Fill-247" node-id="123" stroke="none" target-height="34.600006" target-width="32.100006" target-x="229.4" target-y="312.1"/><path d="M 260.60 318.80 L 261.60 322.80 L 261.70 331.70 L 261.50 333.40 L 258.90 329.90 L 259.80 326.90 L 260.60 318.80" fill="#113340" fill-rule="evenodd" group-id="1" id="Fill-248" node-id="124" stroke="none" target-height="14.600006" target-width="2.8000183" target-x="258.9" target-y="318.8"/><path d="M 275.90 353.80 L 271.60 353.00 L 267.20 353.50 L 269.20 351.20 L 270.80 349.80 L 271.40 349.70 L 272.20 350.00 L 273.90 351.50 L 275.90 353.80" fill="#cbc7ff" fill-rule="evenodd" group-id="1" id="Fill-249" node-id="125" stroke="none" target-height="4.0999756" target-width="8.699982" target-x="267.2" target-y="349.7"/><path d="M 245.50 319.30 L 246.00 324.20 L 247.20 330.40 L 249.00 336.30 L 250.10 338.60 L 251.20 340.00 L 255.10 334.40 L 245.50 319.30 Z" fill="#113340" fill-rule="evenodd" group-id="1" id="Fill-250" node-id="126" stroke="none" target-height="20.700012" target-width="9.600006" target-x="245.5" target-y="319.3"/><path d="M 245.50 318.50 L 245.70 321.40 L 248.10 326.30 L 253.30 333.10 L 261.10 341.60 L 268.80 349.00 L 275.30 353.70 L 276.50 354.20 L 276.90 354.10 L 276.20 353.20 L 277.40 353.40 L 276.80 352.40 L 278.10 352.60 L 277.90 352.00 L 277.20 351.40 L 277.90 351.60 L 278.30 351.50 L 278.30 351.30 L 275.30 348.90 L 276.80 349.70 L 277.20 349.70 L 277.40 349.30 L 267.60 340.60 L 264.90 337.60 L 262.40 334.30 L 258.10 327.40 L 253.90 319.20 L 252.70 317.60 L 251.50 316.50 L 248.90 315.60 L 246.90 316.30 L 245.50 318.50" fill="#ffd1c4" fill-rule="evenodd" group-id="1" id="Fill-251" node-id="127" stroke="none" target-height="38.600006" target-width="32.799988" target-x="245.5" target-y="315.6"/><path d="M 257.30 337.60 L 259.30 339.80 L 259.90 338.50 L 259.40 337.40 L 258.30 337.10 L 257.30 337.60" fill="#ed6d53" fill-rule="evenodd" group-id="1" id="Fill-252" node-id="128" stroke="none" target-height="2.6999817" target-width="2.600006" target-x="257.3" target-y="337.1"/><path d="M 258.60 339.10 L 261.40 337.40 L 263.30 335.60 L 258.50 328.00 L 253.90 319.10 L 252.70 317.50 L 250.10 315.70 L 248.90 315.50 L 246.80 316.20 L 245.40 318.40 L 245.60 321.40 L 248.00 326.30 L 250.50 329.70 L 258.60 339.10" fill="#265161" fill-rule="evenodd" group-id="1" id="Fill-253" node-id="129" stroke="none" target-height="23.600006" target-width="17.899994" target-x="245.4" target-y="315.5"/><path d="M 262.40 394.00 L 258.40 392.30 L 257.10 392.80 L 253.00 392.60 L 253.40 394.70 L 254.00 395.00 L 263.10 395.00 L 262.90 394.30 L 262.40 394.00" fill="#e289a9" fill-rule="evenodd" group-id="1" id="Fill-254" node-id="130" stroke="none" target-height="2.7000122" target-width="10.100006" target-x="253" target-y="392.3"/><path d="M 263.00 394.40 L 253.90 394.40 L 253.10 394.10 L 253.40 394.70 L 254.00 395.00 L 263.10 395.00 L 263.00 394.40" fill="#0d232b" fill-rule="evenodd" group-id="1" id="Fill-255" node-id="131" stroke="none" target-height="0.8999939" target-width="10" target-x="253.1" target-y="394.1"/><path d="M 215.20 395.00 L 214.80 394.20 L 213.30 392.80 L 212.30 390.50 L 210.60 390.40 L 209.40 389.70 L 207.20 387.10 L 206.10 388.00 L 205.70 388.60 L 205.90 389.30 L 208.50 392.80 L 211.20 394.70 L 215.20 395.00 Z" fill="#e289a9" fill-rule="evenodd" group-id="1" id="Fill-256" node-id="132" stroke="none" target-height="7.899994" target-width="9.5" target-x="205.7" target-y="387.1"/><path d="M 213.00 394.60 L 211.60 394.30 L 208.90 392.40 L 206.20 388.90 L 206.10 388.00 L 205.70 388.60 L 205.90 389.30 L 208.50 392.80 L 211.20 394.70 L 215.20 395.00 L 215.10 394.60 L 213.00 394.60 Z" fill="#184657" fill-rule="evenodd" group-id="1" id="Fill-257" node-id="133" stroke="none" target-height="7" target-width="9.5" target-x="205.7" target-y="388"/><path d="M 250.20 332.10 L 244.80 329.40 L 241.20 326.80 L 241.30 326.60 L 245.00 329.20 L 250.30 331.80 L 250.20 332.10 Z" fill="#e6e5ce" fill-rule="evenodd" group-id="1" id="Fill-258" node-id="134" stroke="none" target-height="5.5" target-width="9.100006" target-x="241.2" target-y="326.6"/><path d="M 248.10 335.10 L 242.70 332.40 L 239.00 329.80 L 239.20 329.60 L 242.90 332.10 L 248.20 334.80 L 248.10 335.10 Z" fill="#e6e5ce" fill-rule="evenodd" group-id="1" id="Fill-259" node-id="135" stroke="none" target-height="5.5" target-width="9.199997" target-x="239" target-y="329.6"/><path d="M 246.40 337.70 L 240.90 335.30 L 237.10 332.90 L 237.30 332.70 L 241.10 335.10 L 246.50 337.50 L 246.40 337.70 Z" fill="#e6e5ce" fill-rule="evenodd" group-id="1" id="Fill-260" node-id="136" stroke="none" target-height="5" target-width="9.399994" target-x="237.1" target-y="332.7"/><path d="M 244.70 341.00 L 239.10 338.80 L 235.20 336.50 L 235.40 336.30 L 239.20 338.50 L 244.80 340.80 L 244.70 341.00 Z" fill="#e6e5ce" fill-rule="evenodd" group-id="1" id="Fill-261" node-id="137" stroke="none" target-height="4.700012" target-width="9.600006" target-x="235.2" target-y="336.3"/><path d="M 575.10 385.60 L 578.10 388.70 L 578.40 389.30 L 578.10 390.00 L 575.00 393.10 L 572.00 394.50 L 568.00 394.20 L 568.50 393.40 L 570.20 392.30 L 571.40 390.70 L 571.60 389.90 L 571.30 389.20 L 568.80 386.40 L 575.10 385.60 Z" fill="#307b97" fill-rule="evenodd" group-id="1" id="Fill-262" node-id="138" stroke="none" target-height="8.899994" target-width="10.400024" target-x="568" target-y="385.6"/><path d="M 543.50 340.40 L 547.20 354.60 L 548.70 359.50 L 552.60 369.10 L 554.90 373.10 L 558.40 377.90 L 565.30 385.10 L 570.40 389.10 L 572.50 388.10 L 575.10 385.60 L 567.20 375.30 L 562.90 368.10 L 561.40 364.70 L 559.50 358.70 L 556.40 346.30 L 557.80 338.00 L 543.50 340.40 Z" fill="#41b093" fill-rule="evenodd" group-id="1" id="Fill-263" node-id="139" stroke="none" target-height="51.100006" target-width="31.599976" target-x="543.5" target-y="338"/><path d="M 543.50 340.40 L 547.20 354.60 L 548.70 359.50 L 552.60 369.10 L 554.90 373.10 L 558.40 377.90 L 565.30 385.10 L 570.40 389.10 L 572.50 388.10 L 575.10 385.60 L 567.20 375.30 L 562.90 368.10 L 561.40 364.70 L 559.50 358.70 L 556.40 346.30 L 557.80 338.00 L 543.50 340.40 Z" fill="#25886e" fill-rule="evenodd" group-id="1" id="Fill-264" node-id="140" stroke="none" target-height="51.100006" target-width="31.599976" target-x="543.5" target-y="338"/><path d="M 513.30 394.50 L 523.60 394.60 L 524.30 394.30 L 524.70 393.70 L 525.20 386.90 L 519.20 386.50 L 519.00 390.80 L 518.70 391.60 L 514.10 393.40 L 513.50 393.80 L 513.30 394.50" fill="#307b97" fill-rule="evenodd" group-id="1" id="Fill-265" node-id="141" stroke="none" target-height="8.100006" target-width="11.900024" target-x="513.3" target-y="386.5"/><path d="M 518.60 389.90 L 526.00 390.60 L 528.50 380.10 L 531.60 369.80 L 533.30 365.60 L 535.60 361.30 L 538.30 357.20 L 541.20 353.50 L 544.30 350.40 L 549.10 346.80 L 552.80 343.30 L 554.10 341.70 L 555.50 338.70 L 542.10 330.80 L 535.10 340.20 L 529.20 350.00 L 526.50 355.70 L 524.30 361.80 L 521.90 371.00 L 518.60 389.90" fill="#41b093" fill-rule="evenodd" group-id="1" id="Fill-266" node-id="142" stroke="none" target-height="59.80002" target-width="36.900024" target-x="518.6" target-y="330.8"/><path d="M 522.10 279.80 L 524.10 279.60 L 526.40 280.80 L 543.90 295.90 L 544.10 302.30 L 542.40 301.70 L 540.30 300.30 L 536.00 296.30 L 525.30 283.80 L 524.20 282.70 L 522.70 281.90 L 523.80 281.60 L 522.40 281.40 L 522.40 281.10 L 523.50 280.90 L 522.00 280.70 L 523.00 280.20 L 522.10 279.80 Z" fill="#f29d7e" fill-rule="evenodd" group-id="1" id="Fill-267" node-id="143" stroke="none" target-height="22.699982" target-width="22.099976" target-x="522" target-y="279.6"/><path d="M 522.10 279.80 L 524.10 279.60 L 526.40 280.80 L 543.90 295.90 L 544.10 302.30 L 542.40 301.70 L 540.30 300.30 L 536.00 296.30 L 525.30 283.80 L 524.20 282.70 L 522.70 281.90 L 523.80 281.60 L 522.40 281.40 L 522.40 281.10 L 523.50 280.90 L 522.00 280.70 L 523.00 280.20 L 522.10 279.80 Z" fill="#f1bfb1" fill-rule="evenodd" group-id="1" id="Fill-268" node-id="144" stroke="none" target-height="22.699982" target-width="22.099976" target-x="522" target-y="279.6"/><path d="M 525.30 282.30 L 495.80 258.20 L 496.20 257.80 L 525.70 281.90 Z" fill="#035e80" fill-rule="evenodd" group-id="1" id="Fill-269" node-id="145" stroke="none" target-height="24.5" target-width="29.900024" target-x="495.8" target-y="257.8"/><path d="M 560.30 305.10 L 553.60 302.20 L 548.10 299.20 L 534.60 287.60 L 531.90 291.60 L 543.80 302.80 L 550.20 308.10 L 551.10 308.60 L 560.30 305.10 Z" fill="#184657" fill-rule="evenodd" group-id="1" id="Fill-270" node-id="146" stroke="none" target-height="21" target-width="28.399963" target-x="531.9" target-y="287.6"/><path d="M 562.90 312.10 L 561.30 312.20 L 558.50 311.30 L 556.50 309.80 L 555.40 308.00 L 555.60 307.10 L 558.80 305.60 L 560.20 304.30 L 562.90 295.40 L 569.10 297.40 L 566.90 306.20 L 567.80 310.00 L 565.50 311.30 L 562.90 312.10" fill="#ffd1c4" fill-rule="evenodd" group-id="1" id="Fill-271" node-id="147" stroke="none" target-height="16.800018" target-width="13.699951" target-x="555.4" target-y="295.4"/><path d="M 562.20 301.10 L 561.40 300.80 L 563.00 295.80 L 567.40 297.40 L 566.30 299.30 L 565.10 300.50 L 564.10 301.10 L 562.20 301.10" fill="#eab1a1" fill-rule="evenodd" group-id="1" id="Fill-274" node-id="148" stroke="none" target-height="5.3000183" target-width="6" target-x="561.4" target-y="295.8"/><path d="M 561.30 292.80 L 559.80 296.90 L 559.90 298.10 L 560.80 299.10 L 562.90 299.90 L 564.30 300.00 L 565.90 299.50 L 567.80 298.00 L 568.70 296.70 L 569.60 294.60 L 569.90 292.80 L 569.60 291.70 L 568.90 290.70 L 567.70 289.80 L 566.10 289.20 L 564.90 289.20 L 563.80 289.60 L 562.90 290.40 L 561.30 292.80" fill="#ffd1c4" fill-rule="evenodd" group-id="1" id="Fill-275" node-id="149" stroke="none" target-height="10.799988" target-width="10.100037" target-x="559.8" target-y="289.2"/><path d="M 573.50 294.40 L 573.70 296.00 L 573.50 297.10 L 571.80 300.00 L 571.90 301.20 L 570.50 301.80 L 568.90 302.00 L 567.90 301.80 L 566.60 300.80 L 566.30 300.00 L 566.40 298.90 L 567.10 297.30 L 570.60 293.90 L 573.50 294.40 Z" fill="#0d232b" fill-rule="evenodd" group-id="1" id="Fill-276" node-id="150" stroke="none" target-height="8.100006" target-width="7.4000244" target-x="566.3" target-y="293.9"/><path d="M 563.00 292.70 L 563.20 293.10 L 563.60 293.00 L 563.50 292.50 L 563.00 292.70" fill="#000000" fill-rule="evenodd" group-id="1" id="Fill-277" node-id="151" stroke="none" target-height="0.6000061" target-width="0.5999756" target-x="563" target-y="292.5"/><path d="M 566.00 297.70 L 567.70 297.80 L 569.00 296.70 L 569.10 295.10 L 568.10 293.70 L 566.00 297.70 Z" fill="#f5c2b4" fill-rule="evenodd" group-id="1" id="Fill-278" node-id="152" stroke="none" target-height="4.0999756" target-width="3.0999756" target-x="566" target-y="293.7"/><path d="M 566.50 296.70 L 567.40 296.80 L 568.00 296.30 L 568.10 295.40 L 567.60 294.70 L 566.50 296.70 Z" fill="#c49d92" fill-rule="evenodd" group-id="1" id="Fill-279" node-id="153" stroke="none" target-height="2.0999756" target-width="1.5999756" target-x="566.5" target-y="294.7"/><path d="M 562.20 292.00 L 560.00 293.20 L 561.10 294.30 L 562.20 292.00 Z" fill="#dfa899" fill-rule="evenodd" group-id="1" id="Fill-281" node-id="154" stroke="none" target-height="2.2999878" target-width="2.2000122" target-x="560" target-y="292"/><path d="M 567.80 294.20 L 567.00 295.80 L 566.40 295.50 L 567.20 293.80 L 567.80 294.20 Z" fill="#0d232b" fill-rule="evenodd" group-id="1" id="Fill-282" node-id="155" stroke="none" target-height="2" target-width="1.3999634" target-x="566.4" target-y="293.8"/><path d="M 564.20 286.00 L 564.90 285.80 L 566.70 287.00 L 569.20 287.00 L 570.50 287.30 L 572.40 288.90 L 572.80 289.90 L 572.90 291.60 L 574.30 294.30 L 574.20 295.30 L 573.40 296.50 L 572.40 297.00 L 571.00 297.00 L 568.30 295.90 L 566.70 294.70 L 565.90 293.30 L 565.90 290.40 L 565.10 289.60 L 563.50 289.10 L 562.80 288.00 L 563.30 286.60 L 564.20 286.00" fill="#0d232b" fill-rule="evenodd" group-id="1" id="Fill-283" node-id="156" stroke="none" target-height="11.200012" target-width="11.5" target-x="562.8" target-y="285.8"/><path d="M 564.70 292.70 L 562.90 291.70 L 563.20 291.50 L 564.00 291.80 L 564.70 292.70 Z" fill="#0d232b" fill-rule="evenodd" group-id="1" id="Fill-284" node-id="157" stroke="none" target-height="1.2000122" target-width="1.7999878" target-x="562.9" target-y="291.5"/><path d="M 560.60 295.10 L 560.20 295.30 L 560.60 295.50 L 561.50 295.40 L 560.60 295.10" fill="#ed6d53" fill-rule="evenodd" group-id="1" id="Fill-285" node-id="158" stroke="none" target-height="0.3999939" target-width="1.2999878" target-x="560.2" target-y="295.1"/><path d="M 560.30 304.10 L 560.20 305.60 L 561.50 306.80 L 564.10 307.40 L 567.30 307.30 L 568.00 310.20 L 568.10 312.80 L 567.80 315.60 L 567.00 319.30 L 565.70 323.20 L 560.70 332.90 L 557.80 339.50 L 554.30 339.10 L 548.90 337.60 L 545.60 336.30 L 542.30 334.40 L 538.90 331.90 L 541.40 326.20 L 546.70 317.70 L 549.90 310.10 L 551.10 308.20 L 552.60 306.70 L 554.40 305.50 L 556.90 304.70 L 560.30 304.10" fill="#184657" fill-rule="evenodd" group-id="1" id="Fill-286" node-id="159" stroke="none" target-height="35.399994" target-width="29.199951" target-x="538.9" target-y="304.1"/><path d="M 561.90 315.70 L 556.50 318.20 L 550.30 320.30 L 547.20 320.80 L 544.90 320.70 L 546.80 317.60 L 549.60 310.80 L 561.90 315.70 Z" fill="#0e3746" fill-rule="evenodd" group-id="1" id="Fill-287" node-id="160" stroke="none" target-height="10" target-width="17" target-x="544.9" target-y="310.8"/><path d="M 561.40 315.90 L 558.40 315.80 L 553.50 313.40 L 546.60 308.40 L 537.40 300.30 L 527.20 290.20 L 524.10 286.80 L 521.50 283.10 L 520.90 281.90 L 521.10 281.50 L 521.50 281.60 L 522.00 282.10 L 521.80 280.90 L 522.80 281.50 L 522.50 280.30 L 523.10 280.40 L 523.80 281.10 L 523.50 280.50 L 523.60 280.00 L 523.90 280.00 L 526.30 282.90 L 525.40 281.50 L 525.40 281.10 L 525.80 280.90 L 534.80 290.50 L 540.10 295.00 L 546.70 299.70 L 553.30 303.70 L 560.50 307.50 L 562.10 308.70 L 563.20 309.80 L 564.20 312.40 L 563.60 314.50 L 561.40 315.90" fill="#ffd1c4" fill-rule="evenodd" group-id="1" id="Fill-288" node-id="161" stroke="none" target-height="35.899994" target-width="43.299988" target-x="520.9" target-y="280"/><path d="M 530.30 293.70 L 531.00 292.30 L 533.80 289.50 L 539.60 294.40 L 546.90 299.50 L 553.80 303.80 L 560.60 307.50 L 562.20 308.70 L 564.00 311.30 L 564.30 312.50 L 563.70 314.50 L 561.50 315.90 L 560.10 316.10 L 556.40 315.10 L 553.50 313.50 L 546.50 308.40 L 536.70 299.80 L 530.30 293.70" fill="#265161" fill-rule="evenodd" group-id="1" id="Fill-289" node-id="162" stroke="none" target-height="26.600006" target-width="34" target-x="530.3" target-y="289.5"/><path d="M 514.10 393.40 L 518.00 392.10 L 518.70 391.50 L 520.20 392.10 L 524.80 392.00 L 524.30 394.30 L 523.60 394.60 L 513.30 394.50 L 513.50 393.80 L 514.10 393.40" fill="#035e80" fill-rule="evenodd" group-id="1" id="Fill-290" node-id="163" stroke="none" target-height="3.100006" target-width="11.5" target-x="513.3" target-y="391.5"/><path d="M 513.50 393.90 L 523.80 394.00 L 524.70 393.70 L 524.30 394.30 L 523.60 394.60 L 513.30 394.50 L 513.50 393.90" fill="#e6e5ce" fill-rule="evenodd" group-id="1" id="Fill-291" node-id="164" stroke="none" target-height="0.8999939" target-width="11.400024" target-x="513.3" target-y="393.7"/><path d="M 568.00 394.20 L 568.50 393.40 L 570.20 392.30 L 571.60 390.20 L 573.30 390.30 L 574.60 389.90 L 577.10 387.60 L 578.10 388.70 L 578.40 389.30 L 578.10 390.00 L 575.00 393.10 L 572.00 394.50 L 568.00 394.20" fill="#035e80" fill-rule="evenodd" group-id="1" id="Fill-292" node-id="165" stroke="none" target-height="6.899994" target-width="10.400024" target-x="568" target-y="387.6"/><path d="M 570.30 394.10 L 571.80 394.00 L 574.70 392.50 L 577.90 389.50 L 578.10 388.60 L 578.40 389.30 L 578.10 390.00 L 575.00 393.10 L 572.00 394.50 L 568.00 394.20 L 568.20 393.70 L 570.30 394.10" fill="#e6e5ce" fill-rule="evenodd" group-id="1" id="Fill-293" node-id="166" stroke="none" target-height="5.899994" target-width="10.400024" target-x="568" target-y="388.6"/><path d="M 399.20 347.10 L 397.70 347.30 L 395.30 348.70 L 393.80 351.20 L 393.60 352.70 L 393.60 395.00 L 404.80 395.00 L 404.80 352.70 L 404.60 351.20 L 403.20 348.70 L 400.80 347.30 L 399.20 347.10" fill="#cbc7ff" fill-rule="evenodd" group-id="1" id="Fill-294" node-id="167" stroke="none" target-height="47.899994" target-width="11.199982" target-x="393.6" target-y="347.1"/><path d="M 170.40 215.90 L 170.10 215.60 L 173.90 110.80 L 174.20 110.50 L 174.50 110.80 L 170.70 215.60 L 170.40 215.90" fill="#035e80" fill-rule="evenodd" group-id="1" id="Fill-295" node-id="168" stroke="none" target-height="105.399994" target-width="4.399994" target-x="170.1" target-y="110.5"/><path d="M 174.90 106.60 L 173.10 108.90 L 174.90 112.00 L 177.20 109.30 L 174.90 106.60 Z" fill="#ffc0af" fill-rule="evenodd" group-id="1" id="Fill-296" node-id="169" stroke="none" target-height="5.4000015" target-width="4.099991" target-x="173.1" target-y="106.6"/><path d="M 172.30 107.10 L 174.50 108.60 L 175.20 109.50 L 175.50 110.50 L 175.10 113.10 L 170.20 109.90 L 172.30 107.10 Z" fill="#ffd1c4" fill-rule="evenodd" group-id="1" id="Fill-297" node-id="170" stroke="none" target-height="6" target-width="5.300003" target-x="170.2" target-y="107.1"/><path d="M 165.50 74.80 L 166.90 74.90 L 165.70 75.60 L 165.50 74.80 Z" fill="#e85f5b" fill-rule="evenodd" group-id="1" id="Fill-298" node-id="171" stroke="none" target-height="0.7999954" target-width="1.3999939" target-x="165.5" target-y="74.8"/><path d="M 161.70 145.10 L 161.40 146.50 L 161.70 147.10 L 170.30 147.30 L 171.10 147.20 L 171.30 146.70 L 167.20 144.80 L 161.70 145.10 Z" fill="#fcc14a" fill-rule="evenodd" group-id="1" id="Fill-299" node-id="172" stroke="none" target-height="2.5" target-width="9.900009" target-x="161.4" target-y="144.8"/><path d="M 171.20 146.60 L 162.20 146.70 L 161.40 146.40 L 161.40 146.90 L 162.30 147.20 L 170.30 147.30 L 171.10 147.20 L 171.20 146.60" fill="#184657" fill-rule="evenodd" group-id="1" id="Fill-300" node-id="173" stroke="none" target-height="0.90000916" target-width="9.800003" target-x="161.4" target-y="146.4"/><path d="M 139.90 144.00 L 139.30 145.20 L 139.50 145.80 L 145.40 147.20 L 149.00 147.10 L 149.40 146.60 L 147.00 145.90 L 145.40 144.40 L 139.90 144.00 Z" fill="#fcc14a" fill-rule="evenodd" group-id="1" id="Fill-301" node-id="174" stroke="none" target-height="3.199997" target-width="10.099991" target-x="139.3" target-y="144"/><path d="M 149.30 146.50 L 145.40 146.70 L 139.60 145.20 L 139.40 145.00 L 139.30 145.60 L 145.40 147.20 L 149.00 147.10 L 149.30 147.00 L 149.30 146.50" fill="#184657" fill-rule="evenodd" group-id="1" id="Fill-302" node-id="175" stroke="none" target-height="2.199997" target-width="10" target-x="139.3" target-y="145"/><path d="M 161.60 100.50 L 164.80 112.50 L 167.00 126.30 L 167.80 135.10 L 167.70 145.10 L 165.80 145.40 L 161.20 145.30 L 159.20 126.10 L 156.10 114.40 L 151.80 101.30 L 161.60 100.50 Z" fill="#0d232b" fill-rule="evenodd" group-id="1" id="Fill-303" node-id="176" stroke="none" target-height="44.899994" target-width="16" target-x="151.8" target-y="100.5"/><path d="M 147.50 92.80 L 145.10 98.00 L 144.00 103.60 L 143.40 126.60 L 141.70 137.40 L 139.70 144.00 L 144.30 145.40 L 146.60 145.50 L 150.70 134.00 L 152.60 125.20 L 153.00 120.50 L 153.30 102.10 L 161.10 101.20 L 147.50 92.80 Z" fill="#0d232b" fill-rule="evenodd" group-id="1" id="Fill-304" node-id="177" stroke="none" target-height="52.699997" target-width="21.40001" target-x="139.7" target-y="92.8"/><path d="M 157.70 77.90 L 153.50 82.70 L 150.10 88.10 L 147.50 92.80 L 149.70 95.30 L 153.60 98.30 L 156.20 99.60 L 160.10 101.00 L 161.80 101.10 L 169.00 90.70 L 172.20 87.10 L 170.80 84.90 L 167.70 82.30 L 161.70 79.80 L 157.70 77.90" fill="#e85f5b" fill-rule="evenodd" group-id="1" id="Fill-305" node-id="178" stroke="none" target-height="23.199997" target-width="24.699997" target-x="147.5" target-y="77.9"/><path d="M 155.90 81.30 L 155.10 85.80 L 154.70 98.90 L 161.10 101.20 L 165.40 95.80 L 163.10 90.00 L 161.10 83.90 L 159.70 82.30 L 158.30 81.60 L 155.90 81.30" fill="#cb403c" fill-rule="evenodd" group-id="1" id="Fill-306" node-id="179" stroke="none" target-height="19.899994" target-width="10.699997" target-x="154.7" target-y="81.3"/><path d="M 164.30 75.70 L 160.10 76.50 L 158.80 77.10 L 156.80 78.80 L 155.60 81.90 L 155.40 86.70 L 155.60 89.50 L 157.20 95.50 L 160.60 102.10 L 162.80 104.90 L 165.00 107.00 L 167.20 108.70 L 170.60 110.50 L 172.90 106.90 L 168.90 103.60 L 167.20 101.90 L 164.10 97.40 L 162.40 92.50 L 161.60 85.30 L 171.00 86.70 L 173.20 88.70 L 174.60 90.50 L 175.70 92.50 L 176.70 95.30 L 177.00 98.10 L 176.80 100.70 L 176.10 103.10 L 174.60 106.40 L 177.00 110.00 L 178.70 108.20 L 180.60 104.00 L 181.30 100.40 L 181.20 94.90 L 179.50 88.70 L 178.00 85.60 L 176.10 82.80 L 174.40 81.00 L 172.40 79.40 L 170.20 78.20 L 164.30 75.70" fill="#e85f5b" fill-rule="evenodd" group-id="1" id="Fill-307" node-id="180" stroke="none" target-height="34.800003" target-width="25.90001" target-x="155.4" target-y="75.7"/><path d="M 169.80 79.70 L 170.10 78.50 L 174.60 73.60 L 171.20 70.50 L 166.60 75.00 L 164.20 75.80 L 164.90 77.50 L 165.80 78.50 L 168.30 79.70 L 169.80 79.70" fill="#ffd1c4" fill-rule="evenodd" group-id="1" id="Fill-308" node-id="181" stroke="none" target-height="9.199997" target-width="10.400009" target-x="164.2" target-y="70.5"/><g node-id="242"><g node-id="248"><path d="M 169.90 78.70 L 174.60 73.60 L 171.20 70.50 L 166.10 75.20 L 169.90 78.70 Z" fill="#ffd1c4" fill-rule="evenodd" group-id="1,7,13" id="Fill-309" node-id="186" stroke="none" target-height="8.199997" target-width="8.5" target-x="166.1" target-y="70.5"/></g></g><path d="M 170.60 76.90 L 171.10 77.30 L 173.60 74.50 L 171.00 72.40 L 169.90 74.90 L 170.00 76.00 L 170.60 76.90" fill="#f4b6a5" fill-rule="evenodd" group-id="1" id="Fill-311" node-id="187" stroke="none" target-height="4.9000015" target-width="3.7000122" target-x="169.9" target-y="72.4"/><path d="M 171.50 68.40 L 170.40 70.60 L 169.90 73.30 L 170.10 74.50 L 170.80 75.50 L 171.90 76.30 L 173.70 76.60 L 174.80 76.00 L 177.70 72.20 L 171.50 68.40 Z" fill="#ffd1c4" fill-rule="evenodd" group-id="1" id="Fill-312" node-id="188" stroke="none" target-height="8.199997" target-width="7.800003" target-x="169.9" target-y="68.4"/><path d="M 171.50 68.40 L 173.50 70.30 L 177.00 72.40 L 179.40 73.10 L 180.40 73.10 L 181.60 72.20 L 182.00 71.00 L 181.60 68.90 L 180.00 67.90 L 178.70 66.20 L 177.00 65.20 L 175.30 65.10 L 174.00 65.60 L 172.90 66.50 L 171.50 68.40" fill="#333333" fill-rule="evenodd" group-id="1" id="Fill-313" node-id="189" stroke="none" target-height="8" target-width="10.5" target-x="171.5" target-y="65.1"/><path d="M 170.30 70.60 L 171.40 70.50 L 172.60 68.90 L 172.30 67.10 L 170.30 70.60" fill="#333333" fill-rule="evenodd" group-id="1" id="Fill-314" node-id="190" stroke="none" target-height="3.5" target-width="2.300003" target-x="170.3" target-y="67.1"/><path d="M 173.00 69.70 L 172.50 70.50 L 172.90 70.60 L 173.60 70.00 Z" fill="#333333" fill-rule="evenodd" group-id="1" id="Fill-315" node-id="191" stroke="none" target-height="0.9000015" target-width="1.1000061" target-x="172.5" target-y="69.7"/><path d="M 174.60 71.80 L 174.30 71.80 L 174.20 71.50 L 174.60 71.80" fill="#000000" fill-rule="evenodd" group-id="1" id="Fill-316" node-id="192" stroke="none" target-height="0.30000305" target-width="0.40000916" target-x="174.2" target-y="71.5"/><path d="M 175.80 72.60 L 175.70 74.20 L 174.80 73.90 L 175.80 72.60 Z" fill="#f4b6a5" fill-rule="evenodd" group-id="1" id="Fill-318" node-id="193" stroke="none" target-height="1.5999985" target-width="1" target-x="174.8" target-y="72.6"/><path d="M 171.80 71.50 L 171.20 70.60 L 171.40 69.50 L 172.40 68.90 L 173.40 69.20 L 171.80 71.50 Z" fill="#ffc0af" fill-rule="evenodd" group-id="1" id="Fill-319" node-id="194" stroke="none" target-height="2.5999985" target-width="2.199997" target-x="171.2" target-y="68.9"/><path d="M 172.20 70.90 L 171.90 70.50 L 172.00 69.90 L 172.50 69.60 L 173.00 69.70 L 172.20 70.90 Z" fill="#f3a792" fill-rule="evenodd" group-id="1" id="Fill-320" node-id="195" stroke="none" target-height="1.300003" target-width="1.1000061" target-x="171.9" target-y="69.6"/><path d="M 164.20 75.80 L 165.50 74.80 L 167.10 77.70 L 169.20 79.80 L 166.70 79.30 L 165.50 78.50 L 164.70 77.50 L 164.20 75.80" fill="#ee8c89" fill-rule="evenodd" group-id="1" id="Fill-321" node-id="196" stroke="none" target-height="5" target-width="5" target-x="164.2" target-y="74.8"/><path d="M 169.20 79.80 L 170.40 77.90 L 170.90 78.60 L 169.80 79.70 L 169.20 79.80" fill="#ee8c89" fill-rule="evenodd" group-id="1" id="Fill-322" node-id="197" stroke="none" target-height="1.9000015" target-width="1.699997" target-x="169.2" target-y="77.9"/><g node-id="243"><path d="M 138.90 153.20 L 172.30 153.20 L 172.30 147.20 L 138.90 147.20 Z" fill="#184657" fill-opacity="0.45" fill-rule="evenodd" group-id="1,8" id="Fill-323" node-id="198" stroke="none" target-height="6" target-width="33.40001" target-x="138.9" target-y="147.2"/></g><path d="M 252.50 120.80 L 251.80 127.70 L 251.00 143.50 L 255.20 144.00 L 258.60 121.40 L 252.50 120.80 Z" fill="#ffd1c4" fill-rule="evenodd" group-id="1" id="Fill-324" node-id="199" stroke="none" target-height="23.199997" target-width="7.600006" target-x="251" target-y="120.8"/><path d="M 273.80 120.70 L 274.60 127.60 L 275.60 143.40 L 271.40 143.90 L 267.70 121.30 L 273.80 120.70 Z" fill="#ffd1c4" fill-rule="evenodd" group-id="1" id="Fill-325" node-id="200" stroke="none" target-height="23.199997" target-width="7.899994" target-x="267.7" target-y="120.7"/><path d="M 253.30 95.20 L 252.00 108.20 L 251.10 121.60 L 253.60 122.50 L 255.90 122.80 L 260.20 122.40 L 263.00 100.60 L 265.50 121.90 L 267.90 122.40 L 272.10 122.20 L 274.00 121.50 L 274.70 120.80 L 273.90 107.90 L 272.90 101.50 L 271.50 96.20 L 253.30 95.20 Z" fill="#184657" fill-rule="evenodd" group-id="1" id="Fill-328" node-id="201" stroke="none" target-height="27.600006" target-width="23.600006" target-x="251.1" target-y="95.2"/><path d="M 254.20 79.70 L 252.90 88.00 L 252.40 95.10 L 257.70 98.50 L 261.60 99.70 L 263.60 99.80 L 266.10 99.30 L 268.00 98.40 L 269.60 97.40 L 271.50 95.40 L 269.40 77.90 L 254.20 79.70 Z" fill="#fcc14a" fill-rule="evenodd" group-id="1" id="Fill-329" node-id="202" stroke="none" target-height="21.900002" target-width="19.100006" target-x="252.4" target-y="77.9"/><path d="M 256.10 80.30 L 258.10 92.50 L 262.30 102.00 L 256.60 94.10 L 255.30 91.30 L 255.20 88.50 L 256.10 80.30" fill="#deaa41" fill-rule="evenodd" group-id="1" id="Fill-330" node-id="203" stroke="none" target-height="21.699997" target-width="7.099991" target-x="255.2" target-y="80.3"/><path d="M 268.20 79.60 L 270.60 84.50 L 271.30 87.90 L 270.90 91.40 L 269.20 98.20 L 267.90 100.40 L 265.80 103.10 L 267.40 96.70 L 268.40 91.20 L 268.70 85.80 L 268.20 79.60" fill="#deaa41" fill-rule="evenodd" group-id="1" id="Fill-331" node-id="204" stroke="none" target-height="23.5" target-width="5.5" target-x="265.8" target-y="79.6"/><path d="M 250.60 86.20 L 251.70 91.50 L 254.80 97.90 L 257.10 101.10 L 259.80 103.90 L 262.20 105.60 L 264.60 106.50 L 265.10 106.30 L 265.20 105.70 L 264.60 104.30 L 261.30 100.70 L 257.80 94.70 L 256.30 90.30 L 255.70 86.10 L 250.60 86.20 Z" fill="#ffd1c4" fill-rule="evenodd" group-id="1" id="Fill-332" node-id="205" stroke="none" target-height="20.400002" target-width="14.600006" target-x="250.6" target-y="86.1"/><path d="M 270.30 86.60 L 269.80 92.30 L 269.20 95.60 L 267.30 100.90 L 266.20 102.50 L 264.00 105.00 L 263.70 105.60 L 263.90 106.10 L 264.60 106.30 L 267.60 105.30 L 269.60 103.40 L 272.30 98.70 L 273.60 95.20 L 274.40 91.30 L 274.90 86.50 L 270.30 86.60 Z" fill="#ffd1c4" fill-rule="evenodd" group-id="1" id="Fill-333" node-id="206" stroke="none" target-height="19.800003" target-width="11.199982" target-x="263.7" target-y="86.5"/><path d="M 251.70 76.50 L 252.60 75.20 L 254.10 73.90 L 258.10 72.00 L 260.50 71.50 L 265.00 71.40 L 269.50 72.80 L 271.30 73.90 L 272.70 75.40 L 273.50 77.00 L 274.80 82.40 L 275.40 86.90 L 272.50 87.40 L 270.00 87.20 L 268.90 81.60 L 268.10 79.50 L 256.60 79.50 L 256.20 81.90 L 256.10 87.00 L 253.00 87.40 L 250.40 87.20 L 250.50 81.50 L 251.70 76.50" fill="#fcc14a" fill-rule="evenodd" group-id="1" id="Fill-334" node-id="207" stroke="none" target-height="16" target-width="25" target-x="250.4" target-y="71.4"/><path d="M 260.40 69.00 L 259.90 72.40 L 261.90 74.20 L 263.10 74.80 L 264.20 74.10 L 266.00 72.30 L 265.50 71.20 L 265.50 69.20 L 260.40 69.00 Z" fill="#ffd1c4" fill-rule="evenodd" group-id="1" id="Fill-335" node-id="208" stroke="none" target-height="5.800003" target-width="6.100006" target-x="259.9" target-y="69"/><path d="M 265.50 70.90 L 265.70 66.90 L 260.50 66.90 L 260.30 70.50 L 261.40 71.70 L 262.90 72.30 L 263.90 72.10 L 265.50 70.90" fill="#f4b6a5" fill-rule="evenodd" group-id="1" id="Fill-336" node-id="209" stroke="none" target-height="5.4000015" target-width="5.4000244" target-x="260.3" target-y="66.9"/><path d="M 266.80 66.00 L 266.50 67.90 L 265.70 69.40 L 264.00 70.70 L 263.00 70.80 L 261.10 70.20 L 260.30 69.40 L 259.60 67.90 L 259.30 66.00 L 259.60 64.10 L 260.40 62.60 L 262.00 61.40 L 263.00 61.20 L 264.90 61.80 L 265.70 62.60 L 266.50 64.10 L 266.80 66.00" fill="#ffd1c4" fill-rule="evenodd" group-id="1" id="Fill-337" node-id="210" stroke="none" target-height="9.600002" target-width="7.5" target-x="259.3" target-y="61.2"/><path d="M 261.20 67.30 L 260.90 67.40 L 260.90 67.10 L 261.10 67.00 L 261.20 67.30" fill="#000000" fill-rule="evenodd" group-id="1" id="Fill-338" node-id="211" stroke="none" target-height="0.40000153" target-width="0.3000183" target-x="260.9" target-y="67"/><path d="M 265.10 67.40 L 264.70 67.20 L 265.00 67.10 L 265.10 67.40" fill="#000000" fill-rule="evenodd" group-id="1" id="Fill-339" node-id="212" stroke="none" target-height="0.30000305" target-width="0.3999939" target-x="264.7" target-y="67.1"/><path d="M 263.30 67.40 L 263.80 69.00 L 262.80 69.00 L 263.30 67.40 Z" fill="#e3ac9d" fill-rule="evenodd" group-id="1" id="Fill-342" node-id="213" stroke="none" target-height="1.5999985" target-width="1" target-x="262.8" target-y="67.4"/><path d="M 259.60 67.60 L 258.60 67.20 L 258.10 66.20 L 258.50 65.20 L 259.50 64.80 L 259.60 67.60 Z" fill="#ed6d53" fill-rule="evenodd" group-id="1" id="Fill-343" node-id="214" stroke="none" target-height="2.7999954" target-width="1.5" target-x="258.1" target-y="64.8"/><path d="M 259.60 66.90 L 259.00 66.70 L 258.80 66.20 L 259.00 65.70 L 259.50 65.40 L 259.60 66.90 Z" fill="#bd422a" fill-rule="evenodd" group-id="1" id="Fill-344" node-id="215" stroke="none" target-height="1.5" target-width="0.8000183" target-x="258.8" target-y="65.4"/><path d="M 260.00 64.40 L 260.70 65.60 L 262.20 67.20 L 262.80 67.50 L 264.00 67.20 L 265.60 68.20 L 266.40 68.20 L 267.00 65.80 L 266.80 65.60 L 263.50 64.80 L 260.00 64.40" fill="#f4b6a5" fill-rule="evenodd" group-id="1" id="Fill-345" node-id="216" stroke="none" target-height="3.7999954" target-width="7" target-x="260" target-y="64.4"/><path d="M 266.50 67.60 L 267.50 67.20 L 268.00 66.20 L 267.60 65.20 L 266.60 64.80 L 266.50 67.60 Z" fill="#ed6d53" fill-rule="evenodd" group-id="1" id="Fill-346" node-id="217" stroke="none" target-height="2.7999954" target-width="1.5" target-x="266.5" target-y="64.8"/><path d="M 266.50 67.00 L 267.10 66.80 L 267.30 66.20 L 267.10 65.70 L 266.60 65.50 L 266.50 67.00 Z" fill="#bd422a" fill-rule="evenodd" group-id="1" id="Fill-347" node-id="218" stroke="none" target-height="1.5" target-width="0.7999878" target-x="266.5" target-y="65.5"/><path d="M 263.80 65.70 L 265.80 66.60 L 267.00 66.10 L 267.50 64.50 L 267.50 63.40 L 266.90 61.20 L 264.90 59.40 L 263.60 59.00 L 262.20 59.20 L 259.80 60.70 L 259.10 63.40 L 259.00 64.80 L 259.40 64.90 L 259.50 66.30 L 259.80 66.50 L 260.00 64.40 L 262.00 66.10 L 263.20 66.20 L 263.80 65.70" fill="#0b3b4d" fill-rule="evenodd" group-id="1" id="Fill-348" node-id="219" stroke="none" target-height="7.5999985" target-width="8.5" target-x="259" target-y="59"/><path d="M 250.90 142.20 L 253.20 142.80 L 255.50 142.20 L 255.40 146.20 L 249.90 146.00 L 250.90 142.20" fill="#d6b88d" fill-rule="evenodd" group-id="1" id="Fill-349" node-id="220" stroke="none" target-height="4" target-width="5.600006" target-x="249.9" target-y="142.2"/><path d="M 250.20 144.80 L 253.30 144.10 L 254.90 144.50 L 255.40 144.90 L 255.30 147.00 L 254.70 147.30 L 249.80 147.30 L 249.40 147.10 L 249.40 146.60 L 250.20 144.80 Z" fill="#faf8dc" fill-rule="evenodd" group-id="1" id="Fill-350" node-id="221" stroke="none" target-height="3.199997" target-width="6" target-x="249.4" target-y="144.1"/><path d="M 254.80 146.70 L 249.90 146.70 L 249.40 146.50 L 249.40 147.10 L 249.80 147.30 L 254.70 147.30 L 255.30 147.00 L 255.50 146.40 L 254.80 146.70" fill="#0d232b" fill-rule="evenodd" group-id="1" id="Fill-351" node-id="222" stroke="none" target-height="0.90000916" target-width="6.100006" target-x="249.4" target-y="146.4"/><path d="M 275.70 142.20 L 273.40 142.80 L 271.10 142.20 L 271.20 146.20 L 276.70 146.00 L 275.70 142.20" fill="#d6b88d" fill-rule="evenodd" group-id="1" id="Fill-352" node-id="223" stroke="none" target-height="4" target-width="5.600006" target-x="271.1" target-y="142.2"/><path d="M 276.40 144.80 L 273.30 144.10 L 271.70 144.50 L 271.20 144.90 L 271.30 147.00 L 271.90 147.30 L 276.80 147.30 L 277.20 147.10 L 277.20 146.60 L 276.40 144.80 Z" fill="#faf8dc" fill-rule="evenodd" group-id="1" id="Fill-353" node-id="224" stroke="none" target-height="3.199997" target-width="6" target-x="271.2" target-y="144.1"/><path d="M 271.80 146.70 L 276.70 146.70 L 277.20 146.50 L 277.20 147.10 L 276.80 147.30 L 271.90 147.30 L 271.30 147.00 L 271.10 146.40 L 271.80 146.70" fill="#0d232b" fill-rule="evenodd" group-id="1" id="Fill-354" node-id="225" stroke="none" target-height="0.90000916" target-width="6.100006" target-x="271.1" target-y="146.4"/><path d="M 258.50 88.70 L 261.20 88.90 L 267.40 88.70 L 267.40 79.50 L 264.60 79.80 L 258.50 79.50 L 258.50 88.70 Z M 262.70 89.10 L 258.40 88.80 L 258.40 79.30 L 264.60 79.60 L 267.60 79.30 L 267.60 88.80 L 262.70 89.10 Z" fill="#035e80" fill-rule="evenodd" group-id="1" id="Fill-355" node-id="226" stroke="none" target-height="9.799995" target-width="9.200012" target-x="258.4" target-y="79.3"/><path d="M 272.60 233.30 L 272.30 233.00 L 264.30 104.70 L 264.50 104.40 L 264.80 104.60 L 272.90 233.00 L 272.60 233.30" fill="#035e80" fill-rule="evenodd" group-id="1" id="Fill-356" node-id="227" stroke="none" target-height="128.9" target-width="8.600006" target-x="264.3" target-y="104.4"/></g></svg>