<?xml version="1.0" standalone="no"?><!DOCTYPE svg PUBLIC "-//W3C//DTD SVG 1.1//EN" "http://www.w3.org/Graphics/SVG/1.1/DTD/svg11.dtd"><svg class="icon" width="128px" height="128.00px" viewBox="0 0 1024 1024" version="1.1" xmlns="http://www.w3.org/2000/svg"><path d="M512.11377779 1017.26435555c-271.34862222 0-492.11164445-218.18026667-492.11164447-486.3431111 0-118.77262223 43.78168889-233.10791111 123.23271113-321.99111112 22.08426667-24.66702222 46.91057778-47.32017778 73.80764444-67.27679999A491.1149511 491.1149511 0 0 1 266.23999999 109.5224889c22.56213333-12.8568889 51.16586667-5.02897779 63.94311112 17.44213332 12.83413333 22.47111111 5.02897779 51.12035555-17.44213333 63.94311111a405.98186668 405.98186668 0 0 0-39.89048889 26.04373334c-21.7656889 16.15644445-41.85884445 34.46328889-59.71057778 54.46542222-64.12515555 71.68-99.40764445 163.85137778-99.40764444 259.51573333 0 216.48497778 178.71075555 392.61297778 398.38151112 392.61297778S910.49528889 747.40622223 910.49528889 530.92124445c0-95.65297778-35.29386668-187.79022223-99.38488889-259.51573335a398.27911111 398.27911111 0 0 0-59.77884445-54.46542221c-12.67484446-9.43217778-26.112-18.17031111-39.86773333-26.04373333-22.47111111-12.8568889-30.25351111-41.472-17.41937777-63.9431111 12.8568889-22.47111111 41.44924445-30.34453333 63.96586668-17.44213335a504.95374222 504.95374222 0 0 1 49.12924442 32.08533334c26.81742222 19.91111113 51.67786668 42.56426667 73.85315556 67.32231111 79.47377778 88.92871111 123.23271111 203.264 123.2327111 321.9911111 0 268.17422223-220.76302222 486.3544889-492.11164442 486.35448889zM512.11377779 572.01777778c-25.88444445 0-46.86506667-20.95786668-46.86506668-46.86506667V56.46791111c0-25.9072 20.98062222-46.86506667 46.86506668-46.86506666s46.86506667 20.95786668 46.86506666 46.86506666v468.6848c0 25.9072-20.98062222 46.86506667-46.86506666 46.86506667z" /></svg>