<svg t="1750649541799" class="icon" viewBox="0 0 1024 1024" version="1.1" xmlns="http://www.w3.org/2000/svg" p-id="1670" width="128" height="128"><path d="M26.54814777 463.8917211C26.54814777 443.53915221 42.84719445 427.04592555 62.95703666 427.04592555s36.40888889 16.50536334 36.40888889 36.84579555V823.90281443c0 6.78419001 5.43706112 12.28193223 12.13629667 12.28193224a12.01493333 12.01493333 0 0 0 5.74046777-1.45635556l176.18261334-95.59760554a84.08026112 84.08026112 0 0 1 82.89090446 1.46849109l287.33895111 169.34987889a12.01493333 12.01493333 0 0 0 11.51734443 0.38836111l242.72592668-122.04259556c4.12634112-2.07530667 6.73564445-6.33514667 6.73564444-10.99548444V463.8917211C924.63407445 443.53915221 940.93312 427.04592555 961.04296334 427.04592555s36.40888889 16.50536334 36.40888889 36.84579555V777.29943666c0 32.63450112-18.26512555 62.45338112-47.14951111 76.98052779l-242.72592669 122.04259555a84.08026112 84.08026112 0 0 1-80.56073443-2.70639445L339.66459221 804.29056a12.01493333 12.01493333 0 0 0-11.84502442-0.21845333l-176.18261334 95.60974222a84.16521443 84.16521443 0 0 1-40.1468689 10.19448889c-46.9189211 0-84.95407445-38.47205888-84.95407332-85.96138667V463.8917211z m764.58666666-150.49007331c0 99.90599111-83.25499221 219.49705443-246.96149333 364.41656888a48.54518557 48.54518557 0 0 1-64.3466422 0C316.1080411 532.9108389 232.86518557 413.3076389 232.86518557 313.40164779 232.86518557 161.52803555 357.9904 38.68444445 512 38.68444445s279.13481443 122.84359111 279.13481443 274.71720334z m-485.45185109 0c0 69.99002112 67.93898667 170.16300999 206.31703666 295.48240554 138.37804999-125.31939555 206.31703666-225.49238557 206.31703666-295.48240554C718.31703666 202.05112889 626.0933211 111.50222222 512 111.50222222s-206.31703666 90.53676999-206.31703666 201.89942557zM512 390.63703666a72.81777778 72.81777778 0 1 1 0-145.63555556 72.81777778 72.81777778 0 0 1 0 145.63555556z" p-id="1671"></path></svg>