<svg t="1750250616532" class="icon" viewBox="0 0 1024 1024" version="1.1" xmlns="http://www.w3.org/2000/svg" p-id="1520" width="128" height="128"><path d="M64 170.66666667C10.92266667 170.66666667-34.13333333 213.46986667-34.13333333 266.68373333v490.63253334C-34.13333333 810.56426667 10.92266667 853.33333333 64 853.33333333h896C1013.07733333 853.33333333 1058.13333333 810.53013333 1058.13333333 757.31626667V266.68373333C1058.13333333 213.504 1013.07733333 170.66666667 960 170.66666667z m0 68.26666666h896c17.6128 0 29.86666667 13.07306667 29.86666667 27.7504v490.63253334c0 14.67733333-12.288 27.7504-29.86666667 27.7504H64C46.3872 785.06666667 34.13333333 771.9936 34.13333333 757.31626667V266.68373333c0-14.67733333 12.288-27.71626667 29.86666667-27.71626666zM136.53333333 341.33333333v341.33333334h102.4v-227.19146667l102.4 135.4752 102.4-135.50933333V682.66666667h102.4V341.33333333h-102.4l-102.4 136.53333334-102.4-136.53333334z m580.26666667 0v170.66666667h-102.4l153.6 170.66666667 153.6-170.66666667h-102.4v-170.66666667z" p-id="1521"></path></svg>