<?xml version="1.0" standalone="no"?><!DOCTYPE svg PUBLIC "-//W3C//DTD SVG 1.1//EN" "http://www.w3.org/Graphics/SVG/1.1/DTD/svg11.dtd"><svg class="icon" width="128px" height="128.00px" viewBox="0 0 1024 1024" version="1.1" xmlns="http://www.w3.org/2000/svg"><path d="M262.95607062 274.77553719c0-99.26345625 81.90634875-178.80219937 180.91384782-178.80219938 98.99150156 0 180.89785031 79.53874313 180.89785031 178.80219938 0 99.24745875-80.59456782 173.12314594-179.58606937 173.12314594-99.02349562 0-182.22562875-73.87568719-182.22562876-173.12314594zM93.19236406 867.38076969v-1.48775157c0-181.39376812 139.97667094-331.3367775 317.09915063-348.38993531L447.99723031 511.92001344c40.90518279-3.19946719 98.47958719-8.28661875 128.85852375-35.49808407l13.85369062-10.14230906c58.02232969-47.99200123 92.01666377-116.28461906 92.01666376-191.50408312C682.72610844 141.4057653 573.57630031 32 437.4549875 32 311.33200813 32 202.27818311 141.4057653 202.27818311 274.77553719c0 75.21946313 34.02632906 143.49608438 92.03266127 191.48808562l17.02116375 10.15830657-16.98916874 6.94284281C137.34500561 544.7145472 32.01855969 695.13747687 32.01855969 865.89301812 31.42665875 929.51441469 81.96223625 991.248125 145.40766219 991.84002687h302.58956812c10.1263125 0 31.89868313-15.99733406 31.89868313-31.99466812 0-15.96533906-21.77237156-31.93067813-31.89868313-31.93067812H147.03939031c-29.57907001 0.39993375-53.4470925-30.87485437-53.84702625-60.53391094z m841.21979719-83.58606844c-51.06348938 6.89485125-88.86518907 47.89601719-88.86518906 102.33494344 0 10.15830657 3.19946719 24.02799562 6.91084781 30.98683593l-44.16863813 23.99600063-16.98916875-17.05315782c-20.26862156-13.91768062-37.25779031-20.2366275-58.00633218-20.23662749-17.11714687 0-37.27378781 6.87885375-58.02232969 20.23662749-6.92684531 6.87885375-13.83769406 10.15830657-17.06915531 17.05315782l-40.92117937-23.99600063c3.18346969-6.9588403 6.87885375-20.30061657 6.8788528-30.98683593a102.86285625 102.86285625 0 0 0-88.84919155-102.33494344c0-6.97483781-3.24745875-20.31661407-3.24745876-34.21829719 0-10.14230999 3.24745875-24.01199813 3.24745876-34.13831062 50.99950031-6.97483781 88.86518907-48.05599031 88.86518905-102.4309275 0-10.19030156-3.18346969-23.99600063-6.87885375-30.90684937l44.15264157-24.0599897c3.19946719 3.21546375 10.04632594 10.15830657 17.02116281 13.91767969 20.15664094 13.83769406 37.27378781 20.2366275 54.31094906 20.2366275 16.97317126 0 34.02632906-6.9108478 54.21496405-20.2366275 6.97483781-6.9108478 13.83769406-10.15830657 17.10114939-13.91767969l44.15264156 24.0599897c-3.19946719 6.9108478-6.99083531 20.26862156-6.9908353 30.90684937a102.97483781 102.97483781 0 0 0 88.94517562 102.4309275c0 6.9108478 3.19946719 20.26862156 3.19946718 34.13831062 4.79920031 10.1263125 1.00783219 23.99600063 1.00783219 34.21829719z m17.06915532-116.38060407h-3.2314622c-30.79486781 0-54.21496407-24.01199813-54.21496403-54.40693124 0-6.94284281 3.18346969-17.11714687 3.18346966-20.26862249 6.84685875-17.06915532 0-37.40176594-13.86968812-48.02399627l-61.17380438-34.13830968h-17.06915531c-10.03032844 0-23.90001657 3.18346969-30.81086532 13.83769312-6.92684531 6.9588403-27.16347282 24.02799562-40.95317437 24.02799563-13.86968812 0-34.10631563-17.06915532-44.23262719-24.02799563-6.86285625-6.9108478-17.02116281-13.83769406-30.85885687-13.83769312-6.84685875 0-10.0623225 0-13.83769406 3.18346875l-64.86918844 34.13831062c-13.86968812 10.14230999-20.26862156 30.92284594-13.86968814 47.99200125 0 0 3.18346969 10.17430406 3.18346876 20.30061656a53.54307658 53.54307658 0 0 1-54.23096157 54.43892718h-3.24745874c-13.83769406 0-27.14747531 13.91768062-30.85885687 30.93884344 0 3.19946719-6.87885375 27.19546781-6.87885281 51.25545751 0 20.31661407 3.16747219 48.02399625 6.87885281 51.11148094 3.23146125 17.14914188 16.98916875 31.0348275 30.85885687 31.0348275h3.26345624c30.84285938 0 54.21496407 24.01199813 54.21496407 54.43892719 0 6.87885375-3.18346969 17.02116281-3.18346876 20.1726375-6.86285625 17.14914188 0 37.30578281 13.86968814 48.02399625L640.66911781 991.84002687c6.99083531-3.19946719 10.19030156-3.19946719 17.05315782-3.19946718 10.1263125 0 23.96400564-3.19946719 30.93884437-13.94967469 6.86285625-6.9108478 27.09948375-27.08348625 44.15264063-27.08348625 13.83769406 0 37.16180626 17.02116281 44.15264156 27.08348625 6.87885375 6.97483781 17.03716031 13.93367813 30.87485436 13.93367719 6.84685875 0 10.07832 0 16.97317126-3.18346875l61.15780688-34.17030563c13.83769406-10.1263125 20.28461906-30.90684844 13.83769311-48.08798534 0 0-3.13547719-10.04632594-3.13547717-20.20463248 0-30.95484094 23.96400564-54.43892719 54.29495061-54.43892624h3.18346971c13.80569906 0 27.13147781-13.91768062 30.8108653-30.93884344 0 0 6.89485125-27.17947031 6.89485031-51.2554575-6.35094188-17.06915532-9.50241657-44.26462219-9.50241657-47.96000718-3.26345625-17.11714687-17.10114939-30.97083843-30.87485342-30.97083845zM733.3416725 793.87302126c-23.96400564 0-44.23262811-20.30061657-44.23262719-44.2966172 0-24.01199813 20.26862156-44.29661719 44.23262719-44.29661718 23.90001657 0 44.15264156 20.28461906 44.15264156 44.31261468 0.47992031 23.99600063-20.26862156 44.28061969-44.15264156 44.2806197z m16.98916875-136.56923813c-64.949175-13.91768062-122.92351312 44.26462219-109.10181656 112.55723998 6.94284281 37.32177937 37.27378781 68.24462625 74.97950343 75.15547408 64.9971675 13.96567216 122.98750219-44.20063313 109.14980813-109.30978126-6.38293594-40.53724406-37.27378781-71.50808156-75.027495-78.4029328z" /></svg>