<svg t="1750645764958" class="icon" viewBox="0 0 1024 1024" version="1.1" xmlns="http://www.w3.org/2000/svg" p-id="3075" width="128" height="128"><path d="M21.205 771.627H137.92v-159.36h56.747c102.4 0 191.701-50.347 191.701-164.48 0-118.614-88.021-155.947-194.965-155.947H21.205v479.787z m116.715-250.24V382.72h47.68c56.064 0 87.467 16.853 87.467 65.067 0 47.146-27.392 73.6-84.139 73.6H137.92z m308.843 250.24h115.413V404.693H446.763v366.934z m217.344 0H779.52v-245.12c22.827-21.334 38.4-32.854 64.555-32.854 29.354 0 43.05 14.72 43.05 65.067v212.907H1003.2V544.64c0-91.733-34.581-149.12-115.435-149.12-45.312 1.579-88.106 21.333-118.677 54.827h-2.603l-7.829-45.654h-94.55v366.934zM400.363 213.547H601.28v66.986H400.363z" p-id="3076"></path></svg>