<?xml version="1.0" standalone="no"?><!DOCTYPE svg PUBLIC "-//W3C//DTD SVG 1.1//EN" "http://www.w3.org/Graphics/SVG/1.1/DTD/svg11.dtd"><svg class="icon" width="64px" height="64.00px" viewBox="0 0 1024 1024" version="1.1" xmlns="http://www.w3.org/2000/svg"><path d="M851.50203541 643.88047671c-15.31256583-88.92912996-79.54918132-147.19304254-79.54918131-147.19304254 9.15948008-80.73169633-24.4720459-95.06217356-24.47204591-95.06217358C740.40576172 151.83401729 525.74924154 156.18326731 521.21960793 156.30352303 516.68997432 156.18326731 301.99336842 151.83401729 294.95840694 401.62526059c0 0-33.6515681 14.33047725-24.49208877 95.06217358 0 0-64.2366155 58.26391258-79.52913844 147.19304254 0 0-8.1773915 150.25956472 73.43618055 18.39913013 0 0 18.35904514 50.08652182 51.9905711 95.06217358 0 0-60.16796188 20.46352088-55.03704969 73.59652126 0 0-2.08443288 59.26604402 128.47323026 55.19739114 0 0 91.75513998-7.13517506 119.31375017-45.99782607l12.0255751 0 0.20042643 0 12.04561794 0c27.53856734 38.84260814 119.29370804 45.99782606 119.29370805 45.99782607 130.51757813 4.06865287 128.47323025-55.19739113 128.47323024-55.19739114 5.09082718-53.13300039-55.03704969-73.59652127-55.03704969-73.59652126 33.63152597-44.97565177 51.99057111-95.06217356 51.9905711-95.06217358C859.6393419 794.14004068 851.50203541 643.88047671 851.50203541 643.88047671z" /></svg>