<svg t="1750844310507" class="icon" viewBox="0 0 1024 1024" version="1.1" xmlns="http://www.w3.org/2000/svg" p-id="2611" width="128" height="128"><path d="M220.72888889 220.72888889h83.22048v83.22048H220.72888889V220.72888889zM886.49159111 886.49159111h83.22048v83.22048h-83.22048v-83.22048zM886.49159111 720.05063111H803.27111111V553.60967111H553.60967111V969.71207111h83.22048V636.83015111h83.22048V803.27111111h249.66144V553.60967111h-83.22048z" p-id="2612"></path><path d="M720.05063111 886.49159111H803.27111111v83.22048h-83.22048v-83.22048zM54.28792889 470.39032889H470.39146667V54.28792889H54.28792889V470.39146667z m83.22048-332.88192h249.66144v249.66144H137.50840889V137.50840889zM220.72888889 720.05063111h83.22048V803.27111111H220.72888889v-83.22048z" p-id="2613"></path><path d="M54.28792889 969.71207111H470.39146667V553.60853333H54.28792889v416.1024z m83.22048-332.88192h249.66144v249.66144H137.50840889V636.83015111zM720.05063111 220.72888889H803.27111111v83.22048h-83.22048V220.72888889z" p-id="2614"></path><path d="M553.60967111 54.28792889V470.39146667h416.1024V54.28792889H553.60853333z m332.88192 332.88192H636.83015111V137.50840889h249.66144v249.66144z" p-id="2615"></path></svg>