<svg t="1750064916898" class="icon" viewBox="0 0 1024 1024" version="1.1" xmlns="http://www.w3.org/2000/svg" p-id="2409" width="128" height="128"><path d="M723.584375 440.86396484C727.47177734 185.55224609 519.39160156 69.88378906 505.42402344 62.36035156V62l-0.39550782 0.18017578-0.36035156-0.18017578v0.36035156c-14.00449219 7.5234375-222.11982422 123.19189453-218.19638672 378.50361328-42.37207031 27.64775391-86.75947266 76.78828125-79.70361328 161.78378907 7.05585937 84.96035156 88.77568359 141.3 120.05947266 138.24052734 31.28466797-3.06035156 22.1765625-26.63964844 22.1765625-26.63964844l10.72792969-44.02880859s46.11621094 70.81259766 60.91171875 70.7765625c13.28378906-1.08105469 76.46484375-0.10810547 84.0234375 0h0.72070312c7.56035156-0.10810547 70.73964844-1.08105469 84.0234375 0 14.76035156 0 60.91259766-70.7765625 60.91259766-70.7765625l10.69189453 44.02792969s-9.07207031 23.58105469 22.21171875 26.63964843c31.28466797 3.06035156 113.00449219-53.27929688 120.06035156-138.23964843 7.05585937-84.95947266-37.33154297-134.13603516-79.70361328-161.78378907z m-218.55673828-3.74414062c-5.93964844-0.10810547-83.30361328-2.95224609-90.43154297-94.21171875 2.59277344-86.76035156 84.34863281-94.42792969 90.43154297-94.86035156 6.12070312 0.43242188 87.84052734 8.1 90.43242187 94.86035156-7.12792969 91.25947266-84.52792969 94.10449219-90.43242187 94.21171875z m-45.71982422 439.91982422c0 10.40449219-8.27929688 18.79277344-18.46757812 18.79277344a18.64775391 18.64775391 0 0 1-18.50449219-18.75585938V784.23242188c0-10.36845703 8.28017578-18.79277344 18.50449219-18.79277344 10.18740234 0 18.46757812 8.42431641 18.46757812 18.79277343v92.84326172z m67.96845703 50.29277344a18.9 18.9 0 0 1-18.75585937 19.00722656 18.9 18.9 0 0 1-18.75585938-19.00722656V789.27207031c0-10.51171875 8.38740234-19.04414062 18.71982422-19.04414062 10.36757812 0 18.79101563 8.53242188 18.79101563 19.04414062v138.06035156z m62.53154297-72.10810547c0 10.36757812-8.27929688 18.75585938-18.50361328 18.75585937a18.64775391 18.64775391 0 0 1-18.46845703-18.75585937v-66.24052735c0-10.33154297 8.28017578-18.71982422 18.46845703-18.71982422 10.2234375 0 18.50361328 8.38828125 18.50361328 18.72070313v66.23964844z" p-id="2410"></path></svg>