<?xml version="1.0" standalone="no"?><!DOCTYPE svg PUBLIC "-//W3C//DTD SVG 1.1//EN" "http://www.w3.org/Graphics/SVG/1.1/DTD/svg11.dtd"><svg class="icon" width="128px" height="128.00px" viewBox="0 0 1024 1024" version="1.1" xmlns="http://www.w3.org/2000/svg"><path d="M986 494c-6-6-12-12-24-18-12 0-30-12-41.99999999-23.99999999-36-36-36-101.99999999 0-144.00000001 12-12 12-36 0-48L758 98c-6 0-12-6-24.00000001-6s-18 6-23.99999999 12.00000001c-36 36-101.99999999 36-144 0-12-12-18-30-24-48 0-6-6-18-18-24.00000001h-24L284 92c-24.00000001 6-30 24.00000001-30 42 12 36 0 72.00000001-24 96-24.00000001 24.00000001-59.99999999 36-96 24-18 0-36 6-42 30L32 500c0 6 0 18 6 24 6 6 12 12 24 18 12 6 30 12 42.00000001 24 36 36 36 101.99999999 0 144-6 6-12 18-12.00000001 23.99999999 0 12 6 18 12.00000001 24.00000001l161.99999999 161.99999999c12 12 36 12 48 0 36-36 101.99999999-36 144 0 12 12 24.00000001 30 24 48 0 12 6 18 18 24.00000001h24l216-60c18-6 30-24.00000001 24-42-12-36 0-72.00000001 24-96 24.00000001-24.00000001 59.99999999-36 96-24 18 6 36-6 42-24l60-222c6-12 6-18 0-30zM872.00000001 692c-48 0-96 18-132.00000001 48-30 36-48 84-48 131.99999999l-156.00000001 42.00000001c-6-18-18-30-29.99999999-48-30-30-72.00000001-48-120-48-36 0-66 12-96.00000001 30L176 734.00000001c42-66 36-156-24.00000001-216.00000001-12-12-30-24.00000001-41.99999999-30.00000001L151.99999999 332c48 0 96-18 132.00000001-48 30-36 48-84 48-131.99999999l156.00000001-42.00000001c6 12 18 30 29.99999999 41.99999999 54 54 150 66 216.00000001 24.00000001l113.99999999 114.00000001c-42 66-36 156 23.99999999 209.99999999 12 12 30 24.00000001 42.00000001 30L872.00000001 692zM512 314c-108 0-198 90-198 198 0 108 90 198 198 198s198-90 198-198c0-108-90-198-198-198z m0 324c-72.00000001 0-126-59.99999999-126-126 0-72.00000001 59.99999999-126 126-126s126 59.99999999 126 126c0 72.00000001-54 126-126 126z" /></svg>