<svg xmlns="http://www.w3.org/2000/svg" viewBox="0 0 24 24" fill="none">
  <path
    d="M12 3a1 1 0 0 1 1 1v1a1 1 0 1 1-2 0V4a1 1 0 0 1 1-1Zm0 15a4 4 0 1 0 0-8 4 4 0 0 0 0 8Zm8-6a1 1 0 0 1 1 1h-1 1a1 1 0 0 1-1 1h-1a1 1 0 1 1 0-2h1ZM4 12a1 1 0 0 1 1-1H4h1a1 1 0 1 1 0 2H4a1 1 0 0 1-1-1Zm12.95-5.536a1 1 0 0 1 1.414 0l.707.707a1 1 0 1 1-1.414 1.414l-.707-.707a1 1 0 0 1 0-1.414ZM5.636 17.657a1 1 0 0 1 1.414 0l.707.707a1 1 0 1 1-1.414 1.414l-.707-.707a1 1 0 0 1 0-1.414Zm12.728 0a1 1 0 0 1 0 1.414l-.707.707a1 1 0 0 1-1.414-1.414l.707-.707a1 1 0 0 1 1.414 0ZM7.05 6.464a1 1 0 0 1 0 1.414l-.707.707A1 1 0 0 1 4.93 7.17l.707-.707a1 1 0 0 1 1.414 0Z"
    fill="#000"
  />
</svg>
