<?xml version="1.0" standalone="no"?><!DOCTYPE svg PUBLIC "-//W3C//DTD SVG 1.1//EN" "http://www.w3.org/Graphics/SVG/1.1/DTD/svg11.dtd"><svg class="icon" width="128px" height="128.00px" viewBox="0 0 1024 1024" version="1.1" xmlns="http://www.w3.org/2000/svg"><path d="M511.62125001 98.5625c66.425625 0 126.58875001 26.941875 170.14687499 70.4915625 43.550625 43.554375 70.4878125 103.7165625 70.4878125 170.1478125 0 66.4275-26.93625001 126.6159375-70.4878125 170.14875a241.569375 241.569375 0 0 1-35.690625 29.4253125c50.8359375 19.228125 96.474375 49.0078125 134.2471875 86.6709375 68.8790625 68.7234375 111.49124999 163.57875001 111.49125 268.25625 0 18.0796875-14.6728125 32.7534375-32.7759375 32.7534375-18.0778125 0-32.750625-14.6728125-32.750625-32.7534375 0-86.72624999-35.1815625-165.1978125-92.05312501-221.92125-56.8528125-56.6990625-135.4190625-91.824375-222.22406249-91.9396875h-0.7865625c-86.840625 0.1153125-165.4059375 35.240625-222.24187501 91.9396875-56.870625 56.7234375-92.053125 135.195-92.05312499 221.92125 0 18.0796875-14.6728125 32.7534375-32.7721875 32.7534375-18.0825 0-32.754375-14.6728125-32.754375-32.7534375 0-104.6765625 42.6140625-199.5328125 111.508125-268.25625 37.7390625-37.663125 83.3775-67.4428125 134.2134375-86.6709375a241.981875 241.981875 0 0 1-35.6709375-29.4253125c-43.535625-43.5328125-70.47374999-103.72124999-70.47375-170.14875 0-66.43125001 26.938125-126.5934375 70.47375-170.1478125C385.0053125 125.504375 445.1721875 98.5625 511.62125001 98.5625z m123.80812499 116.8321875c-31.68-31.6809375-75.4640625-51.3065625-123.8090625-51.3065625-48.3496875 0-92.150625 19.625625-123.8296875 51.3065625-31.6809375 31.68-51.3028125 75.4584375-51.3028125 123.808125 0 48.350625 19.621875 92.1290625 51.3028125 123.8315625 31.5853125 31.5825 75.2334375 51.16875001 123.4340625 51.283125H511.994375c48.195-0.114375 91.84125001-19.700625 123.43125-51.283125 31.68375001-31.7025 51.305625-75.481875 51.30562499-123.8315625 0-48.350625-19.621875-92.128125-51.30187499-123.808125z m0 0" /></svg>