<svg t="1750409723250" class="icon" viewBox="0 0 1024 1024" version="1.1" xmlns="http://www.w3.org/2000/svg" p-id="1610" width="128" height="128"><path d="M402.77333333 730.45333333c-7.28177778 0-10.92266667 0-18.20444444-3.64088888C373.64622222 719.53066667 366.36444445 708.608 366.36444445 694.04444445L366.36444445 329.95555555c0-14.56355555 7.28177778-25.48622222 18.20444444-32.768 10.92266667-7.28177778 25.48622222-7.28177778 36.40888889 0l291.27111111 189.32622223c10.92266667 7.28177778 18.20444445 18.20444445 18.20444444 32.768 0 10.92266667-7.28177778 25.48622222-18.20444444 29.12711111l-291.27111111 178.40355556C417.33688889 730.45333333 410.05511111 730.45333333 402.77333333 730.45333333zM439.18222222 395.49155555l0 233.0168889 185.68533333-112.86755556L439.18222222 395.49155555z" p-id="1611"></path><path d="M512 1021.72444445C231.65155555 1021.72444445 2.27555555 792.34844445 2.27555555 512S231.65155555 2.27555555 512 2.27555555s509.72444445 229.376 509.72444445 509.72444445S792.34844445 1021.72444445 512 1021.72444445zM512 75.09333333C271.70133333 75.09333333 75.09333333 271.70133333 75.09333333 512c0 240.29866667 196.608 436.90666667 436.90666667 436.90666667 240.29866667 0 436.90666667-196.608 436.90666667-436.90666667C948.90666667 271.70133333 752.29866667 75.09333333 512 75.09333333z" p-id="1612"></path></svg>