<?xml version="1.0" standalone="no"?><!DOCTYPE svg PUBLIC "-//W3C//DTD SVG 1.1//EN" "http://www.w3.org/Graphics/SVG/1.1/DTD/svg11.dtd"><svg class="icon" width="64px" height="64.00px" viewBox="0 0 1024 1024" version="1.1" xmlns="http://www.w3.org/2000/svg"><path d="M825.9999998 277.99999999c-47.99999971-54-119.99999971-74.00000038-183.9999999-60.00000028-15.99999961 3.9999999-24.00000029 18-21.9999999 34.00000049 3.9999999 15.99999961 18 24.00000029 33.99999961 21.99999989 46.0000002-10.00000019 97.9999998 3.9999999 132.00000029 42.0000003 33.99999961 38.00000039 43.9999998 89.99999999 28.0000002 135.99999931-2.00000039 7.9999998-2.00000039 14.0000001 1.99999951 21.99999991 3.9999999 6.00000029 10.00000019 11.99999971 16.00000049 14.0000001 14.0000001 3.9999999 29.99999971-3.9999999 36-18 18-65.99999971 6.00000029-137.99999971-42.00000029-191.99999972zM739.99999971 454.0000001c11.99999971 3.9999999 25.99999981-2.00000039 30.00000058-16.00000048 10.00000019-32.0000001 3.9999999-65.99999971-20.00000038-91.99999952-24.00000029-25.99999981-57.9999999-36-90.00000001-29.99999971-14.0000001 2.00000039-21.9999999 15.99999961-18 27.99999932 2.00000039 14.0000001 15.99999961 21.9999999 28.0000002 18 15.99999961-3.9999999 32.0000001 2.00000039 43.9999998 14.0000001 11.99999971 11.99999971 14.0000001 29.99999971 10.0000002 46.0000002-3.9999999 14.0000001 3.9999999 28.00000019 15.99999961 32.00000009zM692 500.00000029c-10.00000019-3.9999999-18-6.00000029-11.99999971-18 11.99999971-29.99999971 11.99999971-56.00000039 0-74.00000039-24.00000029-33.99999961-89.99999999-32.0000001-164.00000039 0 0 0-24.00000029 10.00000019-18-7.9999998 11.99999971-38.00000039 10.00000019-68.00000011-7.9999998-86.0000001-39.9999999-39.9999999-147.9999999 2.00000039-240.00000029 93.9999999C181.99999971 478.00000039 141.99999981 550.00000039 141.99999981 613.9999997c0 122.0000001 155.99999971 195.99999961 308.00000038 196.0000005 200.00000039 0 331.99999981-115.99999981 331.99999981-208.00000021 0-56.00000039-47.99999971-87.99999962-90-101.9999997zM450.0000002 766.00000039c-122.0000001 11.99999971-226.0000002-43.9999998-234.00000001-122.0000001-7.9999998-79.99999981 83.99999972-154.00000019 205.99999982-165.9999999 122.0000001-11.99999971 226.0000002 43.9999998 233.99999999 121.99999923 7.9999998 79.99999981-83.99999972 154.00000019-205.99999981 166.00000077zM461.9999999 537.99999981c-57.9999999-15.99999961-123.99999961 14.0000001-147.9999999 64.00000018-25.99999981 51.99999961 0 110.00000039 57.9999999 128.00000042 60.0000003 20.00000039 132.00000029-10.00000019 155.99999971-66.0000006 24.00000029-54-6.00000029-110.00000039-65.99999971-126.00000001z m-43.99999979 133.9999998c-11.99999971 18-36 28.00000019-56.0000004 18-18-7.9999998-24.00000029-29.99999971-11.99999971-47.99999971 11.99999971-18 36-25.99999981 54-18 20.00000039 6.00000029 25.99999981 28.00000019 14.00000011 47.99999971z" /></svg>