<svg t="1749972821794" class="icon" viewBox="0 0 1257 1024" version="1.1" xmlns="http://www.w3.org/2000/svg" p-id="1359" width="64" height="64"><path d="M790.52374999 298.5621875c10.06124999 0 22.6359375 0 32.69718751 2.514375-30.1828125-138.33375001-176.060625-241.4540625-347.090625-241.4540625-188.63718749 0-342.0609375 128.2725-342.0609375 291.75749999 0 95.5753125 50.3025 171.03 138.33375 231.39281251l-35.21156251 103.12125 120.72750001-60.36281251c42.7575 10.06124999 75.4546875 17.60625001 118.21218751 17.60625001 12.575625 0 22.6359375 0 32.69718749 0-5.0296875-22.6359375-10.06124999-47.788125-10.06125-72.939375 0-150.909375 128.2725-271.636875 291.7575-271.63687499zM606.918125 205.5003125c25.15125002 0 42.7575 17.60625001 42.7575 42.7575s-17.60625001 42.7575-42.7575 42.7575c-27.6675 0-52.81875001-17.60625001-52.81875-42.7575 0-25.15125002 25.15125002-42.7575 52.81875-42.7575zM365.463125 291.01625001c-25.15125002 0-50.3025-17.60625001-50.3025-42.75750002s25.15125002-42.7575 50.3025-42.7575c25.15125002 0 42.7575 17.60625001 42.7575 42.7575 0 25.15125002-17.60625001 42.7575-42.7575 42.7575z" p-id="1360"></path><path d="M1104.918125 565.1675c0-135.8184375-138.33375001-249-291.7575-249-163.4840625 0-291.7575 113.1815625-291.7575 249 0 138.33375001 128.2725 249 291.7575 249 32.6971875 0 67.9096875-7.5459375 103.12125-15.0909375l93.0609375 50.3025-25.15124999-85.5159375c67.9096875-52.81875001 120.7275-120.7275 120.72749999-198.6965625zM717.58625001 522.4109375c-17.60625001 0-35.2115625-15.0909375-35.21156251-32.69718749s17.60625001-35.2115625 35.21156251-35.21156251c25.15125002 0 42.7575 17.60625001 42.7575 35.21156251 0 17.60625001-17.60625001 32.6971875-42.7575 32.69718749zM906.2215625 522.4109375c-17.6071875 0-32.6971875-15.0909375-32.6971875-32.69718749s15.0909375-35.2115625 32.6971875-35.21156251c25.15125002 0 42.7575 17.60625001 42.7575 35.21156251 0 17.60625001-17.6071875 32.6971875-42.7575 32.69718749z" p-id="1361"></path></svg>